<svg width="28px" height="28px" viewBox="0 0 28 28" version="1.1" xmlns="http://www.w3.org/2000/svg">
  <g stroke="none" stroke-width="1" fill="none" fill-rule="evenodd">
    <g transform="translate(-39.000000, -426.000000)" fill-rule="nonzero">
      <g transform="translate(39.500000, 426.250000)">
        <path d="M13.5000157,27.0000314 C6.04431563,27.0000314 0,20.9557158 0,13.5000157 C0,6.04431563 6.04431563,0 13.5000157,0 C20.9557158,0 27.0000314,6.04431563 27.0000314,13.5000157 C27.0000314,20.9557158 20.9557158,27.0000314 13.5000157,27.0000314 Z" fill="#FFBA07" />
        <path d="M0.920455856,18.4091171 C2.88409379,23.437873 7.77601169,27.0000314 13.5000183,27.0000314 C19.224025,27.0000314 24.115935,23.437873 26.0795808,18.4091171 L0.920455856,18.4091171 Z M0.508091021,17.1818418 L26.4919299,17.1818418 C26.6054529,16.7799104 26.7005665,16.3706148 26.7772706,15.9545664 L0.222845181,15.9545664 C0.298936227,16.3706121 0.394663467,16.7799078 0.508185943,17.1818418 L0.508091021,17.1818418 Z M0.0552261385,14.7272937 L26.9447789,14.7272937 C26.981597,14.3229076 27.0000061,13.9136119 27.0000061,13.5000183 L-2.53125294e-05,13.5000183 C-2.53125294e-05,13.9136093 0.0183838046,14.3229049 0.0552021443,14.7272937 L0.0552261385,14.7272937 Z" fill="#131A3E" />
        <path d="M22.09093,13.5000157 C22.09093,18.2446648 18.2446648,22.09093 13.5000157,22.09093 C8.75536663,22.09093 4.90910142,18.2446648 4.90910142,13.5000157 C4.90910142,8.75536663 8.75536663,4.90910142 13.5000157,4.90910142 C18.2446648,4.90910142 22.09093,8.75536663 22.09093,13.5000157 Z" fill="#FFFFFF" />
        <path d="M16.5369128,20.7311236 C16.9277989,20.2083001 17.2830945,19.5940494 17.7856643,19.2019372 C18.4760055,18.6619366 19.145485,18.1403455 19.8352119,17.5985045 C19.8352119,17.5985045 19.8352119,18.326891 18.7171653,19.3338708 C17.4874378,20.3383959 16.5369128,20.7298964 16.5369128,20.7298964 L16.5369128,20.7311236 L16.5369128,20.7311236 Z M12.6047168,21.2711205 C12.5678987,21.2711205 12.4384211,21.2711205 12.4003756,21.2330749 C12.1401934,20.8986437 11.8597606,20.5813933 11.6001938,20.2635286 C11.5253302,20.171483 10.9650787,19.5946635 11.0387171,19.5179586 C11.411808,19.2019343 11.7848988,18.8859126 12.1395827,18.5502527 C12.4003785,18.3440705 12.4194022,18.3268888 12.7366526,18.3268888 C13.6663132,18.2888433 14.5990404,18.2520252 15.5305494,18.2323887 C15.7741632,18.2139796 15.9594807,18.4931845 16.1270049,18.6422988 C16.4430292,18.9233443 16.7412556,19.1829138 17.0413251,19.4455497 C16.7983248,19.7983906 16.5547101,20.1536862 16.3331886,20.4887318 C16.1466429,20.7679369 16.0901883,20.8618227 15.7919619,20.9722776 C15.0457802,21.252097 14.2075505,21.3079375 13.4245496,21.3079375 C13.1453445,21.3079375 12.8661393,21.3079375 12.6047295,21.2711194 L12.6047168,21.2711205 Z M8.24481819,18.3072606 C8.41356838,18.2704424 8.43136388,18.3072606 8.57986379,18.4005333 C9.10145483,18.7171693 9.64329589,19.0534436 10.1642752,19.3700796 C10.89205,19.8180349 11.3940027,20.544581 11.9536416,21.1784674 C11.2270956,21.1962628 10.424459,20.7305121 9.79056999,20.4132617 C8.93515942,19.9653064 8.02145357,19.3332604 7.49863646,18.4938047 C7.74163674,18.4385775 8.00304662,18.3637136 8.24481819,18.307259 L8.24481819,18.3072606 Z M6.1584514,12.90235 C6.34376971,12.7722589 6.53092791,12.6605768 6.71686162,12.5298735 C6.88438469,12.9588048 7.07093118,13.3877388 7.23845266,13.8166702 C7.36915733,14.1148966 7.48083938,14.39349 7.61031745,14.6917164 C7.64836297,14.821194 7.76004502,14.9721476 7.77968121,15.1016265 C7.90915875,16.0527632 8.04047699,16.9842643 8.16995559,17.9347841 C7.9656144,18.0084206 7.76004554,18.0648752 7.55570488,18.1225571 C7.36915918,18.1974208 7.31393172,18.2698299 7.18261401,18.1023071 C6.66102298,17.3573515 6.19465808,16.5363053 5.9890887,15.6422351 L5.98908911,15.6422369 C5.8033521,14.8482909 5.70966779,14.0355953 5.70988363,13.2202128 C5.70988363,13.1453491 6.08420358,12.9397816 6.15906538,12.9023481 L6.15783809,12.9023481 L6.1584514,12.90235 Z M8.89771533,9.49298956 L10.2201025,9.54821676 C10.2753297,9.54821676 10.8717841,9.51139863 10.9086033,9.58564871 C11.1933297,10.2851947 11.4854231,10.9810599 11.7842639,11.6738559 C11.8413321,11.8033332 11.9898322,12.0089015 11.9339915,12.1389921 L11.9339915,12.1389921 C11.7659977,12.4399212 11.6039662,12.7441409 11.4479909,13.0514693 C11.1147857,13.6669461 10.7791258,14.3014468 10.4434658,14.932881 L8.11471309,14.932881 C8.03984944,14.932881 7.75880311,14.1517206 7.74162223,14.0952657 C7.51764484,13.5933103 7.29428128,13.0907406 7.08809754,12.6041283 C6.99605196,12.400401 6.82791532,12.2138539 6.9408245,12.0273085 C7.16296119,11.5977628 7.36914414,11.1890815 7.59250612,10.7601475 C7.79623348,10.3680327 8.02082576,9.95812261 8.22578078,9.5482152 C8.31905349,9.3616695 8.7087122,9.47335155 8.89771242,9.492988 L8.89771533,9.49298956 Z M13.3674598,7.76007798 C13.220187,7.83310067 13.0876403,7.92698721 12.9581641,8.00185113 L11.5615268,8.83946646 C11.3933902,8.9511485 11.1528455,9.19537644 10.9282522,9.17512642 L8.44915886,9.06344437 C8.39270427,8.76521795 8.33624968,8.46821761 8.28102222,8.16814812 C8.2442041,7.96503432 8.16934018,7.83310251 8.29943131,7.6852167 C9.02720609,6.88319184 10.1440239,6.36098908 11.1694239,6.04557914 C11.3743787,5.97071549 11.7278341,5.83878343 11.9720605,5.91364708 C12.4009918,6.04557914 12.8274711,6.19407826 13.2576311,6.32355712 C13.3871084,6.36037525 13.3674722,7.33114873 13.3871084,7.48026326 C13.4055175,7.57230884 13.4441766,7.70362708 13.367472,7.75946837 L13.367472,7.76008201 L13.3674598,7.76007798 Z M14.2652108,12.2703225 C14.6542565,12.2703225 15.0445309,12.2506861 15.4378718,12.2506861 C15.5679629,12.2506861 15.791327,12.7538675 15.8471675,12.8471416 C16.1460082,13.3122777 16.4423942,13.7786426 16.7406233,14.2437788 C16.7774414,14.3014608 17.2444191,14.9163248 17.2069882,14.9899606 L17.2069918,14.989954 C16.7743242,15.7640033 16.3459993,16.5404704 15.9220356,17.3193211 C15.828149,17.4886848 15.7342627,17.6555954 15.6428304,17.8243456 C14.7849651,17.8599366 13.9086928,17.8795728 13.0520535,17.9163912 C12.922576,17.9163912 12.455598,18.0084368 12.3819623,17.8961412 C12.176394,17.5439147 11.9524166,17.1873903 11.7462355,16.8357756 C11.4670304,16.3878203 11.2074609,15.9404793 10.9282585,15.4747288 C10.7969402,15.2513649 10.6852582,15.2145466 10.8165764,14.9899543 L10.8165815,14.9899451 C11.2851375,14.1468348 11.7506877,13.3020555 12.2132188,12.455623 C12.326128,12.2328727 12.41756,12.3065093 12.6789693,12.2874864 C13.2005604,12.2874864 13.740561,12.2874864 14.2652212,12.2703045 L14.2652108,12.2703225 Z M13.7221411,6.32417201 C14.188506,6.2118764 14.6548682,6.11921725 15.120007,6.00753599 C15.3814164,5.93267234 15.5121219,5.95046784 15.7735317,6.02594511 C16.7406233,6.32355981 17.7672388,6.84576521 18.5121892,7.53487773 C18.8466205,7.83310415 18.8098039,8.31787864 18.8834396,8.72778869 C18.0832579,8.83947073 17.2818474,8.95115251 16.4994608,9.06344865 C16.4423926,9.08308503 16.3497335,9.00822145 16.3129151,8.98981212 C16.1073468,8.87690295 15.9030051,8.78485736 15.7164596,8.68974264 L14.2639819,7.96503701 C14.1136407,7.89017336 13.9835507,7.8153097 13.8540718,7.76008225 C13.7601853,7.70362766 13.7779808,7.57169559 13.7779808,7.47965106 C13.7779808,7.35078735 13.6307077,6.3425806 13.7227533,6.32355929 L13.7221411,6.32417201 Z M20.5813883,11.7106783 C20.4862746,12.0089047 20.3948426,12.3071338 20.3009571,12.6035197 C20.1144114,13.1999752 19.910071,13.8166807 19.7235256,14.4315458 L18.5674338,14.5432278 C18.4753882,14.5432278 17.5242517,14.7297735 17.4874326,14.6549099 C17.0210677,13.9087282 16.5547054,13.1453629 16.0895666,12.4004073 C15.9594755,12.1936115 15.8484073,12.1009521 15.9220438,11.8597923 C16.0693168,11.3756321 16.2208845,10.8908603 16.3509751,10.4251097 C16.3877933,10.3312232 16.574339,9.47335864 16.6479755,9.45433469 C17.0591116,9.41751656 17.4487716,9.36167554 17.8408864,9.32424358 C18.2139773,9.28742546 18.5674325,9.232198 18.9221138,9.19537987 C19.1080459,9.17512985 19.1080459,9.26962996 19.2013189,9.41751656 C19.6106146,10.0698125 20.0217507,10.7043133 20.4316607,11.3559949 C20.5065244,11.4676769 20.6360019,11.5793587 20.5813883,11.7106762 L20.5813883,11.7106783 Z M20.0585686,14.6917296 C20.3574093,13.7786381 20.655024,12.8839536 20.9532505,11.9720829 C21.0827277,12.2703093 21.2324556,12.5298787 21.2692747,12.8649243 C21.3441384,13.7056062 21.2514793,14.5622455 21.0637064,15.3832916 C20.7845013,16.7596789 20.0585696,17.3193178 20.0585696,17.3193178 L20.0585696,15.04702 C20.0585696,14.9531334 20.0217515,14.7862242 20.0585696,14.6917243 L20.0585686,14.6917296 Z M13.4994066,4.90912251 C8.76641186,4.90912251 4.90909878,8.76582915 4.90909878,13.5012761 C4.90909878,18.2330316 8.76641186,22.0909775 13.5000131,22.0909775 C18.232375,22.0909775 22.0909274,18.2330316 22.0909274,13.5012761 C22.0909274,8.76582915 18.232375,4.90912251 13.5000131,4.90912251 L13.4994066,4.90912251 Z" fill="#131A3E" />
        <path d="M7.46550869,22.3824196 L7.9576449,22.6659199 L7.95764489,22.6659199 C7.92103085,22.7321673 7.90241269,22.8068517 7.90364483,22.8825338 L7.90364482,22.8825337 C7.9131284,22.9835243 7.97069481,23.0737574 8.05828117,23.1249204 L8.05828117,23.1249204 C8.11441698,23.1677376 8.18421021,23.1886755 8.25464496,23.1838295 L8.25464497,23.1838295 C8.30907007,23.1799554 8.35876436,23.1514941 8.38964512,23.1065113 L8.38964513,23.1065113 C8.41746887,23.0621796 8.4242107,23.0077951 8.40805424,22.9580111 C8.39394058,22.900943 8.32950867,22.8138065 8.21598593,22.6966018 C8.03066763,22.5033061 7.91837123,22.3351705 7.87971162,22.1934203 L7.87971162,22.1934204 C7.83872853,22.0559496 7.86267634,21.9072939 7.94475718,21.789646 L7.94475719,21.789646 C8.00030342,21.706359 8.07932281,21.6414348 8.17180293,21.6031003 L8.17180294,21.6031003 C8.27644916,21.5606322 8.39134299,21.5501678 8.50193897,21.5730321 C8.62589364,21.5945094 8.77193928,21.6613958 8.93884905,21.7718505 C9.14441737,21.908078 9.27573509,22.0498269 9.33280429,22.1977153 C9.38987244,22.3449883 9.37330434,22.5094417 9.28371328,22.6892398 L8.79771271,22.4069656 C8.83330371,22.3259655 8.84189468,22.2566244 8.82348546,22.1971017 L8.82348545,22.1971017 C8.79956229,22.1302603 8.75284926,22.0739874 8.69155339,22.0381696 C8.6338714,22.0001241 8.58232613,21.983556 8.53691677,21.9890786 L8.53691677,21.9890786 C8.49507701,21.9920211 8.45698165,22.0142434 8.4338257,22.0492151 C8.41664387,22.0743743 8.41357567,22.1056697 8.42400749,22.1418743 C8.43321205,22.1786924 8.4761666,22.2351473 8.55164408,22.3118519 C8.73757621,22.5020795 8.86153008,22.6524214 8.92412059,22.762262 C8.98548422,22.8727166 9.01493878,22.9770348 9.01064329,23.0764432 L9.01064329,23.0764434 C9.00610617,23.1767517 8.97381672,23.2738323 8.91737031,23.3568746 L8.9173703,23.3568746 C8.85071107,23.4585832 8.75519872,23.5380701 8.64307476,23.5851474 C8.52832463,23.6342385 8.40498353,23.6477385 8.27305041,23.6244201 C8.14111834,23.6017155 7.99691444,23.538511 7.84166426,23.4354199 C7.56798308,23.2550106 7.41395898,23.0764434 7.3783685,22.9015549 L7.37836851,22.9015549 C7.34344196,22.723669 7.37441282,22.5391507 7.46550504,22.3824187 L7.46550869,22.3824196 Z M9.75130656,22.3873287 L10.6938529,22.689853 C10.8994212,22.7561259 11.0374889,22.8543077 11.1080581,22.9843985 C11.1792401,23.1151032 11.1853763,23.2703537 11.1276945,23.4507634 C11.0681718,23.6360817 10.9656943,23.7624899 10.820875,23.8312187 C10.6760568,23.8999459 10.4895103,23.8974916 10.2606244,23.823855 L9.95012401,23.7244459 L9.73166923,24.4055823 L9.16221379,24.222105 L9.7513049,22.3873287 L9.75130656,22.3873287 Z M10.069783,23.3525798 L10.2084651,23.3973754 C10.3176923,23.4323528 10.4005334,23.4378754 10.456988,23.4139436 L10.456988,23.4139436 C10.5119452,23.3920495 10.5537989,23.3461234 10.570511,23.2893753 L10.570511,23.2893753 C10.5892786,23.2351757 10.5855207,23.1757128 10.5600792,23.124307 C10.5343064,23.0721479 10.4680336,23.0291934 10.362488,22.9954433 L10.2011013,22.9432842 L10.069783,23.3525799 L10.069783,23.3525798 Z M11.4038298,23.9343066 C11.4283753,23.6213514 11.5345344,23.3832607 11.7229206,23.2224866 C11.9119208,23.0611 12.1622854,22.9929863 12.4740119,23.0175318 C12.793717,23.042691 13.0336482,23.147623 13.1931936,23.3329418 C13.3527392,23.5182601 13.4202393,23.7655566 13.3956938,24.0754426 C13.378512,24.2994203 13.3257392,24.4804431 13.2392162,24.6185124 L13.2392163,24.6185124 C13.1543995,24.7545187 13.0311931,24.8623511 12.8851467,24.9283984 C12.736033,24.9971256 12.5550107,25.0235121 12.3414652,25.0063304 C12.1248514,24.9897622 11.9487387,24.9406713 11.8118955,24.8608983 L11.8118954,24.8608983 C11.6722055,24.7773635 11.5608259,24.6537983 11.4921902,24.506217 C11.4154856,24.3497397 11.3860311,24.1588974 11.4038266,23.9343068 L11.4038298,23.9343066 Z M11.9972161,23.9833976 C11.9818752,24.1779207 12.0070343,24.3196719 12.0726936,24.4104885 L12.0726936,24.4104885 C12.1392439,24.5016218 12.2440243,24.557067 12.3568082,24.5608296 C12.4844448,24.5706478 12.5863085,24.5368978 12.6630134,24.4595795 C12.7391044,24.3816475 12.7857407,24.2356018 12.8029226,24.020829 C12.8170363,23.8398062 12.7906498,23.7048047 12.724377,23.6158285 L12.724377,23.6158285 C12.655947,23.5255474 12.5504204,23.4709802 12.4371958,23.4673284 L12.4371959,23.4673284 C12.3270576,23.454603 12.2171606,23.4930444 12.1389694,23.5716466 C12.0598103,23.6508057 12.0125603,23.7882604 11.9972193,23.9840114 L11.9972161,23.9833976 Z M14.0430828,25.0646249 L13.7694017,23.1562131 L14.7518337,23.0150765 C14.9340839,22.9893038 15.0752197,22.9850084 15.1764698,23.0028038 L15.1764698,23.0028038 C15.2756277,23.0192482 15.3663895,23.0685188 15.4341973,23.142713 L15.4341973,23.142713 C15.5084049,23.2252055 15.5549633,23.3288355 15.5673565,23.439099 L15.5673565,23.439099 C15.5834835,23.5344708 15.5735181,23.632429 15.5385155,23.7225993 L15.5385155,23.7225993 C15.504246,23.8061267 15.4493532,23.879599 15.3789698,23.936145 L15.3789699,23.936145 C15.3195761,23.9812469 15.2535394,24.0168529 15.1832199,24.0416906 C15.2568564,24.054577 15.3120836,24.0711452 15.3470611,24.0895542 C15.3709929,24.101827 15.4071976,24.1312814 15.4556748,24.1766908 C15.5047658,24.2214863 15.5372884,24.2570773 15.5556975,24.2828499 L15.9201979,24.7952362 L15.2537876,24.8909634 L14.8549227,24.3528032 L14.8549227,24.3528032 C14.8218324,24.3007411 14.7783866,24.2560421 14.7272862,24.221485 L14.7272861,24.221485 C14.6807053,24.1979287 14.6279142,24.1895595 14.5763315,24.1975531 L14.5241723,24.2055304 L14.6352406,24.9793265 L14.0430803,25.0646249 L14.0430828,25.0646249 Z M14.4726286,23.8447152 L14.7211515,23.8091229 L14.7211516,23.8091229 C14.7732318,23.7972966 14.8241591,23.7808686 14.8733331,23.7600322 L14.8733331,23.7600322 C14.91058,23.7472734 14.941678,23.7209934 14.9604697,23.6863956 L14.9604697,23.6863956 C14.9804663,23.6514754 14.9880371,23.6108087 14.981947,23.5710319 C14.9727424,23.5096683 14.946356,23.4648728 14.9021743,23.4372592 C14.8592197,23.4102591 14.7831286,23.4041227 14.6751285,23.4194637 L14.4167873,23.4568957 L14.4720147,23.8447152 L14.4726286,23.8447152 Z M15.6287203,22.9260985 L17.3113127,22.2572334 L17.4874265,22.6996647 L16.9228806,22.924256 L17.458586,24.2730315 L16.9050854,24.4927136 L16.36938,23.1439381 L15.8048341,23.3679158 L15.6287203,22.9260961 L15.6287203,22.9260985 Z M18.1305185,23.3139181 L18.5496333,22.9310081 C18.6171334,22.9948262 18.680338,23.0334853 18.7398609,23.0475992 L18.7398609,23.0475992 C18.8389724,23.0692826 18.9424592,23.0418689 19.0178373,22.9739627 L19.0178373,22.9739627 C19.0756456,22.9331813 19.1166487,22.8727671 19.133201,22.8039853 L19.133201,22.8039853 C19.1457352,22.7510518 19.1335445,22.6952907 19.1000645,22.6524171 L19.1000645,22.6524171 C19.0665333,22.6125411 19.0171639,22.5894274 18.9650644,22.5892125 C18.9061553,22.5861443 18.8036777,22.6211215 18.6570188,22.6935307 C18.4170866,22.8119627 18.2231779,22.8678037 18.075292,22.8622809 L18.075292,22.8622809 C17.9321128,22.8595649 17.797959,22.7918103 17.7107916,22.6781897 L17.7107916,22.6781897 C17.648098,22.600019 17.6100762,22.5049647 17.6015641,22.4051202 L17.601564,22.4051199 C17.5929097,22.292395 17.617896,22.1796367 17.6733596,22.0811195 C17.7316552,21.9694375 17.8390417,21.8503921 17.9949052,21.7252096 C18.1869735,21.5699594 18.3618604,21.4877321 18.5195654,21.4779138 C18.6778836,21.4687092 18.8294514,21.5331412 18.9736563,21.6742776 L18.5569963,22.0516637 C18.4913372,21.9933681 18.4269052,21.9639136 18.364928,21.9633 L18.364928,21.9633 C18.2941412,21.9660828 18.2265874,21.9936692 18.1740868,22.041232 C18.1200867,22.0841866 18.0881776,22.1289821 18.0795867,22.1737776 L18.0795867,22.1737777 C18.0697588,22.21463 18.0795128,22.257729 18.1059731,22.2903687 C18.1249959,22.3143006 18.1538368,22.3265733 18.1918823,22.3271869 C18.2293142,22.3296414 18.2962005,22.3063232 18.391928,22.2572323 C18.6300192,22.1375731 18.8104285,22.065164 18.9343834,22.0387775 L18.9343834,22.0387775 C19.0417942,22.0122463 19.1545054,22.0164996 19.2596098,22.0510503 C19.3528828,22.0854139 19.4326555,22.1430958 19.4989282,22.2253231 C19.5762464,22.3216641 19.6216555,22.4315052 19.6339284,22.5554591 C19.6455875,22.6800273 19.621042,22.8009139 19.5590647,22.9205739 C19.4977011,23.0390059 19.3933826,23.1574377 19.2485644,23.2746434 C18.9932912,23.4802118 18.7766782,23.5734842 18.5993375,23.5544629 L18.5993375,23.5544629 C18.4190285,23.5339076 18.2523739,23.4483989 18.1305178,23.3139171 L18.1305185,23.3139181 Z" fill="#FFFFFF" />
        <path d="M2.76135966,11.6222743 L2.00290399,12.1500055 L2.27044952,11.2663643 L1.5340843,10.7085684 L2.45822102,10.6901593 L2.76135702,9.81818221 L3.06449302,10.6895476 L3.98862974,10.7085703 L3.25226453,11.2669806 L3.51981005,12.1500055 L2.76135439,11.6222788 L2.76135966,11.6222743 Z M6.13636359,6.09952858 L5.37790792,6.62725527 L5.64545344,5.7436186 L4.90908823,5.18582273 L5.83322495,5.16741362 L6.13636095,4.29543653 L6.43949695,5.1668019 L7.36363367,5.18643828 L6.62726845,5.7448485 L6.89481398,6.62787345 L6.13635831,6.09953241 L6.13636359,6.09952858 Z M20.8636415,6.09952858 L20.1051858,6.62725527 L20.3727313,5.7436186 L19.6363661,5.18582273 L20.5605028,5.16741362 L20.8636388,4.29543653 L21.1667748,5.1668019 L22.0909115,5.18643828 L21.3545463,5.7448485 L21.6220919,6.62787345 L20.8636362,6.09953241 L20.8636415,6.09952858 Z M13.4999893,3.03133361 L12.7415337,3.55906029 L13.0090792,2.67542362 L12.272714,2.11762776 L13.1968507,2.09921864 L13.4999867,1.22724155 L13.8031227,2.09860692 L14.7272594,2.11824333 L13.9908942,2.67665355 L14.2584397,3.5596785 L13.4999841,3.03133746 L13.4999893,3.03133361 Z M24.2386454,12.2358922 L23.4801897,12.7636234 L23.7477353,11.8799822 L23.01137,11.3221863 L23.9355068,11.3037772 L24.2386428,10.4318001 L24.5417788,11.3031655 L25.4659155,11.3221882 L24.7295503,11.8805985 L24.9970958,12.7636234 L24.2386401,12.2358967 L24.2386454,12.2358922 Z M4.90907505,20.8268065 L4.15061938,21.3545351 L4.41816491,20.4708965 L3.68179969,19.913715 L4.60593641,19.8946922 L4.90907241,19.0227151 L5.21220841,19.8940805 L6.13634513,19.9137169 L5.39997992,20.4708984 L5.66752544,21.3545351 L4.90906977,20.8268084 L4.90907505,20.8268065 Z M22.0909036,20.8268065 L21.332448,21.3545351 L21.5999935,20.4708965 L20.8636283,19.913715 L21.787765,19.8946922 L22.090901,19.0227151 L22.394037,19.8940805 L23.3181737,19.9137169 L22.5818085,20.4708984 L22.849354,21.3545351 L22.0908984,20.8268084 L22.0909036,20.8268065 Z" fill="#FFFFFF" />
      </g>
    </g>
  </g>
</svg>