<svg width="34px" height="34px" viewBox="0 0 34 34" version="1.1" xmlns="http://www.w3.org/2000/svg">
    <g stroke="none" stroke-width="1" fill="none" fill-rule="evenodd">
        <g transform="translate(-33.000000, -87.000000)" fill-rule="nonzero">
            <g transform="translate(10.000000, 70.000000)">
                <g transform="translate(23.000000, 17.000000)">
                    <path d="M17.0000198,34.0000396 C7.61136042,34.0000396 0,26.3886791 0,17.0000198 C0,7.61136042 7.61136042,0 17.0000198,0 C26.3886791,0 34.0000396,7.61136042 34.0000396,17.0000198 C34.0000396,26.3886791 26.3886791,34.0000396 17.0000198,34.0000396 Z" fill="#FFBA07" />
                    <path d="M1.15909256,23.1818512 C3.6318218,29.5143586 9.79201471,34.0000396 17.0000231,34.0000396 C24.2080315,34.0000396 30.3682144,29.5143586 32.8409536,23.1818512 L1.15909256,23.1818512 Z M0.639818323,21.6363933 L33.360208,21.6363933 C33.5031629,21.1302576 33.6229356,20.6148482 33.719526,20.0909355 L0.280619858,20.0909355 C0.376438211,20.6148449 0.496983625,21.1302543 0.639937854,21.6363933 L0.639818323,21.6363933 Z M0.0695440262,18.545481 L33.9304623,18.545481 C33.9768259,18.036254 34.0000077,17.5208446 34.0000077,17.0000231 L-3.18750371e-05,17.0000231 C-3.18750371e-05,17.5208413 0.0231499762,18.0362507 0.0695138114,18.545481 L0.0695440262,18.545481 Z" fill="#131A3E" />
                    <path d="M27.8182082,17.0000198 C27.8182082,22.9747631 22.9747631,27.8182082 17.0000198,27.8182082 C11.0252765,27.8182082 6.18183141,22.9747631 6.18183141,17.0000198 C6.18183141,11.0252765 11.0252765,6.18183141 17.0000198,6.18183141 C22.9747631,6.18183141 27.8182082,11.0252765 27.8182082,17.0000198 Z" fill="#FFFFFF" />
                    <path d="M20.8242606,26.1058594 C21.3164875,25.447489 21.7638968,24.6739881 22.3967624,24.1802172 C23.266081,23.5002164 24.1091292,22.8433981 24.9776742,22.1610797 C24.9776742,22.1610797 24.9776742,23.0783071 23.5697638,24.3463559 C22.021218,25.6113134 20.8242606,26.104314 20.8242606,26.104314 L20.8242606,26.1058594 L20.8242606,26.1058594 Z M15.8726064,26.7858554 C15.8262428,26.7858554 15.663197,26.7858554 15.6152878,26.7379462 C15.287651,26.3168106 14.9345134,25.9173101 14.6076515,25.517036 C14.5133787,25.4011267 13.8078769,24.6747614 13.9006067,24.5781701 C14.3704248,24.1802135 14.840243,23.7822603 15.286882,23.3595774 C15.6152915,23.0999406 15.6392472,23.0783045 16.0387477,23.0783045 C17.2094315,23.0303953 18.3839768,22.9840317 19.5569881,22.9593043 C19.8637611,22.9361225 20.0971239,23.2877138 20.3080802,23.4754874 C20.7060367,23.8293966 21.0815811,24.1562618 21.4594464,24.4869885 C21.153446,24.9313066 20.846672,25.3787159 20.567719,25.8006252 C20.3328096,26.1522168 20.2617186,26.2704433 19.8861742,26.4095347 C18.946538,26.7619 17.8909895,26.8322176 16.9049883,26.8322176 C16.5533967,26.8322176 16.2018051,26.8322176 15.8726223,26.7858541 L15.8726064,26.7858554 Z M10.3823636,23.0535874 C10.5948639,23.0072238 10.617273,23.0535874 10.8042729,23.1710419 C11.4610913,23.5697687 12.1434096,23.9932253 12.7994577,24.3919521 C13.7159148,24.956044 14.3480034,25.8709538 15.0527339,26.6691811 C14.1378241,26.6915902 13.1270965,26.1050893 12.3288659,25.7055888 C11.2516822,25.1414969 10.1010897,24.3455872 9.44272739,23.2884948 C9.74872775,23.2189494 10.0779106,23.1246763 10.3823636,23.0535854 L10.3823636,23.0535874 Z M7.75508695,16.2474037 C7.98845074,16.0835852 8.22413144,15.9429486 8.45827019,15.7783592 C8.66922517,16.318495 8.90413556,16.8586341 9.11508854,17.3987699 C9.27967961,17.7743142 9.42031625,18.1251355 9.58336271,18.5006799 C9.63127189,18.6637257 9.77190854,18.8538155 9.7966356,19.0168629 C9.95968139,20.2145907 10.1250451,21.3875921 10.2880922,22.5845429 C10.0307737,22.6772704 9.7719092,22.7483613 9.51459133,22.8209979 C9.27968193,22.9152706 9.21013624,23.0064525 9.0447732,22.7954979 C8.38795486,21.8574056 7.80068054,20.8234956 7.5418154,19.6976294 L7.54181592,19.6976316 C7.30792486,18.6978479 7.18995203,17.6744533 7.19022383,16.6476753 C7.19022383,16.5534026 7.66158969,16.2945398 7.75586011,16.2474012 L7.75431464,16.2474012 L7.75508695,16.2474037 Z M11.2045304,11.954135 L12.8697587,12.0236804 C12.9393041,12.0236804 13.6903948,11.9773168 13.7367597,12.0708169 C14.0953041,12.9517267 14.4631254,13.8280014 14.8394434,14.7004112 C14.911307,14.8634566 15.0983073,15.1223204 15.0279893,15.2861382 L15.0279892,15.2861382 C14.8164416,15.665086 14.6124018,16.0481774 14.4159885,16.4351835 C13.9963968,17.2102284 13.5737139,18.0092293 13.151031,18.8043687 L10.2185276,18.8043687 C10.1242548,18.8043687 9.77034465,17.8206851 9.74870947,17.7495938 C9.46666387,17.1175019 9.18539124,16.4846363 8.92575246,15.8718653 C8.8098432,15.6153197 8.59811559,15.3804087 8.74029752,15.1454996 C9.02002521,14.6045902 9.27966299,14.0899544 9.56093363,13.5498153 C9.8174792,13.0560411 10.1002991,12.5398581 10.3583906,12.0236784 C10.4758451,11.788769 10.9665265,11.9294057 11.2045268,11.954133 L11.2045304,11.954135 Z M16.8330975,9.77195004 C16.6476429,9.86390454 16.4807323,9.98213205 16.3176881,10.0764051 L14.5589597,11.13118 C14.3472321,11.2718166 14.044324,11.5793629 13.7615027,11.5538629 L10.6396815,11.4132262 C10.5685906,11.0376819 10.4974996,10.6636814 10.4279539,10.2858161 C10.3815903,10.0300432 10.2873173,9.86390687 10.4511357,9.67768028 C11.3675929,8.66772305 12.773956,8.0101344 14.0652005,7.61295151 C14.3232917,7.51867877 14.7683837,7.35254209 15.075928,7.44681484 C15.6160638,7.61295151 16.1531117,7.7999504 16.6947948,7.96299786 C16.8578402,8.00936143 16.8331132,9.23181691 16.8578402,9.41959077 C16.8810221,9.53550002 16.9297038,9.70086373 16.8331129,9.77118239 L16.8331129,9.77195512 L16.8330975,9.77195004 Z M17.9635988,15.4515172 C18.4535082,15.4515172 18.9449648,15.4267899 19.440283,15.4267899 C19.6041014,15.4267899 19.8853747,16.0604258 19.9556924,16.177882 C20.3320104,16.763609 20.7052372,17.3508833 21.0807849,17.9366104 C21.1271485,18.0092469 21.7151944,18.7835201 21.6680592,18.8762466 L21.6680638,18.8762384 C21.1232231,19.8509671 20.583851,20.8287405 20.0499707,21.8095154 C19.9317432,22.0227883 19.813516,22.232972 19.6983791,22.4454722 C18.6181042,22.4902905 17.5146502,22.5150176 16.4359192,22.5613815 C16.2728734,22.5613815 15.6848271,22.6772907 15.5921007,22.5358815 C15.3332369,22.092337 15.0511913,21.6433804 14.7915558,21.2006063 C14.4399642,20.6365144 14.113099,20.0731962 13.7615107,19.4866955 C13.5961469,19.2054225 13.4555103,19.1590586 13.620874,18.8762387 L13.6208804,18.8762271 C14.2109139,17.8145327 14.7971623,16.7507366 15.3796089,15.6848586 C15.5217908,15.4043583 15.6369274,15.4970857 15.9661095,15.473131 C16.6229279,15.473131 17.3029287,15.473131 17.9636119,15.4514946 L17.9635988,15.4515172 Z M17.2797332,7.96377216 C17.8670075,7.82236287 18.4542785,7.70568098 19.0400089,7.56504533 C19.369191,7.47077258 19.5337831,7.49318173 19.8629659,7.58822718 C21.0807849,7.96300125 22.37356,8.62059322 23.3116457,9.48836454 C23.7327813,9.86390893 23.6864197,10.4743657 23.7791462,10.9905487 C22.7715099,11.1311854 21.7623263,11.2718217 20.7770988,11.4132316 C20.7052352,11.4379589 20.5885533,11.3436863 20.5421894,11.3205042 C20.2833256,11.1783222 20.0260064,11.062413 19.7910973,10.9426389 L17.9620512,10.0300466 C17.7727328,9.93577385 17.6089157,9.84150111 17.4458682,9.77195542 C17.3276407,9.70086446 17.3500499,9.53472778 17.3500499,9.41881985 C17.3500499,9.25654703 17.1645949,7.98695334 17.2805042,7.96300058 L17.2797332,7.96377216 Z M25.9173038,14.7467801 C25.797531,15.1223244 25.6823944,15.4978721 25.5641682,15.8710989 C25.3292588,16.622191 25.0719413,17.3987831 24.8370322,18.1730577 L23.3812129,18.3136943 C23.2653037,18.3136943 22.0675763,18.5486037 22.0212114,18.454331 C21.4339371,17.5146947 20.8466661,16.55342 20.2609357,15.6153277 C20.0971173,15.3549182 19.9572536,15.238236 20.049981,14.9345532 C20.235436,14.3248701 20.4262991,13.7144167 20.5901168,13.127916 C20.6364804,13.0096885 20.8713898,11.9294146 20.9641173,11.9054585 C21.4818442,11.8590949 21.9725272,11.7887766 22.4663014,11.7416401 C22.9361196,11.6952765 23.3812113,11.6257308 23.827847,11.5793672 C24.0619837,11.5538672 24.0619837,11.6728674 24.1794386,11.8590949 C24.694848,12.6805047 25.2125749,13.4795056 25.728758,14.3001417 C25.8230307,14.4407784 25.9860765,14.5814147 25.9173038,14.7467774 L25.9173038,14.7467801 Z M25.2589382,18.5006965 C25.6352562,17.3508776 26.0100303,16.2242378 26.3855746,15.0759562 C26.5486201,15.4515006 26.7371663,15.7783658 26.7835312,16.2002751 C26.8778039,17.2589115 26.7611221,18.3376424 26.5246673,19.3715524 C26.1730757,21.1047808 25.2589395,21.8095113 25.2589395,21.8095113 L25.2589395,18.9480992 C25.2589395,18.8298717 25.2125759,18.6196897 25.2589395,18.5006899 L25.2589382,18.5006965 Z M16.9992528,6.18185797 C11.0391853,6.18185797 6.18182809,11.0384515 6.18182809,17.0016069 C6.18182809,22.9601138 11.0391853,27.8182679 17.0000165,27.8182679 C22.9592871,27.8182679 27.8182048,22.9601138 27.8182048,17.0016069 C27.8182048,11.0384515 22.9592871,6.18185797 17.0000165,6.18185797 L16.9992528,6.18185797 Z" fill="#131A3E" />
                    <path d="M9.40101094,28.1852691 L10.020738,28.5422695 L10.020738,28.5422696 C9.97463144,28.6256922 9.95118635,28.7197391 9.95273794,28.8150425 L9.95273792,28.8150424 C9.96468021,28.9422158 10.0371712,29.0558427 10.1474652,29.1202701 L10.1474652,29.1202701 C10.2181547,29.1741881 10.3060425,29.2005544 10.3947381,29.194452 L10.3947381,29.194452 C10.4632734,29.1895735 10.5258514,29.1537333 10.5647383,29.0970883 L10.5647383,29.0970883 C10.5997756,29.0412632 10.6082653,28.972779 10.5879202,28.9100881 C10.5701474,28.8382245 10.4890109,28.728497 10.3460564,28.580906 C10.1126926,28.3374966 9.97128229,28.1257703 9.92259981,27.9472701 L9.92259982,27.9472701 C9.87099148,27.7741588 9.90114799,27.5869626 10.004509,27.4388135 L10.0045091,27.4388134 C10.0744562,27.3339336 10.1739621,27.2521771 10.2904185,27.203904 L10.2904185,27.203904 C10.4221952,27.1504257 10.5668764,27.1372483 10.7061454,27.1660405 C10.8622364,27.1930859 11.0461458,27.2773132 11.2563284,27.4164043 C11.5151922,27.5879501 11.6805553,27.7664486 11.7524202,27.9526785 C11.8242838,28.1381335 11.8034203,28.3452229 11.6906019,28.5716353 L11.0786012,28.2161788 C11.1234195,28.1141787 11.1342377,28.0268604 11.1110558,27.9519059 L11.1110558,27.9519059 C11.0809303,27.8677352 11.0221065,27.796873 10.9449191,27.7517692 C10.8722825,27.70386 10.8073736,27.6829965 10.7501915,27.6899509 L10.7501915,27.6899509 C10.6975044,27.6936562 10.6495325,27.7216398 10.6203731,27.7656783 C10.5987367,27.7973602 10.5948731,27.8367693 10.6080094,27.8823602 C10.6196004,27.9287238 10.6736913,27.9998151 10.768737,28.0964061 C11.0028737,28.3359519 11.1589638,28.5252714 11.2377815,28.6635891 C11.3150542,28.8026802 11.3521451,28.9340438 11.346736,29.0592248 L11.346736,29.059225 C11.3410226,29.1855391 11.3003618,29.3077889 11.2292811,29.4123606 L11.2292811,29.4123606 C11.1453399,29.5404381 11.0250651,29.6405327 10.8838719,29.6998153 C10.7393718,29.7616336 10.5840533,29.7786336 10.4179153,29.7492698 C10.2517786,29.7206788 10.0701886,29.6410879 9.87468833,29.5112695 C9.53005277,29.2840875 9.33609649,29.059225 9.29127886,28.8389951 L9.29127886,28.8389951 C9.24729728,28.6149906 9.28629762,28.3826342 9.40100635,28.1852679 L9.40101094,28.1852691 Z M12.2794231,28.191451 L13.4663332,28.5724075 C13.7251971,28.6558623 13.8990601,28.7794986 13.9879251,28.9433167 C14.0775617,29.1079077 14.0852887,29.3034083 14.0126524,29.530591 C13.9376979,29.7639548 13.8086521,29.9231354 13.6262871,30.0096828 C13.4439233,30.0962281 13.2090129,30.0931376 12.9207862,30.00041 L12.5297858,29.8752281 L12.2546946,30.7329555 L11.5376025,30.50191 L12.279421,28.191451 L12.2794231,28.191451 Z M12.6804675,29.4069524 L12.8551042,29.4633616 C12.9926496,29.5074072 13.096968,29.5143616 13.1680589,29.4842252 L13.1680589,29.4842252 C13.2372643,29.4566549 13.289969,29.3988221 13.3110138,29.3273615 L13.3110138,29.3273615 C13.3346472,29.2591101 13.329915,29.184231 13.2978775,29.1194978 C13.2654229,29.0538159 13.1819682,28.999725 13.0490589,28.9572249 L12.8458313,28.8915431 L12.6804675,29.4069525 L12.6804675,29.4069524 Z M14.3603782,30.1394972 C14.3912874,29.7454055 14.5249693,29.4455876 14.7621963,29.2431313 C15.0001966,29.0399037 15.3154706,28.9541309 15.708015,28.9850401 C16.1106066,29.016722 16.4127421,29.1488585 16.6136512,29.382223 C16.8145605,29.6155868 16.8995606,29.9269973 16.8686515,30.3172241 C16.8470151,30.59927 16.7805605,30.8272247 16.6716056,31.0010897 L16.6716057,31.0010897 C16.5647994,31.1723569 16.4096506,31.3081459 16.2257403,31.3913165 C16.0379674,31.4778619 15.8100134,31.5110893 15.5411043,31.4894531 C15.2683314,31.4685894 15.0465598,31.4067712 14.8742387,31.3063164 L14.8742386,31.3063163 C14.6983329,31.2011244 14.5580771,31.0455237 14.4716469,30.8596807 C14.375056,30.6626352 14.337965,30.4223153 14.3603742,30.1394974 L14.3603782,30.1394972 Z M15.1076055,30.2013155 C15.0882873,30.4462705 15.1199691,30.624772 15.2026512,30.7391337 L15.2026511,30.7391336 C15.2864553,30.8538941 15.418401,30.923714 15.5604252,30.9284521 C15.7211527,30.9408158 15.8494255,30.8983157 15.9460169,30.800952 C16.0418352,30.7028154 16.1005623,30.518906 16.1221988,30.2484513 C16.1399716,30.0204966 16.1067442,29.8504948 16.0232896,29.7384507 L16.0232896,29.7384507 C15.9371184,29.6247634 15.8042331,29.5560492 15.661654,29.5514505 L15.6616541,29.5514505 C15.5229615,29.5354261 15.3845727,29.5838337 15.2861097,29.6828142 C15.1864278,29.7824961 15.1269277,29.9555872 15.1076095,30.2020884 L15.1076055,30.2013155 Z M17.6838821,31.562861 L17.3392465,29.1596758 L18.5763831,28.9819482 C18.8058834,28.9494936 18.98361,28.9440847 19.1111101,28.9664937 L19.1111102,28.9664937 C19.2359756,28.9872014 19.3502682,29.0492459 19.4356558,29.1426756 L19.4356558,29.1426756 C19.5291025,29.2465551 19.5877316,29.3770521 19.6033378,29.5159025 L19.6033378,29.5159024 C19.6236459,29.6360003 19.6110969,29.759355 19.5670195,29.8729029 L19.5670195,29.8729028 C19.5238653,29.9780855 19.454741,30.0706061 19.3661101,30.1418123 L19.3661102,30.1418122 C19.2913181,30.1986072 19.2081608,30.2434444 19.1196103,30.2747215 C19.2123377,30.2909488 19.2818831,30.3118124 19.3259287,30.3349942 C19.3560651,30.3504488 19.4016562,30.3875395 19.4627015,30.4447217 C19.5245199,30.5011309 19.5654743,30.5459492 19.5886561,30.5784036 L20.0476566,31.2236307 L19.2084732,31.3441761 L18.706199,30.6664929 L18.706199,30.6664929 C18.6645297,30.6009333 18.6098202,30.5446456 18.5454715,30.5011292 L18.5454714,30.5011292 C18.4868141,30.4714658 18.4203364,30.4609268 18.3553803,30.4709928 L18.2896985,30.4810383 L18.4295622,31.4554482 L17.6838789,31.562861 L17.6838821,31.562861 Z M18.2247915,30.0266785 L18.5377463,29.9818585 L18.5377464,29.9818585 C18.603329,29.9669661 18.6674596,29.946279 18.7293825,29.9200405 L18.7293825,29.9200405 C18.7762859,29.9039739 18.8154464,29.8708806 18.8391099,29.827313 L18.83911,29.827313 C18.8642909,29.7833394 18.8738245,29.7321295 18.8661554,29.6820402 C18.8545645,29.6047675 18.8213371,29.5483583 18.7657009,29.5135856 C18.71161,29.4795856 18.6157916,29.4718582 18.4797915,29.4911765 L18.1544728,29.538313 L18.2240185,30.0266785 L18.2247915,30.0266785 Z M19.6806108,28.8699018 L21.7994308,28.0276272 L22.0212037,28.584763 L21.3102941,28.8675816 L21.9848861,30.5660396 L21.2878853,30.8426764 L20.6132933,29.1442184 L19.9023837,29.4262643 L19.6806108,28.8698988 L19.6806108,28.8699018 Z M22.8310232,29.3582672 L23.3587975,28.8760843 C23.4437976,28.9564479 23.5233886,29.0051297 23.5983434,29.0229027 L23.5983434,29.0229027 C23.7231504,29.0502077 23.8534672,29.0156867 23.9483877,28.9301752 L23.9483877,28.9301752 C24.0211833,28.8788209 24.0728169,28.8027438 24.0936605,28.7161297 L24.0936605,28.7161297 C24.1094443,28.6494727 24.094093,28.5792549 24.0519331,28.5252659 L24.0519331,28.5252659 C24.0097086,28.4750518 23.9475397,28.4459456 23.8819329,28.445675 C23.8077511,28.4418113 23.6787053,28.4858568 23.4940237,28.5770386 C23.1918868,28.7261753 22.9477055,28.7964936 22.7614789,28.7895389 L22.7614789,28.7895389 C22.581179,28.7861188 22.4122447,28.7007981 22.3024783,28.5577204 L22.3024783,28.5577203 C22.2235308,28.4592832 22.1756515,28.3395852 22.1649325,28.2138551 L22.1649325,28.2138547 C22.1540345,28.0719049 22.1854986,27.9299129 22.2553417,27.8058542 C22.3287509,27.6652176 22.4639785,27.5153086 22.660251,27.3576713 C22.9021148,27.1621711 23.1223427,27.0586257 23.3209342,27.0462618 C23.5202979,27.0346709 23.711161,27.1158075 23.8927524,27.2935347 L23.3680694,27.7687616 C23.2853875,27.6953524 23.204251,27.6582615 23.1262056,27.6574889 L23.1262056,27.6574889 C23.0370667,27.6609932 22.9519989,27.6957316 22.8858871,27.7556255 C22.817887,27.8097164 22.7777052,27.8661256 22.7668869,27.9225348 L22.7668869,27.9225348 C22.7545111,27.9739785 22.7667939,28.0282514 22.8001143,28.0693532 C22.8240689,28.0994896 22.860387,28.1149442 22.9082962,28.1157168 C22.9554328,28.1188077 23.0396599,28.089444 23.1602056,28.0276258 C23.4600242,27.8769439 23.6872062,27.785762 23.8432976,27.7525346 L23.8432976,27.7525346 C23.9785557,27.7191249 24.1204882,27.7244809 24.252842,27.7679892 C24.3702969,27.8112619 24.4707514,27.8838985 24.5542059,27.9874439 C24.6515695,28.1087622 24.7087513,28.2470806 24.7242061,28.4031707 C24.7388879,28.5600344 24.7079788,28.712262 24.6299333,28.8629449 C24.5526606,29.0120815 24.4212966,29.1612179 24.2389329,29.3088102 C23.9174778,29.5676741 23.6447058,29.6851283 23.421388,29.6611755 L23.421388,29.6611755 C23.1943321,29.6352911 22.9844709,29.5276134 22.8310225,29.358266 L22.8310232,29.3582672 Z" fill="#FFFFFF" />
                    <path d="M3.47726772,14.6354565 L2.5221754,15.3000069 L2.85908458,14.1872735 L1.93180987,13.4848639 L3.09553759,13.4616821 L3.4772644,12.3636369 L3.85899121,13.4609118 L5.02271893,13.4848664 L4.09544422,14.1880496 L4.4323534,15.3000069 L3.47726108,14.6354622 L3.47726772,14.6354565 Z M7.72727266,7.68088784 L6.77218034,8.34543256 L7.10908952,7.2327049 L6.18181481,6.53029529 L7.34554253,6.50711344 L7.72726934,5.40906822 L8.10899615,6.50634313 L9.27272388,6.53107042 L8.34544916,7.23425366 L8.68235835,8.34621101 L7.72726602,7.68089266 L7.72727266,7.68088784 Z M26.2727337,7.68088784 L25.3176414,8.34543256 L25.6545506,7.2327049 L24.7272758,6.53029529 L25.8910036,6.50711344 L26.2727304,5.40906822 L26.6544572,6.50634313 L27.8181849,6.53107042 L26.8909102,7.23425366 L27.2278194,8.34621101 L26.2727271,7.68089266 L26.2727337,7.68088784 Z M16.9999866,3.81723491 L16.0448943,4.48177963 L16.3818034,3.36905197 L15.4545287,2.66664236 L16.6182564,2.64346051 L16.9999833,1.54541529 L17.3817101,2.6426902 L18.5454378,2.66741752 L17.6181631,3.37060076 L17.9550723,4.48255811 L16.9999799,3.81723976 L16.9999866,3.81723491 Z M30.5227386,15.4081605 L29.5676463,16.072711 L29.9045555,14.9599776 L28.9772808,14.257568 L30.1410085,14.2343861 L30.5227353,13.1363409 L30.9044621,14.2336158 L32.0681899,14.2575704 L31.1409151,14.9607536 L31.4778243,16.072711 L30.522732,15.4081663 L30.5227386,15.4081605 Z M6.18179821,26.2263489 L5.22670589,26.890896 L5.56361507,25.7781659 L4.63634036,25.07653 L5.80006808,25.0525754 L6.18179489,23.9545302 L6.5635217,25.0518051 L7.72724942,25.0765324 L6.79997471,25.7781684 L7.13688389,26.890896 L6.18179157,26.2263513 L6.18179821,26.2263489 Z M27.8181749,26.2263489 L26.8630826,26.890896 L27.1999918,25.7781659 L26.2727171,25.07653 L27.4364448,25.0525754 L27.8181716,23.9545302 L28.1998984,25.0518051 L29.3636262,25.0765324 L28.4363514,25.7781684 L28.7732606,26.890896 L27.8181683,26.2263513 L27.8181749,26.2263489 Z" fill="#FFFFFF" />
                </g>
            </g>
        </g>
    </g>
</svg>