<?xml version="1.0" encoding="utf-8"?>
<!-- Generator: Adobe Illustrator 17.0.0, SVG Export Plug-In . SVG Version: 6.00 Build 0)  -->
<!DOCTYPE svg PUBLIC "-//W3C//DTD SVG 1.1//EN" "http://www.w3.org/Graphics/SVG/1.1/DTD/svg11.dtd">
<svg version="1.1" id="圖層_1" xmlns="http://www.w3.org/2000/svg" xmlns:xlink="http://www.w3.org/1999/xlink" x="0px" y="0px"
	 width="523.474px" height="266.987px" viewBox="0 0 523.474 266.987" enable-background="new 0 0 523.474 266.987"
	 xml:space="preserve">
<g>
	<g>
		<path fill="#FFFFFF" d="M123.064,249.768l4.653-9.091l2.981-15.07l1.358-5.819h10.855l-0.938,4.738
			c3.449-3.761,7.21-5.647,11.276-5.647c7.645,0.157,10.689,4.522,9.145,13.1l-3.572,17.788h-11.961l3.169-15.76
			c0.562-3.609-0.493-5.494-3.174-5.642c-3.162,0-5.082,2.111-5.769,6.319l-1.871,9.464l-3.519,5.618H123.064z"/>
		<path fill="#FFFFFF" d="M182.651,217.3l-2.217,11.209c2.058-2.016,4.514-3.026,7.361-3.026c6.286,0.596,8.959,4.748,8.029,12.455
			c-1.857,8.184-6.292,11.705-13.312,11.829c-3.655-0.124-5.841-0.74-6.555-3.111h-0.178l-0.667,3.111h-8.54l6.475-32.468H182.651z
			 M181.144,243.813c2.492,0,4.16-1.838,5.003-5.518c0.588-3.56-0.352-5.398-2.821-5.514c-2.658,0.24-4.372,2.016-5.15,5.336
			C177.546,241.913,178.532,243.813,181.144,243.813z"/>
		<path fill="#FFFFFF" d="M203.402,233.668c2.18-10.432,7.934-15.829,17.257-16.185c8.801,0.472,12.357,5.87,10.674,16.185
			c-2.399,10.915-8.126,15.861-17.186,16.101C204.921,249.645,201.336,244.699,203.402,233.668z M215.484,243.635
			c2.728,0,4.775-3.146,6.133-9.43c1.503-6.404,0.66-9.608-2.544-9.608c-3.107,0.116-5.224,3.32-6.348,9.608
			C211.195,240.729,212.118,243.871,215.484,243.635z"/>
		<path fill="#FFFFFF" d="M260.731,206.895l-8.643,42.873h-9.43l5.406-29.873l-14.73-1L260.731,206.895z"/>
		<path fill="#FFFFFF" d="M271.646,247.782l-5.015,3.614l-4.046-3.777l1.088-5.644l4.902-1.966l4.274,2.779L271.646,247.782z"/>
		<path fill="#FFFFFF" d="M310.276,235.269h-9.604c0.066-0.948-0.066-1.78-0.399-2.488c-0.619-0.476-1.393-0.77-2.314-0.89
			c-2.871,0.12-4.717,2.252-5.537,6.404c-0.797,4.032,0.224,6.048,3.072,6.048c2.136,0,3.556-1.184,4.264-3.556h9.604
			c-2.055,6.168-7.073,8.741-15.063,8.981c-8.849-0.24-12.618-3.645-11.306-11.473c1.834-8.064,7.243-12.335,16.232-12.811
			C307.006,225.724,310.686,228.986,310.276,235.269z"/>
		<path fill="#FFFFFF" d="M315.442,238.295c1.857-8.184,7.205-12.452,16.054-12.811c8.563,0.476,12.308,4.628,11.233,12.455
			c-1.834,8.068-7.216,11.589-16.158,11.829C317.837,249.529,314.13,246.123,315.442,238.295z M330.408,231.892
			c-2.778,0.236-4.601,2.252-5.467,6.048c-0.82,4.152,0.12,6.288,2.825,6.404c2.705,0.12,4.488-2.016,5.355-6.404
			C333.659,234.027,332.753,232.012,330.408,231.892z"/>
		<path fill="#FFFFFF" d="M346.539,249.768l4.717-23.569h8.54l-0.704,3.556c2.67-2.724,5.502-4.148,8.493-4.272
			c3.792,0,6.11,1.486,6.949,4.45c2.476-2.964,5.502-4.45,9.058-4.45c6.191-0.112,8.52,3.382,6.996,10.498l-1.439,7.279
			l-1.085,6.508h-9.68l2.391-11.829c0.797-3.44,0.058-5.096-2.217-4.98c-2.256,0-3.676,1.776-4.26,5.336l-2.322,11.473h-9.604
			l2.391-11.829c0.82-3.556,0.081-5.22-2.217-4.98c-2.256,0-3.672,1.776-4.26,5.336l-2.322,11.473H346.539z"/>
	</g>
	<g>
		<path fill="#FFFFFF" d="M242.595,138.647l14.551-73.414h-16.274l15.797-28.666h-38.706l-0.007,0.016h-9.196l7.251,4.426
			l-10.649,24.224h-14.13l-8.795-28.666H145.39l0.004,0.016h-9.169l10.114,4.128l5.616,24.522h-18.403l-14.331,73.414h23.271
			l-34.682,58.773l-56.161,52.475h54.845l69.144-111.248h13.956l-14.697,67.748h56.341l6.704-13.264l13.178-11.821h-34.708
			l9.249-42.663H242.595z M200.467,120.933h-29.032l-11.732-7.895l5.78-29.16h52.34l-5.75,29.012L200.467,120.933z"/>
		<polygon fill="#FFFFFF" points="121.215,95.297 127.174,65.232 117.498,65.232 125,36.12 77.697,36.12 90.334,43.689 
			57.671,191.596 38.001,219.388 88.684,199.678 111.539,95.297 		"/>
		<polygon fill="#FFFFFF" points="444.963,47.286 486.257,47.101 493.674,12.106 467.438,23.809 467.469,23.749 433.962,23.749 
			447.827,30.682 		"/>
		<polygon fill="#FFFFFF" points="365.397,182.895 365.457,182.778 311.897,182.778 337.397,209.895 365.399,182.895 		"/>
		<path fill="#FFFFFF" d="M430.097,50.783l3.049-15.383h-5.538l0.027-0.054H389.44l6.236,3.806l-2.305,11.63h-53.253L336.4,65.932
			h53.968l-1.339,6.758h-55.859l-15.013,75.745h36.946l1.755-8.857h18.914l-2.079,10.488h36.726l2.079-10.488h18.693l-1.03,5.085
			h36.944l14.287-71.974h-55.637l1.339-6.758h64.933l5.509-7.709l16.436-7.334L430.097,50.783z M379.051,123.032h-18.914
			l1.617-8.157h18.914L379.051,123.032z M383.948,98.327h-18.914l1.617-8.157h18.914L383.948,98.327z M434.47,123.032h-18.693
			l1.617-8.157h18.693L434.47,123.032z M440.984,90.17l-1.617,8.157h-18.693l1.617-8.157H440.984z"/>
		<polygon fill="#FFFFFF" points="323.721,98.174 330.25,65.232 318.374,65.232 324.378,34.935 324.375,34.935 324.375,34.935 
			275.679,34.935 284.987,40.617 280.108,65.232 268.233,65.232 261.704,98.174 273.579,98.174 258.532,185.065 272.945,208.099 
			293.536,187.124 311.845,98.174 		"/>
		<polygon fill="#FFFFFF" points="455.279,148.888 418.553,148.888 416.071,157.058 317.029,157.058 312.806,176.169 
			412.283,176.169 407.195,201.95 371.779,201.95 401.529,226.692 398.475,249.895 438.165,249.895 449.009,176.169 481.65,176.169 
			487.611,167.303 505.967,156.913 452.797,157.058 		"/>
		<polygon fill="#FFFFFF" points="76.794,52.024 31.596,52.024 48.458,62.604 29.61,163.33 11.616,200.527 48.977,185.633 
			76.595,52.423 		"/>
	</g>
</g>
</svg>
