<svg xmlns="http://www.w3.org/2000/svg" width="21" height="19" viewBox="0 0 21 19">
  <g fill="none" fill-rule="evenodd">
    <g fill-rule="nonzero">
      <g>
        <g>
          <path fill="#C9851F" d="M5.523 8.15c.099.047.217.01.27-.084l.582-1.029-4.004-.392L5.523 8.15zm7.323-1.113l.581 1.029c.054.094.172.131.27.084l3.154-1.505-4.004.392h-.001z" transform="translate(-43 -492) translate(43 491) translate(.664 1.78)" />
          <path fill="#FFD821" d="M4.095 15.445c0 .565.459 1.025 1.026 1.025h4.49v-2.05H5.12c-.566 0-1.025.46-1.025 1.025zM9.61.06c-.69 0-1.248.56-1.248 1.25 0 .45.243.865.635 1.086L6.375 7.038l-.581 1.028c-.054.094-.172.131-.27.084L2.37 6.645c.304-.62.048-1.368-.571-1.671-.62-.304-1.368-.048-1.671.572-.304.619-.048 1.367.571 1.67.313.154.676.17 1 .044l2.345 5.988c.031.08.108.132.194.132H9.61v-2.163L7.844 9.451 9.61 7.685V.06z" transform="translate(-43 -492) translate(43 491) translate(.664 1.78)" />
          <path fill="#FFAA29" d="M14.101 14.42h-4.49v2.05h4.49c.566.016 1.038-.43 1.054-.996.016-.566-.43-1.038-.996-1.054H14.1zm3.87-9.573c-.689 0-1.248.559-1.248 1.249 0 .19.043.378.127.549L13.697 8.15c-.098.047-.216.01-.27-.085l-.581-1.028-2.621-4.641c.6-.339.813-1.1.475-1.7C10.478.303 10.062.06 9.61.06v7.625l1.766 1.765-1.766 1.766v2.164h5.373c.086 0 .163-.053.194-.132l2.344-5.987c.644.248 1.367-.072 1.615-.715.249-.643-.071-1.366-.714-1.615-.144-.055-.296-.084-.45-.084z" transform="translate(-43 -492) translate(43 491) translate(.664 1.78)" />
        </g>
      </g>
    </g>
  </g>
</svg>
