<svg viewBox="0 0 45 45" version="1.1" xmlns="http://www.w3.org/2000/svg">
  <defs>
    <linearGradient x1="0.185751748%" y1="50%" x2="100%" y2="50%" id="linearGradient-1">
      <stop stop-color="#E2B271" offset="0%" />
      <stop stop-color="#F6D99D" offset="100%" />
    </linearGradient>
  </defs>
  <g stroke="none" stroke-width="1" fill="none" fill-rule="evenodd" opacity="0.701078869">
    <g transform="translate(-13.000000, -746.000000)" fill-rule="nonzero">
      <g transform="translate(13.500000, 746.500000)">
        <path d="M22.0000084,0.9239667 C10.3598035,0.9239667 0.923983888,10.3597863 0.923983888,21.9999912 C0.923983888,33.6401962 10.3598035,43.0760157 22.0000084,43.0760157 C33.6402134,43.0760157 43.0760329,33.6401962 43.0760329,21.9999912 C43.0760329,10.3597863 33.6402134,0.9239667 22.0000084,0.9239667 Z" fill="url(#linearGradient-1)" />
        <path d="M14.6079998,7.61859168 L29.3887084,7.61859168 L29.3887085,7.61859168 C29.8777879,7.64236056 30.2549939,8.05810665 30.2312278,8.54718612 C30.2091163,9.00216126 29.845829,9.36635192 29.3909085,9.38959374 L14.6090827,9.38959374 L14.6090826,9.38959374 C14.1200332,9.38959374 13.7235816,8.99314125 13.7235816,8.50409271 C13.7235816,8.01504331 14.1200341,7.61859168 14.6090826,7.61859168 L14.6079998,7.61859168 Z" fill="#653302" />
        <path d="M14.6981999,34.5334316 C14.6981999,34.9327321 14.6288998,35.2484324 14.4891997,35.4816327 L14.4891997,35.4816327 C14.3689068,35.6999714 14.1633299,35.8585365 13.921599,35.9194332 C13.6828987,35.9788333 13.1449981,36.0074333 12.3089971,36.0074333 L12.3089971,36.0074333 C12.2568575,35.5776247 12.1815817,35.1509359 12.0834968,34.7292315 C12.3848972,34.7622316 12.6796975,34.7787316 12.9678979,34.7787316 C13.2296982,34.7787316 13.3616983,34.6357314 13.3616983,34.3464311 L13.3616983,28.465807 L12.1021969,28.465807 L12.1021969,27.1183055 L15.5738009,27.1183055 L15.5738009,28.465807 L14.6981999,28.465807 L14.6981999,34.5334313 L14.6981999,34.5334316 Z" fill="#653302" />
        <path d="M21.0705159,36.3429337 L21.0705158,36.3429336 C20.2715539,35.6896101 19.4497025,35.0647836 18.6065129,34.4696314 C18.1654124,35.2066322 17.2458113,35.844633 15.8488097,36.3814336 L15.8488095,36.3814336 C15.6122375,35.9401394 15.3496066,35.5133174 15.0623086,35.1032318 C15.7707094,34.9096316 16.3603101,34.6577313 16.8300106,34.3464309 C17.3008112,34.0351305 17.6110116,33.60833 17.7650117,33.0660294 C17.9168119,32.5226288 17.992712,31.818628 17.992712,30.954027 L19.2907135,30.954027 C19.2907135,31.9143281 19.2137134,32.711829 19.0597132,33.3487297 C19.9837143,33.9317304 20.9330154,34.5763312 21.9065166,35.280332 L21.0705156,36.3429332 L21.0705159,36.3429337 Z" fill="#653302" />
        <polygon fill="#653302" points="21.4643164 29.1643082 21.4643164 33.6578134 20.1465148 33.6578134 20.1465148 30.3446095 17.1083113 30.3446095 17.1083113 33.7271135 15.7905098 33.7271135 15.7905098 29.1642996 17.4812117 29.1642996 17.658312 28.2204985 15.7223097 28.2204985 15.7223097 27.0104971 21.7393167 27.0104971 21.7393167 28.2204985 19.1400137 28.2204985 18.9629135 29.1642996 21.4654164 29.1642996"></polygon>
        <path d="M27.2756317,32.1145202 L27.2756317,36.0371247 L26.0370303,36.0371247 L26.0370303,35.5366242 L23.8832278,35.5366242 L23.8832278,36.0976248 L22.6446264,36.0976248 L22.6446264,32.1145202 L27.2756317,32.1145202 Z M26.0370131,33.2156215 L23.8832106,33.2156215 L23.8832106,34.4344229 L26.0370131,34.4344229 L26.0370131,33.2156215 Z" fill="#653302" />
        <path d="M25.4661297,26.5781966 C25.5937298,26.912597 25.7136299,27.2821974 25.8247301,27.6891979 L27.502232,27.6891979 L27.502232,28.7902992 L26.2086305,28.7902992 L27.2756318,29.2225997 C27.0622315,29.5570001 26.8312312,29.9046005 26.582631,30.2654009 L27.7178323,30.2654009 L27.7178323,31.3665022 L22.2013258,31.3665022 L22.2013258,30.2654008 L23.3761272,30.2654009 C23.1708085,29.9487612 22.9528321,29.6405099 22.7227265,29.3413998 L23.6819276,28.7913992 L22.4279261,28.7913992 L22.4279261,27.6891979 L24.3353283,27.6891979 C24.2308282,27.3844975 24.1153281,27.0951972 23.9910279,26.8234969 L25.4661297,26.5781966 Z M25.923713,28.7914163 L23.8392106,28.7914163 C24.222011,29.2292168 24.5091113,29.5966173 24.6994116,29.8914176 L24.0251108,30.265418 L25.111912,30.265418 C25.4364124,29.7704175 25.7070127,29.2787169 25.923713,28.7914163 Z" fill="#653302" />
        <path d="M22.8712094,13.2307896 L22.8712094,24.9666861 L22.8712094,24.9666861 C22.8712094,25.4557355 22.4747569,25.8521871 21.9857084,25.8521871 C21.496659,25.8521871 21.1002074,25.4557346 21.1002074,24.9666861 L21.1002074,13.2582896 L16.0897015,18.2687955 L16.0897015,18.2687955 C15.74814,18.6221894 15.1847657,18.6317813 14.8313731,18.29022 C14.4779792,17.9486584 14.4683873,17.3852842 14.8099486,17.0318916 C14.8119224,17.0298494 14.813906,17.0278166 14.8158994,17.0257934 L21.355407,10.4862858 L21.3554069,10.4862858 C21.6888122,10.130997 22.2471084,10.1132569 22.6024002,10.4466621 C22.6134424,10.4570243 22.6242161,10.467669 22.6347104,10.4785857 L29.1819094,17.0257848 L29.1819094,17.0257848 C29.5228703,17.3789144 29.5130055,17.9415874 29.1598759,18.2825448 C28.8156859,18.6148737 28.2701854,18.6151122 27.9257088,18.2830839 L22.8712029,13.2307694 L22.8712094,13.2307896 Z" fill="#653302" />
        <path d="M31.482028,34.688506 C31.1916277,34.9910063 30.592127,35.1362065 29.6846259,35.1230065 L29.6846261,35.1230084 C29.6368311,34.6458485 29.5548539,34.172732 29.4393263,33.7073068 C29.6923266,33.7469068 29.8727268,33.7656069 29.9849269,33.7656069 C30.3875274,33.7656069 30.5899276,33.5665066 30.5899276,33.1661062 C30.5899276,32.4324053 30.1961272,31.6547044 29.4096263,30.8363035 C29.7506267,30.0289025 30.071827,29.1643015 30.3732274,28.2403004 L29.3018261,28.2403004 L29.3018261,36.3231184 L28.0423247,36.3231184 L28.0423247,27.0984905 L31.730629,27.0984905 L31.730629,28.0433916 C31.5007287,28.6725923 31.1476283,29.5635934 30.6680277,30.7174947 C31.5007287,31.5501957 31.9165292,32.4521967 31.9165292,33.4223979 C31.9165292,33.9624985 31.772429,34.384899 31.4820287,34.6873993 L31.482028,34.688506 Z" fill="#653302" />
      </g>
    </g>
  </g>
</svg>