<svg xmlns="http://www.w3.org/2000/svg" width="31" height="25" viewBox="0 0 31 25">
    <g fill="none" fill-rule="evenodd">
        <g fill="#EDEDED" fill-rule="nonzero">
            <g>
                <path d="M19.456 13.064c-.363 0-.67.132-.929.395-.255.261-.383.58-.383.952s.128.689.383.953c.255.26.566.395.93.395.362 0 .676-.132.94-.395.26-.261.392-.58.392-.953 0-.372-.132-.688-.392-.952-.264-.263-.575-.395-.94-.395zm-8.423 0c-.363 0-.67.132-.928.395-.255.261-.384.58-.384.952s.129.689.384.953c.254.26.565.395.928.395.363 0 .671-.132.929-.395.255-.261.384-.58.384-.953 0-.372-.13-.688-.384-.952-.252-.263-.563-.395-.929-.395zm4.225 0c-.363 0-.671.132-.929.395-.255.261-.384.58-.384.952s.13.689.384.953c.255.26.566.395.929.395.363 0 .67-.132.929-.395.254-.261.383-.58.383-.953 0-.372-.129-.688-.383-.952-.255-.263-.566-.395-.93-.395zm6.483-5.552c-.882-.914-1.892-1.617-3.038-2.112-1.192-.495-2.431-.744-3.723-.744-1.292 0-2.532.246-3.724.744-1.146.495-2.16 1.195-3.038 2.1-.882.906-1.562 1.943-2.042 3.1-.513 1.207-.768 2.478-.768 3.808 0 1.457.299 2.834.903 4.134.155.358.046.952-.326 1.79v-.003c-.386.912-.858 1.541-1.415 1.881l-1.02.65 1.16.373c.59.187 1.208.278 1.855.278 1.114 0 2.189-.24 3.226-.72.108-.062.193-.068.255-.024h.023l.024.023c1.482.914 3.114 1.371 4.895 1.371 1.284 0 2.52-.254 3.712-.767 1.146-.495 2.16-1.193 3.041-2.089.882-.897 1.57-1.937 2.066-3.111.495-1.207.744-2.473.744-3.797 0-1.324-.246-2.59-.744-3.797-.495-1.16-1.184-2.192-2.066-3.088zm.572 11.23c-.75 1.324-1.779 2.373-3.085 3.149-1.307.776-2.72 1.163-4.234 1.163-1.717 0-3.278-.478-4.687-1.438-.091-.062-.19-.097-.29-.103-.1-.006-.2.015-.29.067-.091.053-.24.132-.44.232-.202.102-.577.22-1.125.36-.55.14-1.078.208-1.59.208-.17 0-.343-.009-.513-.023.372-.449.688-.967.952-1.556.492-1.145.594-2.05.299-2.716-.528-1.163-.789-2.385-.789-3.67 0-1.565.375-3.01 1.125-4.33.75-1.325 1.779-2.374 3.085-3.15 1.307-.777 2.722-1.163 4.246-1.163 1.523 0 2.938.386 4.245 1.163 1.306.776 2.338 1.822 3.085 3.15.75 1.323 1.125 2.768 1.125 4.33.006 1.558-.37 3.002-1.12 4.327zm7.098-7.688c-.395-.656-.926-1.18-1.59-1.567-.944-2.678-2.585-4.867-4.92-6.56C20.566 1.231 17.933.381 15.003.381c-2.93 0-5.564.847-7.901 2.543C4.764 4.62 3.135 6.81 2.206 9.487c-.665.372-1.198.887-1.602 1.555C.202 11.707 0 12.437 0 13.228c0 1.222.352 2.244 1.055 3.064.703.82 1.629 1.23 2.774 1.23l.035-1.716c.024-1.178.041-2.473.056-3.89.015-1.419.023-2.397.023-2.936.961-2.156 2.435-3.885 4.433-5.195C10.371 2.48 12.58 1.823 15 1.823s4.629.653 6.624 1.962c1.992 1.31 3.472 3.039 4.433 5.192 0 .433.076 3.281.231 8.546 1.146 0 2.048-.407 2.713-1.219s1-1.837 1-3.076c.002-.791-.197-1.518-.59-2.174z" transform="translate(-332 -54) translate(332.5 54)"/>
            </g>
        </g>
    </g>
</svg>
