<?xml version="1.0" encoding="UTF-8"?>
<svg width="115px" height="38px" viewBox="0 0 115 38" version="1.1" xmlns="http://www.w3.org/2000/svg" xmlns:xlink="http://www.w3.org/1999/xlink">
    <title>编组 12</title>
    <g id="首页，会员中心" stroke="none" stroke-width="1" fill="none" fill-rule="evenodd">
        <g id="PC首页" transform="translate(-146.000000, -10.000000)">
            <g id="编组-12" transform="translate(146.234783, 10.000000)">
                <g id="足球" transform="translate(0.000000, 0.847000)" fill-rule="nonzero">
                    <path d="M103.333791,14.4280999 L97.8561933,14.4280999 C97.1591302,14.4280999 96.589234,13.7451664 96.589234,12.9068067 C96.589234,12.068447 97.1591302,11.3855135 97.8561933,11.3855135 L106.112623,11.3855135 C106.809687,11.3855135 107.379583,10.70258 107.379583,9.86422034 C107.379583,9.02586063 106.809687,8.34292716 106.112623,8.34292716 L81.1031288,8.34292716 L81.1031288,29.6363217 L100.578507,29.6363217 C101.275571,29.6363217 101.845467,28.9533883 101.845467,28.1150286 C101.845467,27.2766689 101.275571,26.5937354 100.578507,26.5937354 L98.6427442,26.5937354 C97.9456811,26.5937354 97.3804948,25.9108019 97.3804948,25.0771521 C97.3804948,24.2435023 97.9456811,23.5605688 98.6427442,23.5558589 L101.755979,23.5558589 C102.453042,23.5558589 103.022938,22.8729255 103.022938,22.0345657 C103.022938,21.196206 102.453042,20.5132726 101.755979,20.5132726 L98.3554412,20.5132726 C97.6583781,20.5132726 97.0884819,19.8303391 97.0884819,18.9919794 C97.0884819,18.1536197 97.6583781,17.4706862 98.3554412,17.4706862 L103.329081,17.4706862 C104.026144,17.4706862 104.59604,16.7877528 104.59604,15.949393 C104.60075,15.1157432 104.030854,14.4280999 103.333791,14.4280999 L103.333791,14.4280999 Z" id="路径" fill="#F7B52C"></path>
                    <path d="M89.7410597,14.4280999 C89.0439966,14.4280999 88.4741004,13.7451664 88.4741004,12.9068067 C88.4741004,12.068447 89.0439966,11.3855135 89.7410597,11.3855135 L91.7286316,11.3855135 C92.4256947,11.3855135 92.9955909,10.70258 92.9955909,9.86422034 C92.9955909,9.02586063 92.4256947,8.34292716 91.7286316,8.34292716 L18.7799952,8.34292716 L18.7799952,29.6363217 L91.7286316,29.6363217 C92.4256947,29.6363217 92.9955909,28.9533883 92.9955909,28.1150286 C92.9955909,27.2766689 92.4256947,26.5937354 91.7286316,26.5937354 L90.5276107,26.5937354 C89.8352574,26.5890255 89.2653612,25.906092 89.2653612,25.0724422 C89.2653612,24.2387924 89.8305476,23.5558589 90.5276107,23.551149 L92.9061031,23.551149 C93.6031662,23.551149 94.1730624,22.8682156 94.1730624,22.0298559 C94.1730624,21.1914962 93.6031662,20.5085627 92.9061031,20.5085627 L90.2403076,20.5085627 C89.5432445,20.5085627 88.9733483,19.8256292 88.9733483,18.9872695 C88.9733483,18.1489098 89.5432445,17.4659763 90.2403076,17.4659763 L94.2672602,17.4659763 C94.9643233,17.4659763 95.5342195,16.7830429 95.5342195,15.9446832 C95.5342195,15.1157432 94.9643233,14.4280999 94.2672602,14.4280999 L89.7410597,14.4280999 Z M96.5280054,11.1453093 L95.7650039,11.1453093 C95.1903978,11.1453093 94.7146993,10.6743207 94.7146993,10.0950048 L94.7146993,9.63343592 C94.7146993,9.05882983 95.1856879,8.58313135 95.7650039,8.58313135 L96.5280054,8.58313135 C97.1026115,8.58313135 97.57831,9.05411995 97.57831,9.63343592 L97.57831,10.0950048 C97.5736001,10.6743207 97.1026115,11.1453093 96.5280054,11.1453093 Z M97.291007,23.4145623 L96.8200184,23.4145623 C96.2312826,23.4145623 95.7508742,22.934154 95.7508742,22.3454182 L95.7508742,21.8744296 C95.7508742,21.2856939 96.2312826,20.8052855 96.8200184,20.8052855 L97.291007,20.8052855 C97.8797427,20.8052855 98.3601511,21.2856939 98.3601511,21.8744296 L98.3601511,22.3454182 C98.3601511,22.9388639 97.8797427,23.4145623 97.291007,23.4145623 Z" id="形状" fill="#F9E7AC"></path>
                    <path d="M1.88245023,18.8553927 L1.88245023,18.8553947 C1.88245023,26.097127 7.75304053,31.9677173 14.9947728,31.9677173 C22.2365052,31.9677173 28.1070955,26.097127 28.1070955,18.8553947 L28.1070955,18.8553947 C28.1070955,11.6136624 22.2365052,5.74307207 14.9947728,5.74307207 C7.75304053,5.74307207 1.88245023,11.6136624 1.88245023,18.8553947 L1.88245023,18.8553927 Z" id="路径" fill="#F7B52C"></path>
                    <path d="M28.1023856,18.8553927 C28.1023856,17.767409 27.9705088,16.7076847 27.7161749,15.6950592 C26.9060745,19.4111592 22.7284056,33.964707 7.66148035,29.7305195 C9.75266973,31.1434853 12.2771686,31.9677153 14.990063,31.9677153 C22.2338676,31.9677153 28.1023856,26.0991974 28.1023856,18.8553927 L28.1023856,18.8553927 Z" id="路径" fill="#E38B2F"></path>
                    <path d="M26.637611,12.8220287 C26.9107844,13.4060546 27.1933776,14.0607288 27.4477114,14.7483721 C27.2263468,14.0795683 26.9531734,13.4390238 26.637611,12.8220287 Z" id="路径" fill="#F7B52C"></path>
                    <path d="M26.637611,12.8220287 C26.2325608,12.0401877 25.7474426,11.3007356 25.1963859,10.622512 C25.1681266,10.6178021 25.1398673,10.6178021 25.111608,10.6178021 C24.8148851,10.6178021 24.5511315,10.8203272 24.4804832,11.1076302 C24.160211,12.3463303 23.7928399,14.4940383 23.6562532,15.3182683 L19.7140786,16.4203816 C19.6293007,16.2696653 19.5256832,16.1330786 19.3985162,16.0059117 L17.0341535,13.6886478 C16.9258261,13.5803204 16.8033691,13.4908326 16.6762021,13.4154744 L17.6417288,9.75118307 L21.8617866,8.81391576 C22.177349,8.74326747 22.4222631,8.49364351 22.4787817,8.17337127 C22.4834916,8.14982184 22.4882015,8.12156252 22.4882015,8.09801309 C20.3640429,6.614399 17.7830253,5.74777998 14.9947728,5.74777998 C14.7215995,5.74777998 14.453136,5.75719975 14.1846724,5.77132941 C14.1658329,5.95972485 14.2176417,6.15283017 14.3306789,6.31767618 C15.11252,7.41978951 16.4171584,9.02586063 16.7986592,9.48742946 L16.8127888,9.50155912 L15.8425523,13.1705603 C15.649447,13.1611405 15.4516318,13.1799801 15.2632363,13.2364987 L12.0793534,14.1266672 C11.9097975,14.173766 11.7496614,14.2444143 11.6036549,14.338612 L8.32557427,11.1217599 L9.31936022,7.69296289 C9.38529862,7.46217848 9.3240701,7.25023361 9.19690318,7.09480737 C6.97854688,8.19221081 5.11343202,9.89247965 3.82292326,11.9883789 L3.46968181,12.7560903 C3.21063808,13.3212767 3.81821337,13.8958827 4.36927003,13.6038698 L7.82632636,11.8423725 L11.0007895,14.9508972 C10.9113017,15.0969037 10.8453633,15.2570398 10.8029743,15.4313056 L9.97874426,18.6340281 C9.93635528,18.803584 9.91751574,18.9778497 9.92222562,19.1474056 L5.19350008,20.4661737 L2.87152629,17.6072729 C2.62190233,17.2964204 2.20743236,17.3058402 1.94838863,17.5177851 C1.90599966,17.9558045 1.88245023,18.4032436 1.88245023,18.8553927 C1.88245023,20.2118399 2.08968521,21.5211882 2.47118598,22.7504684 C2.60777267,23.0801604 2.76319891,23.4051426 2.94688446,23.715995 L3.79937383,25.1619301 C4.11493619,25.6988571 4.93445635,25.5245913 5.00981453,24.9075962 L5.4242845,21.3045334 L10.1577199,19.9857653 C10.2424979,20.1364817 10.3461154,20.2730684 10.4732823,20.4002353 L12.8329352,22.7127893 C12.9601021,22.8399563 13.1013987,22.9388639 13.2568249,23.0236418 L12.055804,27.5828115 L8.81540241,28.3552328 C8.50454994,28.4305909 8.26434575,28.6849248 8.20782712,29.0004871 C8.15130849,29.3207594 8.2831853,29.626902 8.5516488,29.8058776 C10.4685724,31.0822567 12.8517747,31.5108564 14.0998945,31.6568628 C14.1328637,31.6615727 14.1658329,31.6615727 14.1940922,31.6615727 C14.490815,31.6615727 14.7592785,31.5014366 14.9005751,31.237683 C15.0418717,30.9739294 15.027742,30.658367 14.8581861,30.408743 C14.2506109,29.4950252 13.3839918,28.3128438 13.0401702,27.8465651 C13.0024911,27.7994662 12.9601021,27.7523673 12.9177131,27.7146883 L14.0951846,23.2355867 C14.2647405,23.2355867 14.4342964,23.2167471 14.6038523,23.1696483 L17.7877352,22.2794798 C17.9572911,22.232381 18.1174273,22.1617327 18.2634337,22.067535 L21.5933231,25.3267761 C21.6262923,25.3597453 21.6639714,25.3880046 21.7063604,25.4068441 L21.1647235,28.5907271 C21.1317543,28.7885423 21.183563,28.9910674 21.3154398,29.1417837 C21.4473167,29.29721 21.6357121,29.3866978 21.8382372,29.3866978 C21.9465646,29.3866978 22.0548919,29.3584385 22.1537996,29.3113396 C24.4380943,28.1291582 25.9311281,26.0191293 26.4680551,25.1666399 C26.5999319,24.9546951 26.6093517,24.6909415 26.4868947,24.4742867 C26.3644376,24.2576319 26.1383631,24.1210452 25.8887391,24.1210452 C25.8698996,24.1210452 25.8228007,24.1257551 25.8039612,24.1257551 C24.6170699,24.2670517 22.7990539,24.6061635 22.2668368,24.709781 C22.2479973,24.7144909 22.2244478,24.7192008 22.2056083,24.7239107 L22.1914786,24.709781 L18.8615892,21.4505399 C18.9510771,21.3045334 19.0170155,21.1443973 19.0594045,20.9701315 L19.8836345,17.767409 C19.9260235,17.5978531 19.944863,17.4235874 19.9401531,17.2540315 L23.9388463,16.1377885 L27.259316,18.8695224 C27.3770631,18.9637201 27.5230696,19.0202387 27.6737859,19.0202387 C27.8292122,19.0202387 27.9846384,18.9637201 28.1023856,18.8601026 C28.1023856,17.4235874 27.8716012,16.0435908 27.4430015,14.753082 C27.1886677,14.0607288 26.9060745,13.4060546 26.637611,12.8220287 L26.637611,12.8220287 Z" id="路径" fill="#C48925"></path>
                    <path d="M1.58572741,14.2632539 C1.53391867,14.2632539 1.48210992,14.2538341 1.43030117,14.2349945 C1.20893653,14.1455067 1.10060915,13.8958827 1.1853871,13.6745181 C3.69575634,7.26436327 10.6145789,3.76962786 17.2743577,5.54996477 C20.3734626,6.3789047 23.086357,8.28640853 24.9090829,10.9192348 C25.0456696,11.11705 24.9938608,11.3855135 24.8007555,11.5221002 C24.6029403,11.6586869 24.3344768,11.6068782 24.1978901,11.4137728 C22.4882015,8.94579257 19.9495729,7.16074578 17.0482831,6.38832447 C10.8123941,4.72102483 4.33159095,7.98968571 1.98135784,13.9900805 C1.92012932,14.1596364 1.75528331,14.2632539 1.58572741,14.2632539 L1.58572741,14.2632539 Z M13.7466531,32.1655305 C12.5974409,32.1655305 11.4388089,32.0195241 10.2848868,31.7133815 C6.28148375,30.6442373 3.03166241,27.851275 1.36907266,24.050397 C0.379996597,21.7943616 0.026755147,19.3122516 0.351737281,16.8725307 C0.384706483,16.6370364 0.601361238,16.4721904 0.836855538,16.5004497 C1.07234984,16.5334189 1.24190573,16.7500737 1.20893653,16.985568 C0.907503828,19.2651528 1.23719585,21.5871266 2.16504339,23.7018654 C3.72401565,27.2578293 6.76189212,29.871816 10.5109614,30.8750218 C16.5772945,32.4952225 22.9921593,29.3678582 25.4460099,23.5982479 C25.5402076,23.3768833 25.7945414,23.2779757 26.0111962,23.3674635 C26.2325608,23.4616612 26.3314684,23.715995 26.2419806,23.9326498 C24.0895627,29.0099069 19.0688242,32.1655305 13.7466531,32.1655305 L13.7466531,32.1655305 Z M26.887235,18.6434478 C26.6564506,18.6434478 26.4633452,18.4597623 26.4539255,18.224268 C26.4162464,17.0279569 26.2090114,15.8410657 25.8322205,14.7012733 C25.7568623,14.4751987 25.8793194,14.2302847 26.1101038,14.1549265 C26.3361783,14.0795683 26.5810924,14.2020253 26.6564506,14.4328098 C27.0567909,15.6526702 27.2781555,16.9196296 27.3205445,18.1960087 C27.3299643,18.4362128 27.1415688,18.6340281 26.9013646,18.6434478 L26.887235,18.6434478 Z" id="形状" fill="#231815"></path>
                    <path d="M24.8007555,12.1673546 L24.8007555,12.1673547 C24.8007555,12.3962603 24.9863203,12.5818246 25.2152254,12.5818246 C25.4441311,12.5818246 25.6296954,12.3962598 25.6296954,12.1673547 L25.6296954,12.1673547 C25.6296954,11.938449 25.4441311,11.7528847 25.2152254,11.7528847 C24.9863198,11.7528847 24.8007555,11.938449 24.8007555,12.1673547 L24.8007555,12.1673546 Z" id="路径" fill="#231815"></path>
                    <path d="M3.72401565,17.0232471 C4.53882593,16.6652957 4.98155521,15.8175162 4.85909818,14.9791565 C4.82141909,14.710693 4.5152765,14.5693964 4.27036243,14.6777238 L1.63282627,15.8363558 C1.38320231,15.9446832 1.28429471,16.2649554 1.4538506,16.4721904 C1.98606772,17.1315744 2.91391526,17.3811984 3.72401565,17.0232471 L3.72401565,17.0232471 Z" id="路径" fill="#231815"></path>
                    <path d="M6.40394078,19.1992144 L5.58913051,19.6231041 C5.36305598,19.7408513 5.08517271,19.6513634 4.96742556,19.4252889 L4.87322784,19.2463132 C4.75548069,19.0202387 4.84496852,18.7423554 5.07104305,18.6246083 L5.88585333,18.2007185 C6.11192785,18.0829714 6.38981113,18.1724592 6.50755828,18.3985338 L6.601756,18.5775094 C6.71479326,18.803584 6.63001531,19.0814672 6.40394078,19.1992144 Z" id="路径" fill="#F08B42"></path>
                    <path d="M2.94688446,24.0456871 C3.68162668,23.9467795 5.00039476,22.4396159 5.16053088,21.5541574 C5.17937043,21.4411201 5.06162328,21.3469224 4.9532959,21.3893114 L1.92012932,22.5385236 C1.49623958,22.6986597 1.35965288,23.2402966 1.66108559,23.5746985 C1.97664795,23.92323 2.44763655,24.1116255 2.94688446,24.0456871 Z" id="路径" fill="#231815"></path>
                    <path d="M2.86210652,23.2450065 C2.49473541,23.3957228 2.23098179,23.6641863 2.15562362,23.9326498 C2.3958278,24.0409772 2.66900119,24.0833662 2.94688446,24.0456871 C3.24360728,24.008008 3.63452782,23.7395445 4.00189893,23.3721734 C3.79466394,23.1225494 3.32367534,23.056611 2.86210652,23.2450065 L2.86210652,23.2450065 Z" id="路径" fill="#EA5F5F"></path>
                    <path d="M6.63943508,9.77944239 C7.19991152,9.24722527 7.96291305,8.63964998 8.92843968,8.12627241" id="路径" fill="#FFFFFF"></path>
                    <path d="M5.82462481,10.4482462 L5.82462481,10.4482462 C5.82462481,10.5939131 5.94271107,10.7119998 6.08837842,10.7119998 C6.23404531,10.7119998 6.35213204,10.5939135 6.35213204,10.4482462 C6.35213204,10.4482462 6.35213204,10.4482462 6.35213204,10.4482461 L6.35213204,10.4482461 C6.35213204,10.3025793 6.23404531,10.1844925 6.08837842,10.1844925 C5.94271154,10.1844925 5.82462481,10.3025793 5.82462481,10.4482461 C5.82462481,10.4482461 5.82462481,10.4482462 5.82462481,10.4482462 L5.82462481,10.4482462 Z" id="路径" fill="#FFFFFF"></path>
                    <path d="M23.8964574,5.8749469 L22.9120912,5.8749469 C22.8555726,5.8749469 22.8037638,5.82784804 22.8037638,5.76661952 L22.8037638,5.71952066 C22.8037638,5.66300203 22.8508627,5.61119328 22.9120912,5.61119328 L23.8964574,5.61119328 C23.952976,5.61119328 24.0047847,5.65829214 24.0047847,5.71952066 L24.0047847,5.76661952 C24.0047847,5.82784804 23.9576859,5.8749469 23.8964574,5.8749469 Z" id="路径" fill="#F7B52C"></path>
                    <path d="M23.2747524,6.23760812 L23.2747524,5.25324195 C23.2747524,5.19672332 23.3218513,5.14491457 23.3830798,5.14491457 L23.4301787,5.14491457 C23.4866973,5.14491457 23.538506,5.19201343 23.538506,5.25324195 L23.538506,6.23760812 C23.538506,6.29412675 23.4914072,6.3459355 23.4301787,6.3459355 L23.3830798,6.3459355 C23.3218513,6.3459355 23.2747524,6.29883664 23.2747524,6.23760812 Z" id="路径" fill="#F7B52C"></path>
                    <path d="M18.4895082,3.26567006 L17.2743577,3.26567006 C17.2037094,3.26567006 17.1424809,3.20444154 17.1424809,3.13379325 L17.1424809,3.07727462 C17.1424809,3.00662633 17.2037094,2.94539781 17.2743577,2.94539781 L18.4895082,2.94539781 C18.5601565,2.94539781 18.6213851,3.00662633 18.6213851,3.07727462 L18.6213851,3.13379325 C18.6213851,3.20915143 18.5601565,3.26567006 18.4895082,3.26567006 Z" id="路径" fill="#F9E7AC"></path>
                    <path d="M17.7217968,3.71310923 L17.7217968,2.49795864 C17.7217968,2.42731035 17.7830253,2.36608183 17.8536736,2.36608183 L17.9101923,2.36608183 C17.9808406,2.36608183 18.0420691,2.42731035 18.0420691,2.49795864 L18.0420691,3.71310923 C18.0420691,3.78375752 17.9808406,3.84498604 17.9101923,3.84498604 L17.8536736,3.84498604 C17.7830253,3.84498604 17.7217968,3.78375752 17.7217968,3.71310923 Z" id="路径" fill="#F9E7AC"></path>
                    <path d="M29.6283886,4.09460999 L27.7397243,4.09460999 C27.6266871,4.09460999 27.5371992,4.00041227 27.5371992,3.8920849 L27.5371992,3.79788718 C27.5371992,3.68484991 27.631397,3.59536208 27.7397243,3.59536208 L29.6283886,3.59536208 C29.7414259,3.59536208 29.8309137,3.6895598 29.8309137,3.79788718 L29.8309137,3.88737501 C29.8356236,4.00041227 29.7414259,4.09460999 29.6283886,4.09460999 Z" id="路径" fill="#F7B52C"></path>
                    <path d="M28.4367875,4.78696323 L28.4367875,2.89829895 C28.4367875,2.78526169 28.5309852,2.69577385 28.6393126,2.69577385 L28.7288004,2.69577385 C28.8418377,2.69577385 28.9313255,2.78997157 28.9313255,2.89829895 L28.9313255,4.78696323 C28.9313255,4.9000005 28.8371278,4.98948833 28.7288004,4.98948833 L28.6393126,4.98948833 C28.5309852,4.99419822 28.4367875,4.9000005 28.4367875,4.78696323 Z" id="路径" fill="#F7B52C"></path>
                    <path d="M38.7184686,1.79147574 L37.503318,1.79147574 C37.4326697,1.79147574 37.3714412,1.73024722 37.3714412,1.65959893 L37.3714412,1.6030803 C37.3714412,1.53243201 37.4326697,1.47120349 37.503318,1.47120349 L38.7184686,1.47120349 C38.7891169,1.47120349 38.8503454,1.53243201 38.8503454,1.6030803 L38.8503454,1.65959893 C38.8503454,1.73024722 38.7938268,1.79147574 38.7184686,1.79147574 Z" id="路径" fill="#F9E7AC"></path>
                    <path d="M37.9507572,2.23420502 L37.9507572,1.01905444 C37.9507572,0.948406148 38.0119857,0.88717763 38.082634,0.88717763 L38.1391526,0.88717763 C38.2098009,0.88717763 38.2710294,0.948406148 38.2710294,1.01905444 L38.2710294,2.23420502 C38.2710294,2.30485331 38.2098009,2.36608183 38.1391526,2.36608183 L38.082634,2.36608183 C38.0119857,2.36608183 37.9507572,2.3095632 37.9507572,2.23420502 Z" id="路径" fill="#F9E7AC"></path>
                    <path d="M18.3293721,34.5063439 L17.1142215,34.5063439 C17.0435732,34.5063439 16.9823447,34.4451153 16.9823447,34.3744671 L16.9823447,34.3179484 C16.9823447,34.2473001 17.0435732,34.1860716 17.1142215,34.1860716 L18.3293721,34.1860716 C18.4000204,34.1860716 18.4612489,34.2473001 18.4612489,34.3179484 L18.4612489,34.3744671 C18.4612489,34.4498252 18.4000204,34.5063439 18.3293721,34.5063439 Z" id="路径" fill="#F9E7AC"></path>
                    <path d="M17.5616607,34.953783 L17.5616607,33.7386324 C17.5616607,33.6679842 17.6228892,33.6067556 17.6935375,33.6067556 L17.7500561,33.6067556 C17.8207044,33.6067556 17.881933,33.6679842 17.881933,33.7386324 L17.881933,34.953783 C17.881933,35.0244313 17.8207044,35.0856598 17.7500561,35.0856598 L17.6935375,35.0856598 C17.6228892,35.0856598 17.5616607,35.0244313 17.5616607,34.953783 Z" id="路径" fill="#F9E7AC"></path>
                    <path d="M23.3877897,32.8673035 L22.1726391,32.8673035 C22.1019908,32.8673035 22.0407623,32.806075 22.0407623,32.7354267 L22.0407623,32.6789081 C22.0407623,32.6082598 22.1019908,32.5470313 22.1726391,32.5470313 L23.3877897,32.5470313 C23.458438,32.5470313 23.5196665,32.6082598 23.5196665,32.6789081 L23.5196665,32.7354267 C23.5196665,32.806075 23.458438,32.8673035 23.3877897,32.8673035 Z" id="路径" fill="#F7B52C"></path>
                    <path d="M22.6200783,33.3147427 L22.6200783,32.0995921 C22.6200783,32.0289438 22.6813068,31.9677153 22.7519551,31.9677153 L22.8084737,31.9677153 C22.879122,31.9677153 22.9403505,32.0289438 22.9403505,32.0995921 L22.9403505,33.3147427 C22.9403505,33.385391 22.879122,33.4466195 22.8084737,33.4466195 L22.7519551,33.4466195 C22.6813068,33.4466195 22.6200783,33.385391 22.6200783,33.3147427 Z" id="路径" fill="#F7B52C"></path>
                    <path d="M35.7794997,32.4716731 L34.5643492,32.4716731 C34.4937009,32.4716731 34.4324723,32.4104446 34.4324723,32.3397963 L34.4324723,32.2832777 C34.4324723,32.2126294 34.4937009,32.1514009 34.5643492,32.1514009 L35.7794997,32.1514009 C35.850148,32.1514009 35.9113765,32.2126294 35.9113765,32.2832777 L35.9113765,32.3397963 C35.9113765,32.4104446 35.8548579,32.4716731 35.7794997,32.4716731 Z" id="路径" fill="#F9E7AC"></path>
                    <path d="M35.0164982,32.9144024 L35.0164982,31.6992518 C35.0164982,31.6286035 35.0777267,31.567375 35.148375,31.567375 L35.2048936,31.567375 C35.2755419,31.567375 35.3367705,31.6286035 35.3367705,31.6992518 L35.3367705,32.9144024 C35.3367705,32.9850507 35.2755419,33.0462792 35.2048936,33.0462792 L35.148375,33.0462792 C35.0730168,33.0462792 35.0164982,32.9897606 35.0164982,32.9144024 Z" id="路径" fill="#F9E7AC"></path>
                    <path d="M31.5311826,35.368253 L29.407024,35.368253 C29.2798571,35.368253 29.1762396,35.2646355 29.1762396,35.1374686 L29.1762396,35.0338511 C29.1762396,34.9066842 29.2798571,34.8030667 29.407024,34.8030667 L31.5311826,34.8030667 C31.6583495,34.8030667 31.761967,34.9066842 31.761967,35.0338511 L31.761967,35.1374686 C31.761967,35.2646355 31.6583495,35.368253 31.5311826,35.368253 Z" id="路径" fill="#F7B52C"></path>
                    <path d="M30.1888651,36.1453842 L30.1888651,34.0212256 C30.1888651,33.8940587 30.2924826,33.7904412 30.4196495,33.7904412 L30.523267,33.7904412 C30.6504339,33.7904412 30.7540514,33.8940587 30.7540514,34.0212256 L30.7540514,36.1453842 C30.7540514,36.2725511 30.6504339,36.3761686 30.523267,36.3761686 L30.4196495,36.3761686 C30.2924826,36.3761686 30.1888651,36.2725511 30.1888651,36.1453842 Z" id="路径" fill="#F7B52C"></path>
                    <path d="M46.9984482,13.9900805 L45.7832976,13.9900805 C45.7126493,13.9900805 45.6514208,13.928852 45.6514208,13.8582037 L45.6514208,13.801685 C45.6514208,13.7310367 45.7126493,13.6698082 45.7832976,13.6698082 L46.9984482,13.6698082 C47.0690965,13.6698082 47.130325,13.7310367 47.130325,13.801685 L47.130325,13.8582037 C47.130325,13.9335618 47.0738064,13.9900805 46.9984482,13.9900805 Z" id="路径" fill="#F9E7AC"></path>
                    <path d="M46.2307368,14.4375196 L46.2307368,13.2223691 C46.2307368,13.1517208 46.2919653,13.0904922 46.3626136,13.0904922 L46.4191322,13.0904922 C46.4897805,13.0904922 46.551009,13.1517208 46.551009,13.2223691 L46.551009,14.4375196 C46.551009,14.5081679 46.4897805,14.5693964 46.4191322,14.5693964 L46.3626136,14.5693964 C46.2919653,14.5693964 46.2307368,14.5081679 46.2307368,14.4375196 Z" id="路径" fill="#F9E7AC"></path>
                </g>
                <path d="M89.9624574,6.7219469 L88.9780912,6.7219469 C88.9215726,6.7219469 88.8697638,6.67484804 88.8697638,6.61361952 L88.8697638,6.56652066 C88.8697638,6.51000203 88.9168627,6.45819328 88.9780912,6.45819328 L89.9624574,6.45819328 C90.018976,6.45819328 90.0707847,6.50529214 90.0707847,6.56652066 L90.0707847,6.61361952 C90.0707847,6.67484804 90.0236859,6.7219469 89.9624574,6.7219469 Z" id="路径" fill="#F7B52C" fill-rule="nonzero"></path>
                <path d="M89.3407524,7.08460812 L89.3407524,6.10024195 C89.3407524,6.04372332 89.3878513,5.99191457 89.4490798,5.99191457 L89.4961787,5.99191457 C89.5526973,5.99191457 89.604506,6.03901343 89.604506,6.10024195 L89.604506,7.08460812 C89.604506,7.14112675 89.5574072,7.1929355 89.4961787,7.1929355 L89.4490798,7.1929355 C89.3878513,7.1929355 89.3407524,7.14583664 89.3407524,7.08460812 Z" id="路径" fill="#F7B52C" fill-rule="nonzero"></path>
                <path d="M84.5555082,4.11267006 L83.3403577,4.11267006 C83.2697094,4.11267006 83.2084809,4.05144154 83.2084809,3.98079325 L83.2084809,3.92427462 C83.2084809,3.85362633 83.2697094,3.79239781 83.3403577,3.79239781 L84.5555082,3.79239781 C84.6261565,3.79239781 84.6873851,3.85362633 84.6873851,3.92427462 L84.6873851,3.98079325 C84.6873851,4.05615143 84.6261565,4.11267006 84.5555082,4.11267006 Z" id="路径" fill="#F9E7AC" fill-rule="nonzero"></path>
                <path d="M83.7877968,4.56010923 L83.7877968,3.34495864 C83.7877968,3.27431035 83.8490253,3.21308183 83.9196736,3.21308183 L83.9761923,3.21308183 C84.0468406,3.21308183 84.1080691,3.27431035 84.1080691,3.34495864 L84.1080691,4.56010923 C84.1080691,4.63075752 84.0468406,4.69198604 83.9761923,4.69198604 L83.9196736,4.69198604 C83.8490253,4.69198604 83.7877968,4.63075752 83.7877968,4.56010923 Z" id="路径" fill="#F9E7AC" fill-rule="nonzero"></path>
                <path d="M95.6943886,4.94160999 L93.8057243,4.94160999 C93.6926871,4.94160999 93.6031992,4.84741227 93.6031992,4.7390849 L93.6031992,4.64488718 C93.6031992,4.53184991 93.697397,4.44236208 93.8057243,4.44236208 L95.6943886,4.44236208 C95.8074259,4.44236208 95.8969137,4.5365598 95.8969137,4.64488718 L95.8969137,4.73437501 C95.9016236,4.84741227 95.8074259,4.94160999 95.6943886,4.94160999 Z" id="路径" fill="#F7B52C" fill-rule="nonzero"></path>
                <path d="M94.5027875,5.63396323 L94.5027875,3.74529895 C94.5027875,3.63226169 94.5969852,3.54277385 94.7053126,3.54277385 L94.7948004,3.54277385 C94.9078377,3.54277385 94.9973255,3.63697157 94.9973255,3.74529895 L94.9973255,5.63396323 C94.9973255,5.7470005 94.9031278,5.83648833 94.7948004,5.83648833 L94.7053126,5.83648833 C94.5969852,5.84119822 94.5027875,5.7470005 94.5027875,5.63396323 Z" id="路径" fill="#F7B52C" fill-rule="nonzero"></path>
                <path d="M104.784469,2.63847574 L103.569318,2.63847574 C103.49867,2.63847574 103.437441,2.57724722 103.437441,2.50659893 L103.437441,2.4500803 C103.437441,2.37943201 103.49867,2.31820349 103.569318,2.31820349 L104.784469,2.31820349 C104.855117,2.31820349 104.916345,2.37943201 104.916345,2.4500803 L104.916345,2.50659893 C104.916345,2.57724722 104.859827,2.63847574 104.784469,2.63847574 Z" id="路径" fill="#F9E7AC" fill-rule="nonzero"></path>
                <path d="M104.016757,3.08120502 L104.016757,1.86605444 C104.016757,1.79540615 104.077986,1.73417763 104.148634,1.73417763 L104.205153,1.73417763 C104.275801,1.73417763 104.337029,1.79540615 104.337029,1.86605444 L104.337029,3.08120502 C104.337029,3.15185331 104.275801,3.21308183 104.205153,3.21308183 L104.148634,3.21308183 C104.077986,3.21308183 104.016757,3.1565632 104.016757,3.08120502 Z" id="路径" fill="#F9E7AC" fill-rule="nonzero"></path>
                <path d="M84.3953721,35.3533439 L83.1802215,35.3533439 C83.1095732,35.3533439 83.0483447,35.2921153 83.0483447,35.2214671 L83.0483447,35.1649484 C83.0483447,35.0943001 83.1095732,35.0330716 83.1802215,35.0330716 L84.3953721,35.0330716 C84.4660204,35.0330716 84.5272489,35.0943001 84.5272489,35.1649484 L84.5272489,35.2214671 C84.5272489,35.2968252 84.4660204,35.3533439 84.3953721,35.3533439 Z" id="路径" fill="#F9E7AC" fill-rule="nonzero"></path>
                <path d="M83.6276607,35.800783 L83.6276607,34.5856324 C83.6276607,34.5149842 83.6888892,34.4537556 83.7595375,34.4537556 L83.8160561,34.4537556 C83.8867044,34.4537556 83.947933,34.5149842 83.947933,34.5856324 L83.947933,35.800783 C83.947933,35.8714313 83.8867044,35.9326598 83.8160561,35.9326598 L83.7595375,35.9326598 C83.6888892,35.9326598 83.6276607,35.8714313 83.6276607,35.800783 Z" id="路径" fill="#F9E7AC" fill-rule="nonzero"></path>
                <path d="M89.4537897,33.7143035 L88.2386391,33.7143035 C88.1679908,33.7143035 88.1067623,33.653075 88.1067623,33.5824267 L88.1067623,33.5259081 C88.1067623,33.4552598 88.1679908,33.3940313 88.2386391,33.3940313 L89.4537897,33.3940313 C89.524438,33.3940313 89.5856665,33.4552598 89.5856665,33.5259081 L89.5856665,33.5824267 C89.5856665,33.653075 89.524438,33.7143035 89.4537897,33.7143035 Z" id="路径" fill="#F7B52C" fill-rule="nonzero"></path>
                <path d="M88.6860783,34.1617427 L88.6860783,32.9465921 C88.6860783,32.8759438 88.7473068,32.8147153 88.8179551,32.8147153 L88.8744737,32.8147153 C88.945122,32.8147153 89.0063505,32.8759438 89.0063505,32.9465921 L89.0063505,34.1617427 C89.0063505,34.232391 88.945122,34.2936195 88.8744737,34.2936195 L88.8179551,34.2936195 C88.7473068,34.2936195 88.6860783,34.232391 88.6860783,34.1617427 Z" id="路径" fill="#F7B52C" fill-rule="nonzero"></path>
                <path d="M101.8455,33.3186731 L100.630349,33.3186731 C100.559701,33.3186731 100.498472,33.2574446 100.498472,33.1867963 L100.498472,33.1302777 C100.498472,33.0596294 100.559701,32.9984009 100.630349,32.9984009 L101.8455,32.9984009 C101.916148,32.9984009 101.977377,33.0596294 101.977377,33.1302777 L101.977377,33.1867963 C101.977377,33.2574446 101.920858,33.3186731 101.8455,33.3186731 Z" id="路径" fill="#F9E7AC" fill-rule="nonzero"></path>
                <path d="M101.082498,33.7614024 L101.082498,32.5462518 C101.082498,32.4756035 101.143727,32.414375 101.214375,32.414375 L101.270894,32.414375 C101.341542,32.414375 101.40277,32.4756035 101.40277,32.5462518 L101.40277,33.7614024 C101.40277,33.8320507 101.341542,33.8932792 101.270894,33.8932792 L101.214375,33.8932792 C101.139017,33.8932792 101.082498,33.8367606 101.082498,33.7614024 Z" id="路径" fill="#F9E7AC" fill-rule="nonzero"></path>
                <path d="M97.5971826,36.215253 L95.473024,36.215253 C95.3458571,36.215253 95.2422396,36.1116355 95.2422396,35.9844686 L95.2422396,35.8808511 C95.2422396,35.7536842 95.3458571,35.6500667 95.473024,35.6500667 L97.5971826,35.6500667 C97.7243495,35.6500667 97.827967,35.7536842 97.827967,35.8808511 L97.827967,35.9844686 C97.827967,36.1116355 97.7243495,36.215253 97.5971826,36.215253 Z" id="路径" fill="#F7B52C" fill-rule="nonzero"></path>
                <path d="M96.2548651,36.9923842 L96.2548651,34.8682256 C96.2548651,34.7410587 96.3584826,34.6374412 96.4856495,34.6374412 L96.589267,34.6374412 C96.7164339,34.6374412 96.8200514,34.7410587 96.8200514,34.8682256 L96.8200514,36.9923842 C96.8200514,37.1195511 96.7164339,37.2231686 96.589267,37.2231686 L96.4856495,37.2231686 C96.3584826,37.2231686 96.2548651,37.1195511 96.2548651,36.9923842 Z" id="路径" fill="#F7B52C" fill-rule="nonzero"></path>
                <path d="M113.064448,14.8370805 L111.849298,14.8370805 C111.778649,14.8370805 111.717421,14.775852 111.717421,14.7052037 L111.717421,14.648685 C111.717421,14.5780367 111.778649,14.5168082 111.849298,14.5168082 L113.064448,14.5168082 C113.135096,14.5168082 113.196325,14.5780367 113.196325,14.648685 L113.196325,14.7052037 C113.196325,14.7805618 113.139806,14.8370805 113.064448,14.8370805 Z" id="路径" fill="#F9E7AC" fill-rule="nonzero"></path>
                <path d="M112.296737,15.2845196 L112.296737,14.0693691 C112.296737,13.9987208 112.357965,13.9374922 112.428614,13.9374922 L112.485132,13.9374922 C112.55578,13.9374922 112.617009,13.9987208 112.617009,14.0693691 L112.617009,15.2845196 C112.617009,15.3551679 112.55578,15.4163964 112.485132,15.4163964 L112.428614,15.4163964 C112.357965,15.4163964 112.296737,15.3551679 112.296737,15.2845196 Z" id="路径" fill="#F9E7AC" fill-rule="nonzero"></path>
                <text id="欧洲杯" font-family="PangMenZhengDao" font-size="18.634" font-weight="normal" letter-spacing="1.51900983" fill="#C48925">
                    <tspan x="31.186" y="25.858">欧洲杯</tspan>
                </text>
            </g>
        </g>
    </g>
</svg>