<svg xmlns="http://www.w3.org/2000/svg" width="36" height="37" viewBox="0 0 36 37">
    <g fill="none" fill-rule="evenodd">
        <g fill="#8B8B8B" fill-rule="nonzero">
            <g>
                <g>
                    <g>
                        <path d="M17.989.574C8.426.574.674 8.325.674 17.888c0 9.562 7.752 17.314 17.315 17.314 9.562 0 17.314-7.752 17.314-17.314 0-9.563-7.752-17.314-17.314-17.314zm8.725 24.4c.48.485.477 1.268-.008 1.75-.485.48-1.268.476-1.75-.01L18.009 19.7l-7.029 6.963c-.485.48-1.268.477-1.749-.008-.48-.485-.477-1.268.009-1.749l7.028-6.963L9.29 10.9c-.48-.485-.477-1.268.008-1.749.485-.48 1.268-.477 1.749.008l6.977 7.043 7.03-6.963c.485-.48 1.268-.477 1.748.008.481.485.477 1.268-.008 1.749l-7.029 6.964 6.95 7.014z" transform="translate(-1826 -371) translate(1293 249.5) translate(0 100.5) translate(533 21.188)"/>
                    </g>
                </g>
            </g>
        </g>
    </g>
</svg>
