<svg xmlns="http://www.w3.org/2000/svg" width="106" height="88" viewBox="0 0 106 88">
  <g fill="none" fill-rule="evenodd">
    <g fill="#653302">
      <g>
        <g>
          <g>
            <g fill-rule="nonzero">
              <path d="M16.483 34.79c1.309.355 2.638 1.062 3.989 2.12 1.35 1.058 2.217 2.774 2.603 5.15l-.138-.044c.402.131.748.223 1.088.313l.254.067c.72.192 1.468.412 2.72 1.005.055.026-2.194-.767-4.048-.942-3.143 1.669-6.697 1.982-10.662.942 3.575-2.439 7.124-2.9 10.648-1.385l.137.044-.016-.06c-.145-.441-.8-.8-1.968-1.075-1.835-.432-3.213-2.804-3.18-3.252.023-.3-.453-1.26-1.427-2.882zm2.004 4.632c-1.516 1.243-5.118 2.125-7.244 1.634-1.512-.352-3.014-.748-4.502-1.188 3.482-2.074 7.398-2.224 11.747-.446zm-8.486-4.942c1.82.607 3.282 1.508 4.385 2.703-2.355.232-4.41.196-6.17-.111-1.758-.307-3.683-1.333-5.776-3.078 3.221-.283 5.742-.12 7.561.486zm2.591-8.025c3.445 3.736 4.503 7.317 3.176 10.744-3.026-1.697-3.171-5.188-3.078-5.85.019-.133.029-.376.03-.729v-.224c-.004-.831-.046-2.145-.127-3.942v.001zM2.5 26.949c3.041.25 5.087 1.131 6.136 2.642 1.048 1.512 1.601 2.352 1.662 2.52.37.57.751 1.135 1.141 1.693-1.58.06-4.381-.661-6.392-2.566-.923-.801-1.772-2.23-2.547-4.289zm7.199-4.717c2.436 3.074 2.971 6.355 1.605 9.843-2.624-2.7-3.159-5.98-1.605-9.843zm-8.977-.528c.367.137.8.196 1.298.178 1.645.13 3.231 1.119 4.757 2.966.729 1.191 1.105 2.17 1.13 2.934-3.006-.679-4.534-2.17-5.2-3.33-.444-.773-1.105-1.69-1.985-2.748zm9.114-7.474c.627 2.098.892 4.536-.177 6.135-.714 1.065-1.482 2.49-2.304 4.271-.005-1.364-.145-2.504-.418-3.42-.411-1.375.177-4.973 2.899-6.987zm-8.528.24c.753.843 1.54 1.56 2.36 2.151 1.229.886 2.37 2.485 2.505 6.722-3.388-2.059-5.01-5.017-4.865-8.874zm.415-5.613c1.562.968 2.665 2.175 3.306 3.624.642 1.448.836 3.04.582 4.779-1.796-1.238-2.785-2.596-2.966-4.075-.177-1.467-.486-2.915-.922-4.327zm9.624-.748c-.181 2.98-.862 4.021-1.658 5.246-.53.817-1.498 1.693-2.902 2.63.208-.556.308-1.21.298-1.959-.014-1.125.71-3.623 4.262-5.917zm-6.41-3.24c2.066 2.672 2.65 5.466 1.754 8.381-2.159-2.629-2.744-5.423-1.754-8.381zm6.67-.812c.11 2.58-1.15 4.598-3.775 6.05-.018-2.422 1.24-4.439 3.775-6.05zM7.697 0C8.546 1.456 8.912 2.754 8.8 3.894c-.12 1.698-.685 3.145-1.694 4.343.12-.125.025-.739-.287-1.84-.468-1.651-.396-3.88.127-4.723.349-.562.6-1.12.752-1.674z" transform="translate(-1470 -566) translate(1288 563) translate(182 3) translate(.5) translate(0 29)"/>
            </g>
            <g fill-rule="nonzero">
              <path d="M10.519 34.79c-1.31.355-2.638 1.062-3.989 2.12-1.35 1.058-2.218 2.774-2.603 5.15l.138-.044c-.402.131-.748.223-1.088.313l-.254.067c-.721.192-1.469.412-2.72 1.004-.056.027 2.194-.766 4.048-.94 3.143 1.668 6.697 1.981 10.661.94-3.575-2.438-7.123-2.899-10.647-1.384l-.137.044.016-.06c.145-.441.8-.8 1.968-1.075 1.835-.432 3.213-2.805 3.18-3.252-.023-.3.453-1.26 1.427-2.882zm-2.005 4.632c1.517 1.243 5.118 2.125 7.245 1.634 1.418-.327 2.918-.723 4.502-1.188-3.482-2.074-7.398-2.224-11.747-.446zM17 34.48c-1.82.607-3.281 1.508-4.384 2.703 2.354.232 4.41.196 6.169-.111 1.758-.307 3.683-1.333 5.776-3.078-3.22-.283-5.742-.12-7.56.486zm-2.59-8.025c-3.445 3.736-4.504 7.317-3.177 10.744 3.027-1.697 3.172-5.188 3.079-5.85-.019-.134-.03-.376-.03-.729v-.224c.004-.831.046-2.145.127-3.942zm10.092.494c-3.042.25-5.087 1.13-6.136 2.642-1.048 1.512-1.602 2.352-1.662 2.52-.371.57-.752 1.135-1.142 1.693 1.581.06 4.382-.661 6.392-2.566.923-.801 1.773-2.23 2.548-4.289zm-7.2-4.717c-2.436 3.074-2.97 6.354-1.604 9.843 2.623-2.7 3.158-5.98 1.604-9.843zm8.977-.528c-.366.137-.8.196-1.298.178-1.645.13-3.23 1.119-4.757 2.966-.728 1.191-1.104 2.17-1.13 2.934 3.007-.679 4.535-2.17 5.201-3.33.444-.773 1.105-1.69 1.984-2.748zm-9.113-7.474c-.627 2.098-.892 4.536.177 6.135.714 1.065 1.482 2.49 2.304 4.271.005-1.364.144-2.504.418-3.42.41-1.375-.177-4.973-2.9-6.987zm8.528.24c-.754.843-1.54 1.56-2.36 2.151-1.23.885-2.37 2.485-2.506 6.722 3.389-2.059 5.011-5.017 4.866-8.874zm-.416-5.613c-1.562.968-2.664 2.175-3.306 3.624-.641 1.448-.835 3.04-.582 4.779 1.797-1.239 2.786-2.596 2.966-4.075.18-1.48.488-2.921.923-4.327zm-9.623-.748c.182 2.98.862 4.022 1.658 5.247.53.816 1.498 1.693 2.902 2.63-.208-.556-.308-1.21-.298-1.96.015-1.124-.709-3.622-4.262-5.917zm6.41-3.24c-2.065 2.673-2.65 5.466-1.754 8.382 2.16-2.63 2.744-5.423 1.754-8.382zm-6.67-.812c-.11 2.58 1.149 4.598 3.775 6.05.018-2.422-1.24-4.439-3.775-6.05zM19.305 0c-.848 1.456-1.215 2.754-1.103 3.894.121 1.698.686 3.145 1.694 4.343-.12-.125-.024-.739.288-1.84.468-1.651.396-3.88-.128-4.723-.348-.562-.598-1.12-.751-1.674z" transform="translate(-1470 -566) translate(1288 563) translate(182 3) translate(.5) translate(78 29)"/>
            </g>
            <text font-family="Impact" font-size="72" font-style="condensed" font-weight="700" transform="translate(-1470 -566) translate(1288 563) translate(182 3) translate(.5)">
              <tspan x="34.41" y="73">3</tspan>
            </text>
          </g>
        </g>
      </g>
    </g>
  </g>
</svg>
