<svg xmlns="http://www.w3.org/2000/svg" width="83" height="88" viewBox="0 0 83 88">
  <g fill="none" fill-rule="evenodd">
    <g fill="#653302">
      <g>
        <g>
          <g>
            <g>
              <path fill-rule="nonzero" d="M16.481 63.79c1.309.355 2.638 1.062 3.989 2.12 1.35 1.058 2.217 2.774 2.603 5.15l-.138-.044c.402.131.748.223 1.088.313l.254.068c.721.191 1.468.41 2.72 1.004.056.026-2.194-.767-4.048-.942-3.143 1.669-6.697 1.982-10.661.942 3.575-2.439 7.123-2.9 10.647-1.385l.137.044-.016-.06c-.145-.441-.8-.8-1.968-1.075-1.835-.432-3.213-2.804-3.18-3.252.023-.3-.453-1.26-1.427-2.882zm2.004 4.632c-1.516 1.243-5.118 2.125-7.244 1.634-1.512-.352-3.014-.748-4.502-1.188 3.482-2.074 7.398-2.223 11.747-.446zM10 63.48c1.82.607 3.281 1.508 4.384 2.703-2.354.232-4.41.196-6.169-.111-1.759-.307-3.684-1.333-5.777-3.078 3.221-.283 5.742-.12 7.562.486zm2.59-8.025c3.445 3.736 4.503 7.317 3.177 10.744-3.027-1.697-3.172-5.188-3.08-5.85.02-.133.03-.376.031-.729v-.224c-.004-.831-.046-2.145-.127-3.942v.001zm-10.092.494c3.042.25 5.087 1.131 6.136 2.642 1.048 1.512 1.601 2.352 1.662 2.52.371.57.752 1.135 1.142 1.693-1.581.06-4.382-.66-6.393-2.566-.922-.8-1.772-2.23-2.547-4.289zm7.2-4.717c2.436 3.074 2.97 6.355 1.604 9.843-2.624-2.7-3.158-5.98-1.604-9.843zM.72 50.704c.367.137.8.196 1.298.178 1.646.13 3.231 1.12 4.757 2.966.729 1.192 1.105 2.17 1.13 2.934-3.006-.679-4.534-2.17-5.2-3.33-.444-.773-1.105-1.69-1.985-2.748zm9.114-7.474c.627 2.098.892 4.536-.177 6.135-.714 1.065-1.482 2.49-2.304 4.271-.005-1.364-.144-2.504-.418-3.42-.41-1.375.177-4.973 2.899-6.987zm-8.528.24c.753.843 1.54 1.56 2.36 2.151 1.229.886 2.37 2.485 2.506 6.722-3.389-2.059-5.012-5.017-4.866-8.874zm.415-5.613c1.562.968 2.665 2.175 3.307 3.624.641 1.448.835 3.04.581 4.779-1.796-1.238-2.785-2.596-2.965-4.075-.178-1.467-.487-2.915-.923-4.327zm9.624-.748c-.181 2.98-.861 4.021-1.658 5.246-.53.817-1.498 1.693-2.902 2.63.209-.556.308-1.21.298-1.959-.014-1.125.71-3.623 4.262-5.917zm-6.41-3.24c2.066 2.672 2.65 5.466 1.754 8.381-2.159-2.629-2.744-5.423-1.754-8.381zm6.67-.812c.11 2.58-1.149 4.598-3.775 6.05-.018-2.422 1.24-4.439 3.775-6.05zM7.695 29c.848 1.456 1.214 2.754 1.103 3.894-.121 1.698-.686 3.145-1.694 4.343.12-.125.024-.739-.288-1.84-.468-1.651-.396-3.88.127-4.723.349-.562.6-1.12.752-1.674zM65.517 63.79c-1.309.355-2.638 1.062-3.989 2.12-1.35 1.058-2.217 2.774-2.603 5.15l.138-.044c-.402.131-.748.223-1.088.313l-.254.067c-.721.192-1.468.412-2.72 1.004-.056.027 2.194-.766 4.048-.94 3.143 1.668 6.697 1.981 10.661.94-3.575-2.438-7.123-2.899-10.647-1.384l-.137.044.016-.06c.145-.441.8-.8 1.968-1.075 1.835-.432 3.213-2.805 3.18-3.252-.023-.3.453-1.26 1.427-2.882zm-2.004 4.632c1.516 1.243 5.118 2.125 7.244 1.634 1.418-.327 2.918-.723 4.502-1.188-3.482-2.074-7.398-2.224-11.747-.446zm8.485-4.942c-1.82.607-3.281 1.508-4.384 2.703 2.354.232 4.41.196 6.169-.111 1.759-.307 3.684-1.333 5.777-3.078-3.221-.283-5.742-.12-7.562.486zm-2.59-8.025c-3.445 3.736-4.503 7.317-3.177 10.744 3.027-1.697 3.172-5.188 3.08-5.85-.02-.133-.03-.376-.031-.729v-.224c.004-.831.046-2.145.127-3.942v.001zm10.092.494c-3.042.25-5.087 1.13-6.136 2.642-1.048 1.512-1.601 2.352-1.662 2.52-.371.57-.752 1.135-1.142 1.693 1.581.06 4.382-.661 6.393-2.566.922-.801 1.772-2.23 2.547-4.289zm-7.2-4.717c-2.436 3.074-2.97 6.355-1.604 9.843 2.624-2.7 3.158-5.98 1.604-9.843zm8.978-.528c-.367.137-.8.196-1.298.178-1.646.13-3.231 1.119-4.757 2.966-.729 1.191-1.105 2.17-1.13 2.934 3.006-.679 4.534-2.17 5.2-3.33.444-.773 1.105-1.69 1.985-2.748zm-9.114-7.474c-.627 2.098-.892 4.536.177 6.135.714 1.065 1.482 2.49 2.304 4.271.005-1.364.144-2.504.418-3.42.41-1.375-.177-4.973-2.899-6.987zm8.528.24c-.753.843-1.54 1.56-2.36 2.151-1.229.885-2.37 2.485-2.506 6.722 3.39-2.059 5.012-5.017 4.866-8.874zm-.415-5.613c-1.562.968-2.665 2.175-3.307 3.624-.641 1.448-.835 3.04-.581 4.779 1.796-1.239 2.785-2.596 2.965-4.075.18-1.48.488-2.921.923-4.327zm-9.624-.748c.182 2.98.862 4.022 1.658 5.247.53.816 1.498 1.693 2.903 2.63-.209-.556-.308-1.21-.299-1.96.015-1.124-.709-3.622-4.262-5.917zm6.41-3.24c-2.065 2.673-2.65 5.466-1.754 8.382 2.16-2.63 2.744-5.423 1.754-8.382zm-6.67-.812c-.11 2.58 1.149 4.598 3.775 6.05.018-2.422-1.24-4.439-3.775-6.05zM74.303 29c-.848 1.456-1.214 2.754-1.103 3.894.121 1.698.686 3.145 1.694 4.343-.12-.125-.024-.739.288-1.84.468-1.651.396-3.88-.127-4.723-.349-.562-.6-1.12-.752-1.674z" transform="translate(-187 -564) translate(20 561) translate(167 3) translate(.5) translate(.002)"/>
              <text font-family="Impact" font-size="72" font-style="condensed" font-weight="700" transform="translate(-187 -564) translate(20 561) translate(167 3) translate(.5) translate(.002)">
                <tspan x="25.787" y="73">1</tspan>
              </text>
            </g>
          </g>
        </g>
      </g>
    </g>
  </g>
</svg>
