<svg xmlns="http://www.w3.org/2000/svg" width="21" height="31" viewBox="0 0 21 31">
    <g fill="none" fill-rule="evenodd">
        <g>
            <g>
                <g>
                    <path fill="#E33333" fill-rule="nonzero" d="M16.972 7.663l-2.816 5.634c-.288.593-.894.965-1.553.955h-5.68c-.657 0-1.258-.37-1.554-.955L2.553 7.663c-.114-.244-.174-.508-.178-.777V2.068c0-.953.777-1.751 1.753-1.751h11.313c.955 0 1.753.776 1.753 1.751v4.818c-.044.264-.11.532-.22.777h-.002z" transform="translate(-70 -736) translate(20 561) translate(50.028 175)"/>
                    <path fill="#FED530" fill-rule="nonzero" d="M.18 21.217c.113 5.292 4.495 9.491 9.788 9.378 5.133-.11 9.268-4.245 9.378-9.378v.002c0-5.292-4.289-9.583-9.581-9.585-5.289.01-9.574 4.294-9.583 9.583H.179z" transform="translate(-70 -736) translate(20 561) translate(50.028 175)"/>
                    <path fill="#ECB408" fill-rule="nonzero" d="M9.763 14.095c-3.844.008-6.958 3.122-6.966 6.966.007 3.844 3.121 6.96 6.966 6.967 3.844-.007 6.959-3.123 6.965-6.967-.007-3.844-3.122-6.958-6.965-6.966z" transform="translate(-70 -736) translate(20 561) translate(50.028 175)"/>
                    <path fill="#FFFEFF" fill-rule="nonzero" d="M9.985 9.192c-.219.002-.398-.173-.4-.392V3.159c-.003-.218.172-.398.391-.4h.009c.219-.001.397.175.398.394v5.662c-.022.198-.198.377-.398.377z" transform="translate(-70 -736) translate(20 561) translate(50.028 175)"/>
                    <path fill="#FCCC44" fill-rule="nonzero" d="M12.957 14.894l-7.1 11.957c1.11.755 2.465 1.199 3.906 1.199 3.844-.007 6.959-3.123 6.965-6.967 0-2.706-1.531-5.036-3.771-6.189z" transform="translate(-70 -736) translate(20 561) translate(50.028 175)"/>
                    <path fill="#D19D0B" fill-rule="nonzero" d="M9.763 28.426c-4.066-.005-7.361-3.3-7.366-7.365.005-4.066 3.3-7.361 7.366-7.366 4.064.007 7.357 3.301 7.363 7.366-.005 4.066-3.3 7.36-7.366 7.365h.003zm0-13.932c-3.625.006-6.561 2.942-6.567 6.567.006 3.624 2.942 6.56 6.567 6.567 3.623-.008 6.56-2.944 6.567-6.567-.008-3.624-2.944-6.56-6.567-6.567z" transform="translate(-70 -736) translate(20 561) translate(50.028 175)"/>
                    <text fill="#FFF" font-family="PingFangSC-Medium, PingFang SC" font-size="10.5" font-weight="400" letter-spacing="-.003" transform="translate(-70 -736) translate(20 561) translate(50.028 175)">
                        <tspan x="7.23" y="24.075">1</tspan>
                    </text>
                </g>
            </g>
        </g>
    </g>
</svg>
