<?xml version="1.0" encoding="UTF-8"?>
<svg width="20px" height="20px" viewBox="0 0 20 20" version="1.1" xmlns="http://www.w3.org/2000/svg" xmlns:xlink="http://www.w3.org/1999/xlink">
    <title>新东方-刷新图标</title>
    <g id="首页-登录注册-选择筹码" stroke="none" stroke-width="1" fill="none" fill-rule="evenodd">
        <g id="注册-普通注册" transform="translate(-184.000000, -364.000000)" fill="#ffffff" fill-rule="nonzero">
            <g id="新东方-刷新图标" transform="translate(184.000000, 364.000000)">
                <path d="M18.6219603,7.25192171 L14.729696,7.25192171 C14.23314,7.25192171 13.8314934,6.84959409 13.8314934,6.35367614 C13.8314934,5.85780114 14.2331615,5.45547353 14.729696,5.45547353 L16.2922006,5.45547353 C14.8827337,3.4638632 12.5650009,2.16200095 9.93917757,2.16200095 C5.63984835,2.16200095 2.15456305,5.64730774 2.15456305,9.9465725 C2.15456305,14.2458802 5.63986984,17.7311655 9.93917757,17.7311655 C14.2384853,17.7311655 17.7237706,14.2458588 17.7237706,9.9465725 C17.7237706,9.45069751 18.1254172,9.0483699 18.6219517,9.0483699 C19.1178697,9.0483699 19.5202188,9.45069751 19.5202188,9.9465725 C19.5202188,15.2380083 15.2302138,19.5276266 9.93916468,19.5276266 C4.6480511,19.5276266 0.35808908,15.2380298 0.35808908,9.9465725 C0.35808908,4.65515814 4.6480511,0.36553987 9.93916468,0.36553987 C13.1504165,0.36553987 15.986787,1.94877687 17.7237577,4.37446446 L17.7237577,2.76080125 C17.7237577,2.26488329 18.1254043,1.86257716 18.6219388,1.86257716 C19.1178568,1.86257716 19.5202188,2.26488329 19.5202188,2.76080125 L19.5202188,6.35368043 C19.5202188,6.84959839 19.1178353,7.25192601 18.6219388,7.25192601 L18.6219603,7.25192171 Z" id="路径"></path>
            </g>
        </g>
    </g>
</svg>