<svg xmlns="http://www.w3.org/2000/svg" width="29" height="44" viewBox="0 0 29 44">
    <g fill="none" fill-rule="evenodd">
        <g>
            <g>
                <g>
                    <path fill="#35ABF9" fill-rule="nonzero" d="M24.246 10.947l-4.023 8.048c-.412.848-1.277 1.38-2.219 1.364H9.889c-.938.001-1.796-.526-2.219-1.364l-4.023-8.048c-.162-.348-.249-.726-.254-1.11V2.954c0-1.36 1.11-2.501 2.505-2.501h16.16c1.364 0 2.505 1.109 2.505 2.501v6.883c-.063.377-.157.76-.314 1.11h-.003z" transform="translate(-57 -699) translate(38 489) translate(19.856 210)"/>
                    <path fill="#FCC376" fill-rule="nonzero" d="M.256 30.31C.418 37.87 6.68 43.869 14.24 43.707c7.333-.157 13.24-6.064 13.397-13.397v.003c0-7.56-6.127-13.69-13.687-13.694C6.395 16.633.273 22.755.26 30.31H.255z" transform="translate(-57 -699) translate(38 489) translate(19.856 210)"/>
                    <path fill="#EFB15D" fill-rule="nonzero" d="M13.947 20.136c-5.491.01-9.94 4.46-9.95 9.95.008 5.493 4.457 9.944 9.95 9.954 5.492-.01 9.941-4.461 9.95-9.953-.01-5.491-4.46-9.94-9.95-9.95z" transform="translate(-57 -699) translate(38 489) translate(19.856 210)"/>
                    <path fill="#FFFEFF" fill-rule="nonzero" d="M14.264 13.13c-.312.004-.568-.246-.572-.559V4.513c-.003-.312.247-.568.56-.572h.012c.312-.002.567.25.569.563v8.09c-.032.282-.283.537-.569.537z" transform="translate(-57 -699) translate(38 489) translate(19.856 210)"/>
                    <path fill="#FCC376" fill-rule="nonzero" d="M18.51 21.277L8.368 38.36c1.584 1.078 3.52 1.712 5.579 1.712 5.492-.01 9.941-4.46 9.95-9.953 0-3.866-2.188-7.194-5.387-8.84z" transform="translate(-57 -699) translate(38 489) translate(19.856 210)"/>
                    <path fill="#E19547" fill-rule="nonzero" d="M13.947 40.609C8.138 40.602 3.43 35.895 3.424 30.087c.007-5.809 4.714-10.516 10.523-10.523 5.806.01 10.51 4.716 10.519 10.523-.007 5.808-4.714 10.515-10.523 10.522h.004zm0-19.904c-5.178.009-9.373 4.204-9.382 9.382.009 5.177 4.204 9.372 9.381 9.381 5.177-.01 9.371-4.204 9.382-9.381-.01-5.177-4.204-9.371-9.381-9.382z" transform="translate(-57 -699) translate(38 489) translate(19.856 210)"/>
                    <text fill="#FFF" font-family="PingFangSC-Medium, PingFang SC" font-size="15" font-weight="400" letter-spacing="-.004" transform="translate(-57 -699) translate(38 489) translate(19.856 210)">
                        <tspan x="8.929" y="34.975">3</tspan>
                    </text>
                </g>
            </g>
        </g>
    </g>
</svg>
