<svg xmlns="http://www.w3.org/2000/svg" width="17" height="17" viewBox="0 0 17 17">
    <defs>
        <filter id="j4f2gp2yda">
            <feColorMatrix in="SourceGraphic" values="0 0 0 0 0.658824 0 0 0 0 0.658824 0 0 0 0 0.666667 0 0 0 1.000000 0"/>
        </filter>
    </defs>
    <g fill="none" fill-rule="evenodd">
        <g>
            <g filter="url(#j4f2gp2yda)" transform="translate(-322.000000, -219.000000) translate(331.000000, 227.000000) rotate(-270.000000) translate(-331.000000, -227.000000) translate(323.000000, 219.000000)">
                <g>
                    <path fill="#000" fill-rule="nonzero" d="M5.277 2.695l3.584 3.584c.111.11.167.249.139.388 0 .138-.056.277-.139.389L5.277 10.64c-.201.195-.52.195-.722 0l-.055-.056c-.195-.202-.195-.521 0-.723l3.167-3.194-3.195-3.195c-.195-.202-.195-.521 0-.723l.056-.054c.195-.195.528-.195.75 0zM0 6.667c0 3.694 2.972 6.666 6.667 6.666 3.694 0 6.666-2.972 6.666-6.666C13.333 2.972 10.361 0 6.667 0 2.972 0 0 2.972 0 6.667z" transform="translate(1.333333, 1.333333)"/>
                </g>
            </g>
        </g>
    </g>
</svg>
