<svg xmlns="http://www.w3.org/2000/svg" width="28" height="28" viewBox="0 0 28 28">
    <g fill="none" fill-rule="evenodd">
        <g fill="#8C8E90">
            <g>
                <g>
                    <path d="M13.972 24.347c-5.759 0-10.427-4.669-10.427-10.427 0-5.759 4.668-10.427 10.427-10.427 5.759 0 10.427 4.668 10.427 10.427 0 5.759-4.668 10.427-10.427 10.427zM15.567 8.84c0-.799-.82-1.446-1.618-1.446-.8 0-1.595.647-1.595 1.446l.42 6.026c0 .798.367 1.446 1.164 1.446.799 0 1.21-.648 1.21-1.446l.419-6.026zm-1.57 8.254c-.902 0-1.632.733-1.632 1.635s.73 1.633 1.632 1.633c.902 0 1.636-.73 1.636-1.633 0-.902-.734-1.635-1.636-1.635z" transform="translate(-593 -297) translate(569 224) translate(24 73)"/>
                </g>
            </g>
        </g>
    </g>
</svg>
