<?xml version="1.0" encoding="UTF-8"?>
<svg width="30px" height="34px" viewBox="0 0 30 34" version="1.1" xmlns="http://www.w3.org/2000/svg" xmlns:xlink="http://www.w3.org/1999/xlink">
    <title>Basic/Icon 图标/32PX/ 11</title>
    <g id="首页，会员中心" stroke="none" stroke-width="1" fill="none" fill-rule="evenodd">
        <g id="会员中心-账户设置" transform="translate(-606.000000, -317.000000)" fill-rule="nonzero">
            <g id="编组-8" transform="translate(569.000000, 222.000000)">
                <g id="编组-6" transform="translate(0.000000, 67.000000)">
                    <g id="编组" transform="translate(32.000000, 25.000000)">
                        <g id="4密码-1-copy" transform="translate(5.000000, 1.250000)">
                            <g id="编组" transform="translate(-0.000000, 0.937500)">
                                <path d="M21.4501527,3.58004833 C23.1073246,5.23722027 24.1327569,7.51697613 24.1327569,10.0256231 L22.6129197,10.0256231 C22.6129197,7.93813583 21.7614447,6.03376145 20.3789421,4.66041458 C14.9404883,-0.539992374 7.75330625,3.67160479 7.38708038,10.0256231 L5.86724317,10.0256231 C5.86724317,7.51697613 6.89267553,5.23722027 8.54984743,3.58004833 C12.1113937,0.0276576661 17.897762,0.0276576661 21.4501527,3.58004833 Z M24.1327569,10.0256231 L24.1327569,16.132439 L22.6129197,16.132439 L22.6129197,10.0256231 C22.6129197,9.60446342 22.9516786,9.26570452 23.3728383,9.26570452 C23.793998,9.26570452 24.1327569,9.60446342 24.1327569,10.0256231 Z M7.38708038,10.0256231 L7.38708038,16.132439 L5.86724317,16.132439 L5.86724317,10.0256231 C5.86724317,9.60446342 6.20600207,9.26570452 6.62716178,9.26570452 C7.04832148,9.26570452 7.38708038,9.60446342 7.38708038,10.0256231 L7.38708038,10.0256231 Z" id="形状" fill="#FB8C00"></path>
                                <path d="M15.0045779,15.9401705 L1.2985758,15.9401705 C0.978128206,15.9401705 0.749237068,16.1690616 0.749237068,16.4895092 L0.749237068,34.1415947 C0.749237068,34.4620423 0.978128206,34.6909334 1.2985758,34.6909334 L14.9954222,34.6909334 L14.9954222,15.9401705 L15.0045779,15.9401705 Z" id="路径" fill="#FB8C00"></path>
                                <path d="M28.7014243,15.9401705 L14.9954222,15.9401705 L14.9954222,20.3348805 L15.0045779,20.3348805 L14.9954222,30.2962234 L14.9954222,34.6909334 L28.6922686,34.6909334 C28.9852493,34.6909334 29.2416074,34.4345753 29.2416074,34.1415947 L29.2416074,16.4895092 C29.2507631,16.1965285 28.994405,15.9401705 28.7014243,15.9401705 Z" id="路径" fill="#F57C00"></path>
                                <path d="M17.1195321,21.2138225 C16.579349,20.6736394 15.828586,20.3348805 14.9954222,20.3348805 C14.1714141,20.3348805 13.4206511,20.6736394 12.8713124,21.2138225 C12.3311292,21.7540057 11.9923703,22.5047686 11.9923703,23.3379324 C11.9923703,24.1710962 12.3311292,24.9127035 12.8713124,25.4620423 C13.2466938,25.8374238 13.7136318,26.1120932 14.2446593,26.2494279 L14.2446593,29.554616 C14.2446593,29.9666201 14.5834182,30.305379 14.9954222,30.305379 C15.4074263,30.305379 15.7461852,29.9666201 15.7461852,29.554616 L15.7461852,26.2494279 C16.2772127,26.1120932 16.7441506,25.8374238 17.1195321,25.4620423 C17.6597152,24.9218592 17.9984741,24.1710962 17.9984741,23.3379324 C17.9984741,22.5047686 17.6688709,21.7540057 17.1195321,21.2138225 L17.1195321,21.2138225 Z" id="路径" fill="#E65100"></path>
                            </g>
                        </g>
                    </g>
                </g>
            </g>
        </g>
    </g>
</svg>