<?xml version="1.0" encoding="UTF-8"?>
<svg width="23px" height="34px" viewBox="0 0 23 34" version="1.1" xmlns="http://www.w3.org/2000/svg" xmlns:xlink="http://www.w3.org/1999/xlink">
    <title>Basic/Icon 图标/32PX/ 12</title>
    <g id="首页，会员中心" stroke="none" stroke-width="1" fill="none" fill-rule="evenodd">
        <g id="会员中心-账户设置" transform="translate(-1108.000000, -317.000000)" fill-rule="nonzero">
            <g id="编组-8" transform="translate(569.000000, 222.000000)">
                <g id="编组-7" transform="translate(498.000000, 67.000000)">
                    <g id="编组" transform="translate(32.000000, 25.000000)">
                        <g id="4密码-1" transform="translate(8.750000, 1.250000)">
                            <g id="编组" transform="translate(0.312500, 0.937500)">
                                <path d="M2.51953128,0.849609387 L21.1303712,0.849609387 C21.3500977,0.849609387 21.5478516,0.893554699 21.7456055,0.981445324 C21.9433594,1.06933595 22.1191407,1.17919923 22.2509766,1.33300783 C22.4047852,1.48681642 22.5146485,1.66259767 22.6025391,1.83837892 C22.6904298,2.03613283 22.7343751,2.23388673 22.7343751,2.4536133 L22.7343751,33.0175782 C22.7343751,33.2373048 22.6904298,33.4350587 22.6025391,33.6328126 C22.5146485,33.8305665 22.4047852,34.0063477 22.2509766,34.1381837 C22.097168,34.2919923 21.9213868,34.4018556 21.7456055,34.4897462 C21.5478516,34.5776368 21.3500977,34.6215821 21.1303712,34.6215821 L2.51953128,34.6215821 C2.29980471,34.6215821 2.10205081,34.5776368 1.9042969,34.4897462 C1.70654299,34.4018556 1.53076174,34.2919923 1.39892581,34.1381837 C1.24511721,33.9843751 1.13525393,33.8085938 1.0473633,33.6328126 C0.95947268,33.4350587 0.915527367,33.2373048 0.915527367,33.0175782 L0.915527367,2.4536133 C0.915527367,2.23388673 0.95947268,2.03613283 1.0473633,1.83837892 C1.13525393,1.64062501 1.24511721,1.46484376 1.39892581,1.33300783 C1.5527344,1.17919923 1.72851565,1.06933595 1.9042969,0.981445324 C2.10205081,0.893554699 2.29980471,0.849609387 2.51953128,0.849609387 Z" id="路径" fill="#15262E"></path>
                                <polygon id="路径" fill="#051324" points="3.04687503 3.53027345 20.6250001 3.53027345 20.6250001 27.5683594 3.04687503 27.5683594"></polygon>
                                <polygon id="路径" fill="#4FC3F7" points="3.26660159 3.90380861 20.3393555 3.90380861 20.3393555 27.5683594 3.26660159 27.5683594"></polygon>
                                <polygon id="路径" fill="#81D4FA" points="5.77148441 3.90380861 20.3393555 3.90380861 20.3393555 27.5683594 16.472168 27.5683594"></polygon>
                                <polygon id="路径" fill="#4FC3F7" points="3.26660159 3.90380861 5.77148441 3.90380861 16.472168 27.5683594 3.26660159 27.5683594"></polygon>
                                <path d="M12.4511719,29.7216798 C12.3632813,29.6777344 12.2753907,29.6777344 12.1875,29.6777344 C12.0776368,29.6777344 11.9897461,29.6997071 11.9238282,29.7216798 C11.8359375,29.7656251 11.7700196,29.8095704 11.7041016,29.8754884 C11.6381836,29.9414063 11.5942383,30.0292969 11.550293,30.0952149 C11.5063477,30.1831055 11.5063477,30.2709962 11.5063477,30.3588868 C11.5063477,30.4467774 11.5283204,30.5566407 11.550293,30.6225587 C11.5942383,30.7104493 11.6381836,30.7983399 11.7041016,30.8642579 C11.7700196,30.9301759 11.8359375,30.9741212 11.9238282,31.0180665 C12.0117188,31.0620118 12.0996094,31.0620118 12.1875,31.0620118 C12.2753907,31.0620118 12.385254,31.0400391 12.4511719,31.0180665 C12.5390625,30.9741212 12.6269532,30.9301759 12.6708985,30.8642579 C12.7368165,30.7983399 12.7807618,30.7104493 12.8247071,30.6225587 C12.8686524,30.534668 12.8686524,30.4467774 12.8686524,30.3588868 C12.8686524,30.2490235 12.8466797,30.1611329 12.8247071,30.0952149 C12.7807618,30.0073243 12.7368165,29.9414063 12.6708985,29.8754884 C12.6049805,29.8095704 12.5390625,29.7656251 12.4511719,29.7216798 Z" id="路径" fill="#FFFFFF"></path>
                                <path d="M11.8359375,28.7988282 C12.1215821,28.7988282 12.385254,28.8647462 12.6489258,28.9526368 C12.9125977,29.0625001 13.1323243,29.2163087 13.3300782,29.4140626 C13.5278321,29.6118165 13.6816407,29.831543 13.791504,30.0952149 C13.9013672,30.3369141 13.9453126,30.6225587 13.9453126,30.9082032 C13.9453126,31.1938477 13.8793946,31.4575196 13.791504,31.7211915 C13.6816407,31.9848634 13.5278321,32.2045899 13.3300782,32.4023438 C13.1323243,32.6000977 12.9125977,32.7539063 12.6489258,32.8637696 C12.4072266,32.9736329 12.1215821,33.0175782 11.8359375,33.0175782 C11.550293,33.0175782 11.2866211,32.9516602 11.0229493,32.8637696 C10.7592774,32.7539063 10.5395508,32.6000977 10.3417969,32.4023438 C10.144043,32.2045899 9.99023442,31.9848634 9.88037114,31.7211915 C9.77050785,31.4794923 9.72656254,31.1938477 9.72656254,30.9082032 C9.72656254,30.6225587 9.79248051,30.3588868 9.88037114,30.0952149 C9.99023442,29.831543 10.144043,29.6118165 10.3417969,29.4140626 C10.5395508,29.2163087 10.7592774,29.0625001 11.0229493,28.9526368 C11.2646485,28.8427735 11.550293,28.7988282 11.8359375,28.7988282 Z" id="路径" fill="#FFFFFF"></path>
                                <path d="M9.63867192,2.1020508 L14.0332032,2.1020508 C14.1914063,2.1020508 14.3188477,2.22509767 14.3188477,2.376709 C14.3188477,2.52832033 14.1914063,2.6513672 14.0332032,2.6513672 L9.63867192,2.6513672 C9.48046879,2.6513672 9.35302738,2.52832033 9.35302738,2.376709 C9.35302738,2.22509767 9.48046879,2.1020508 9.63867192,2.1020508 Z" id="路径" fill="#020D1A"></path>
                                <path d="M11.8359375,29.194336 C12.0556641,29.194336 12.2753907,29.2382813 12.4951172,29.3261719 C12.7148438,29.4140626 12.890625,29.5458985 13.0444336,29.6997071 C13.1982422,29.8535157 13.3300782,30.0512696 13.4179688,30.2490235 C13.5058594,30.4467774 13.5498047,30.666504 13.5498047,30.9082032 C13.5498047,31.1279298 13.5058594,31.3476563 13.4179688,31.5673829 C13.3300782,31.7651368 13.1982422,31.9628907 13.0444336,32.1166993 C12.890625,32.2705079 12.6928711,32.4023438 12.4951172,32.4902345 C12.2973633,32.5781251 12.0776368,32.6220704 11.8359375,32.6220704 C11.616211,32.6220704 11.3964844,32.5781251 11.1767579,32.4902345 C10.979004,32.4023438 10.78125,32.2705079 10.6274414,32.1166993 C10.4736329,31.9628907 10.3417969,31.7651368 10.2539063,31.5673829 C10.1660157,31.369629 10.1220704,31.1499024 10.1220704,30.9082032 C10.1220704,30.6884766 10.1660157,30.4687501 10.2539063,30.2490235 C10.3417969,30.0292969 10.4736329,29.8535157 10.6274414,29.6997071 C10.78125,29.5458985 10.979004,29.4140626 11.1767579,29.3261719 C11.3745118,29.2382813 11.5942383,29.194336 11.8359375,29.194336 Z" id="路径" fill="#051324"></path>
                            </g>
                        </g>
                    </g>
                </g>
            </g>
        </g>
    </g>
</svg>