<svg xmlns="http://www.w3.org/2000/svg" width="12" height="12" viewBox="0 0 12 12">
  <g fill="none" fill-rule="evenodd">
    <g>
      <g>
        <g>
          <g>
            <path fill="#111" fill-opacity="0" d="M0 0H12V12H0z" transform="translate(-1820 -25) translate(1403 14) translate(203 7) translate(214 4)"/>
            <g fill="#B5B5B5" fill-rule="nonzero">
              <path d="M11.804 7.25c0 .016 0 .038-.008.054C11.132 10.07 8.852 12 5.97 12c-1.523 0-3-.601-4.109-1.657L.852 11.352c-.094.094-.219.148-.353.148C.226 11.5 0 11.274 0 11V7.502c0-.273.226-.5.5-.5h3.499c.273 0 .5.227.5.5 0 .133-.056.259-.15.353L3.283 8.922C4.016 9.61 4.992 10 6.001 10c1.39 0 2.68-.717 3.405-1.907.188-.304.281-.601.414-.914.039-.11.118-.18.234-.18h1.5c.14.001.25.12.25.25zM12 1v3.5c0 .273-.226.5-.5.5H8c-.273 0-.5-.227-.5-.5 0-.133.055-.258.15-.352L8.726 3.07C7.985 2.383 7.01 2 6.001 2c-1.39 0-2.68.717-3.406 1.907-.187.304-.281.601-.414.914-.038.11-.117.18-.234.18H.392c-.14 0-.25-.118-.25-.25v-.055C.814 1.922 3.119 0 6 0c1.53 0 3.022.61 4.132 1.657L11.148.648c.094-.094.219-.148.353-.148.273 0 .499.226.499.5z" transform="translate(-1820 -25) translate(1403 14) translate(203 7) translate(214 4)"/>
            </g>
          </g>
        </g>
      </g>
    </g>
  </g>
</svg>
