<?xml version="1.0" encoding="UTF-8"?>
<svg width="13px" height="14px" viewBox="0 0 13 14" version="1.1" xmlns="http://www.w3.org/2000/svg" xmlns:xlink="http://www.w3.org/1999/xlink">
    <title>注意@2x</title>
    <g id="首页-登录注册-选择筹码" stroke="none" stroke-width="1" fill="none" fill-rule="evenodd">
        <g id="登录-短信登录" transform="translate(-38.000000, -262.000000)" fill="#707070" fill-rule="nonzero">
            <g id="注意" transform="translate(38.000000, 262.500000)">
                <path d="M6.49999972,13.0000151 L6.49999972,13.0000151 C2.91014959,13.0000151 -2.84123963e-07,10.0898653 -2.84123963e-07,6.5 C-2.84123963e-07,2.91014987 2.91014959,-5.77316645e-15 6.49999972,-5.77316645e-15 L6.49999972,-5.77316645e-15 C10.0898647,-5.77316645e-15 13.0000146,2.91014987 13.0000146,6.5 C13.0000146,10.0898653 10.0898647,13.0000151 6.49999972,13.0000151 L6.49999972,13.0000151 Z M6.50000756,2.43750269 L6.50000753,2.43750269 C6.05127595,2.43750269 5.68750658,2.8012722 5.68750658,3.25000378 C5.68750658,3.25000378 5.68750658,3.25000378 5.68750658,3.25000378 L5.68750658,7.31250851 L5.68750658,7.31250841 C5.68750658,7.76123999 6.05127595,8.12500936 6.50000753,8.12500936 C6.9487391,8.12500936 7.31250847,7.76123999 7.31250847,7.31250841 C7.31250847,7.31250839 7.31250847,7.31250838 7.31250847,7.31250836 L7.31250847,3.25000363 L7.31250847,3.25000363 C7.31250847,2.80127206 6.9487391,2.43750269 6.50000753,2.43750269 L6.50000756,2.43750269 Z M6.50000756,10.5625123 L6.50000753,10.5625123 C6.9487391,10.5625123 7.31250847,10.1987429 7.31250847,9.75001135 C7.31250847,9.30127977 6.9487391,8.9375104 6.50000753,8.9375104 L6.50000749,8.9375104 C6.05127592,8.9375104 5.68750655,9.30127977 5.68750655,9.75001135 C5.68750655,10.1987429 6.05127592,10.5625123 6.50000749,10.5625123 L6.50000756,10.5625123 Z" id="形状"></path>
            </g>
        </g>
    </g>
</svg>