<svg width="65px" height="16px" viewBox="0 0 65 16" version="1.1" xmlns="http://www.w3.org/2000/svg" xmlns:xlink="http://www.w3.org/1999/xlink">
  <title>编组 9</title>
  <defs>
    <linearGradient x1="50%" y1="-2.48949813e-15%" x2="50%" y2="99.01934%" id="linearGradient-1">
      <stop stop-color="#6C7A94" offset="0%"></stop>
      <stop stop-color="#3F4C5D" offset="100%"></stop>
    </linearGradient>
    <linearGradient x1="50%" y1="-2.48949813e-15%" x2="50%" y2="100%" id="linearGradient-2">
      <stop stop-color="#46546D" offset="0%"></stop>
      <stop stop-color="#646E7B" offset="100%"></stop>
    </linearGradient>
    <linearGradient x1="50%" y1="98.4921329%" x2="50%" y2="0%" id="linearGradient-3">
      <stop stop-color="#65758C" offset="0%"></stop>
      <stop stop-color="#7E899E" offset="100%"></stop>
    </linearGradient>
    <linearGradient x1="46.5790589%" y1="18.1274537%" x2="68.0904199%" y2="99.1613253%" id="linearGradient-4">
      <stop stop-color="#606C89" offset="0%"></stop>
      <stop stop-color="#4B546B" offset="100%"></stop>
    </linearGradient>
  </defs>
  <g id="个人中心-" stroke="none" stroke-width="1" fill="none" fill-rule="evenodd">
    <g id="个人中心-主站vip卡" transform="translate(-31.000000, -119.000000)">
      <g id="编组-9" transform="translate(31.000000, 119.000000)">
        <g id="编组-8">
          <path d="M9.71428571,2.28571429 L62.2142857,2.28571429 C63.3188552,2.28571429 64.2142857,3.18114479 64.2142857,4.28571429 L64.2142857,9.14285714 C64.2142857,12.9299526 61.1442383,16 57.3571429,16 L9.71428571,16 L9.71428571,16 L9.71428571,2.28571429 Z" id="矩形" fill="url(#linearGradient-1)"></path>
          <g id="编组-7">
            <polygon id="路径-3" fill="url(#linearGradient-2)" points="3.85125858 -1.21641827e-15 15.15168 -1.21641827e-15 19.0029386 7.38949983 9.50146931 15.699845 4.07125143e-13 7.38949983"></polygon>
            <polygon id="路径-4" fill="url(#linearGradient-3)" points="3.85125858 0 9.41411166 5.63975989 15.15168 0"></polygon>
            <polygon id="路径-5" fill="url(#linearGradient-4)" points="9.50146931 5.63975989 9.50146931 15.699845 4.7764081e-13 7.38949983 3.85125858 -8.71516471e-16"></polygon>
          </g>
        </g>
        <path d="M28.1122981,13 C28.3053416,12.6817391 28.4018634,12.3373913 28.4018634,11.9669565 L28.4018634,11.9669565 L28.4018634,8.77391304 L29.4896894,8.77391304 L29.4896894,13 L30.3896894,13 L30.3896894,8.77391304 L30.6636025,8.77391304 L30.6636025,8.05391304 L28.4018634,8.05391304 L28.4018634,5.94086957 L30.6636025,5.62 L30.6636025,4.9 L27.5018634,5.34608696 L27.5018634,11.9669565 C27.5018634,12.3478261 27.4001242,12.6921739 27.196646,13 L27.196646,13 L28.1122981,13 Z M27.196646,6.06608696 L27.196646,5.34608696 L25.9131677,5.34608696 L25.6470807,4.9 L24.7470807,4.9 L25.0131677,5.34608696 L23.4636025,5.34608696 L23.4636025,6.06608696 L27.196646,6.06608696 Z M26.5157764,7.06 L26.930559,6.34 L25.8896894,6.34 L25.4749068,7.06 L26.5157764,7.06 Z M24.9192547,7.06 L24.504472,6.34 L23.4714286,6.34 L23.8862112,7.06 L24.9192547,7.06 Z M25.7879503,13 L25.7879503,9.49391304 L27.196646,9.49391304 L27.196646,8.77391304 L25.7879503,8.77391304 L25.7879503,8.05391304 L27.196646,8.05391304 L27.196646,7.33391304 L23.4714286,7.33391304 L23.4714286,8.05391304 L24.8879503,8.05391304 L24.8879503,8.77391304 L23.4714286,8.77391304 L23.4714286,9.49391304 L24.8879503,9.49391304 L24.8879503,13 L25.7879503,13 Z M27.196646,13 C26.9931677,12.6921739 26.8914286,12.3478261 26.8914286,11.9669565 L26.8914286,9.76 L25.9914286,9.76 L25.9914286,11.9669565 C25.9914286,12.3373913 26.0879503,12.6817391 26.2809938,13 L27.196646,13 Z M24.3792547,13 C24.5722981,12.6973913 24.6688199,12.3530435 24.6688199,11.9669565 L24.6688199,11.9669565 L24.6688199,9.76 L23.7688199,9.76 L23.7688199,11.9669565 C23.7688199,12.3478261 23.6670807,12.6921739 23.4636025,13 L23.4636025,13 L24.3792547,13 Z M39.6714286,8.05391304 L38.6540373,4.90782609 L34.8818634,4.90782609 L34.8818634,5.62 L37.9496894,5.62 L38.7322981,8.05391304 L39.6714286,8.05391304 Z M33.410559,8.05391304 L34.4279503,4.90782609 L33.4888199,4.90782609 L32.4714286,8.05391304 L33.410559,8.05391304 Z M38.0436025,8.05391304 L38.0436025,7.33391304 L34.0914286,7.33391304 L34.0914286,8.05391304 L38.0436025,8.05391304 Z M39.6714286,13 L39.6714286,12.0295652 C39.6714286,11.6486957 39.5775155,11.3043478 39.3896894,10.9965217 L39.3896894,10.9965217 L38.4662112,10.9965217 C38.6696894,11.2991304 38.7714286,11.6434783 38.7714286,12.0295652 L38.7714286,12.0295652 L38.7714286,12.2878261 L33.4418634,12.2878261 L35.1401242,9.49391304 L39.6714286,9.49391304 L39.6714286,8.77391304 L32.4714286,8.77391304 L32.4714286,9.49391304 L34.1618634,9.49391304 L32.4714286,12.2878261 L32.4714286,13 L39.6714286,13 Z M48.6714286,7.50608696 L48.6714286,4.9 L41.4714286,4.9 L41.4714286,6.42608696 C41.4714286,6.72347826 41.5770807,6.97782609 41.7883851,7.18913043 C41.9996894,7.40043478 42.2540373,7.50608696 42.5514286,7.50608696 L42.5514286,7.50608696 L48.6714286,7.50608696 Z M47.7714286,6.79391304 L42.3714286,6.79391304 L42.3714286,5.62 L47.7714286,5.62 L47.7714286,6.79391304 Z M42.3714286,11.56 L42.3714286,8.68 L47.7714286,8.68 L47.7714286,10.5269565 C47.7714286,10.9130435 47.6696894,11.2573913 47.4662112,11.56 L47.4662112,11.56 L48.3896894,11.56 C48.5775155,11.2521739 48.6714286,10.9078261 48.6714286,10.5269565 L48.6714286,10.5269565 L48.6714286,7.96 L41.4714286,7.96 L41.4714286,11.56 L42.3714286,11.56 Z M42.676646,13 L45.5253416,10.2765217 L45.5253416,9.12608696 L44.6175155,9.12608696 L44.6175155,9.94782609 L41.4714286,13 L42.676646,13 Z M48.6714286,13 L46.5740373,10.9652174 L45.3296894,10.9652174 L47.4662112,13 L48.6714286,13 Z M53.6409938,13 L53.6409938,8.86782609 L57.6714286,8.86782609 L57.6714286,8.14782609 L53.6409938,8.14782609 L53.6409938,6.34782609 L57.2253416,6.34782609 L57.2253416,5.62782609 L53.6409938,5.62782609 L53.6409938,4.90782609 L52.7409938,4.90782609 L52.7409938,8.14782609 L50.4714286,8.14782609 L50.4714286,8.86782609 L52.7409938,8.86782609 L52.7409938,13 L53.6409938,13 Z M57.2096894,12.5617391 C57.0062112,12.253913 56.904472,11.9069565 56.904472,11.5208696 L56.904472,11.5208696 L56.904472,9.58782609 L56.004472,9.58782609 L56.004472,11.5208696 C56.004472,11.9017391 56.1009938,12.2486957 56.2940373,12.5617391 L56.2940373,12.5617391 L57.2096894,12.5617391 Z" id="新会员卡" fill="#FFE7CD" fill-rule="nonzero"></path>
      </g>
    </g>
  </g>
</svg>