<?xml version="1.0" encoding="UTF-8"?>
<svg width="113px" height="34px" viewBox="0 0 113 34" version="1.1" xmlns="http://www.w3.org/2000/svg" xmlns:xlink="http://www.w3.org/1999/xlink">
    <!-- Generator: Sketch 42 (36781) - http://www.bohemiancoding.com/sketch -->
    <title>Group 2</title>
    <desc>Created with Sketch.</desc>
    <defs></defs>
    <g id="Symbols" stroke="none" stroke-width="1" fill="none" fill-rule="evenodd">
        <g id="logo/NB">
            <g id="Group-2">
                <g id="Group">
                    <path d="M0,0 L19,0 L19,34 L0,34 L0,0 Z M19,0 L30,12 L30,34 L19,22 L19,0 Z M30,0 L49,0 L49,34 L30,34 L30,0 Z" id="Combined-Shape" fill="#26E4BF"></path>
                    <polygon id="Rectangle-Copy-8" fill="#000000" opacity="0.200000003" points="19 22 19 34 0.0256347656 33.9794922 0 0"></polygon>
                    <polygon id="Rectangle-Copy-7" fill="#000000" opacity="0.300000012" points="30 0 49 21.9949161 49 34 30 12"></polygon>
                </g>
                <path d="M91.5882985,34 L76.1075687,34 L76.1075687,0 L91.0372045,0 L91.0372045,6.77034884 L85.0753701,6.77034884 L85.0753701,13.244186 L90.6865084,13.244186 L90.6865084,19.7180233 L85.0753701,19.7180233 L85.0753701,27.2296512 L91.5882985,27.2296512 L91.5882985,34 Z M112.990497,6.77034884 L107.730055,6.77034884 L107.730055,34 L98.7622533,34 L98.7622533,6.77034884 L93.4016122,6.77034884 L93.4016122,0 L112.990497,0 L112.990497,6.77034884 Z" id="BET-Copy" fill="#FFFFFF"></path>
                <path d="M72.8914703,26.0436047 C72.8914703,29.0416817 72.1065868,31.1172423 70.5367962,32.2703488 C68.9670056,33.4234554 66.2449628,34 62.370586,34 L52,34 L52,0 L62.5709838,0 C65.8441642,0 68.2739632,0.700089898 69.8604536,2.1002907 C71.4469441,3.5004915 72.2401775,5.68312471 72.2401775,8.64825581 C72.2401775,11.0862525 72.0063824,12.7005774 71.5387852,13.4912791 C70.9709886,14.4467102 69.6350166,15.1550365 67.5308293,15.6162791 C69.6350166,16.1104676 71.0544868,16.892921 71.7892824,17.9636628 C72.524078,19.0344046 72.8914703,20.6734386 72.8914703,22.880814 L72.8914703,26.0436047 Z M63.8735695,9.04360465 C63.8735695,7.5610391 63.6898733,6.65504041 63.3224755,6.3255814 C62.9550777,5.99612238 62.1701942,5.83139535 60.9678014,5.83139535 L60.9678014,13.3430233 L61.8695915,13.3430233 C62.7713861,13.3430233 63.3308243,13.1124054 63.547923,12.6511628 C63.7650217,12.1899202 63.8735695,10.9874128 63.8735695,9.04360465 Z M63.8735695,25.005814 L63.8735695,21.7936047 C63.8735695,20.343985 63.7316224,19.4626954 63.4477241,19.1497093 C63.1638258,18.8367232 62.3371932,18.6802326 60.9678014,18.6802326 L60.9678014,28.119186 C62.203594,28.119186 62.9968273,27.9462227 63.3475252,27.6002907 C63.6982231,27.2543587 63.8735695,26.3895418 63.8735695,25.005814 Z" id="Combined-Shape" fill="#FFFFFF"></path>
            </g>
        </g>
    </g>
</svg>