<?xml version="1.0" encoding="UTF-8"?>
<svg width="16px" height="16px" viewBox="0 0 16 16" version="1.1" xmlns="http://www.w3.org/2000/svg" xmlns:xlink="http://www.w3.org/1999/xlink">
    <!-- Generator: Sketch 53.1 (72631) - https://sketchapp.com -->
    <title>日期</title>
    <desc>Created with Sketch.</desc>
    <g id="PC会员中心" stroke="none" stroke-width="1" fill="none" fill-rule="evenodd">
        <g id="pc/会员中心/报表查询/提现记录" transform="translate(-1091.000000, -255.000000)" fill="#ECEBEB" fill-rule="nonzero">
            <g id="分组-16" transform="translate(920.000000, 248.000000)">
                <g id="分组-14">
                    <g id="分组-11">
                        <g id="分组-6" transform="translate(62.000000, 0.000000)">
                            <g id="日期" transform="translate(109.000000, 7.000000)">
                                <path d="M11.2047042,12.6363636 L11.8136168,12.6363636 C12.1662276,12.6363636 12.4545455,12.4312804 12.4545455,12.1799177 C12.4545455,11.928555 12.1662276,11.7234718 11.8136168,11.7234718 L11.2047042,11.7234718 C10.8520064,11.7234718 10.5636886,11.928555 10.5636886,12.1799177 C10.5690826,12.4312804 10.8520064,12.6363636 11.2047042,12.6363636 Z M11.2047042,9.91289184 L11.8136168,9.91289184 C12.1662276,9.91289184 12.4545455,9.70780862 12.4545455,9.45644592 C12.4545455,9.20516676 12.1662276,9 11.8136168,9 L11.2047042,9 C10.8520064,9 10.5636886,9.20516676 10.5636886,9.45644592 C10.5690826,9.70780862 10.8520064,9.91289184 11.2047042,9.91289184 Z M7.42281641,9.91289184 L8.03712305,9.91289184 C8.38964684,9.91289184 8.67805167,9.70780862 8.67805167,9.45644592 C8.67805167,9.20516676 8.38964684,9 8.03712305,9 L7.42281641,9 C7.07029261,9 6.78188778,9.20516676 6.78188778,9.45644592 C6.78188778,9.70780862 7.07029261,9.91289184 7.42281641,9.91289184 Z M3.64101562,9.91289184 L4.24992827,9.91289184 C4.60253906,9.91289184 4.89103089,9.70780862 4.89103089,9.45644592 C4.89103089,9.20516676 4.60253906,9 4.24992827,9 L3.64101562,9 C3.28849183,9 3,9.20516676 3,9.45644592 C3,9.70780862 3.28318483,9.91289184 3.64101562,9.91289184 Z M7.42281641,12.6363636 L8.03712305,12.6363636 C8.38964684,12.6363636 8.67805167,12.4312804 8.67805167,12.1799177 C8.67805167,11.928555 8.38964684,11.7234718 8.03712305,11.7234718 L7.42281641,11.7234718 C7.07029261,11.7234718 6.78188778,11.928555 6.78188778,12.1799177 C6.78188778,12.4312804 7.07029261,12.6363636 7.42281641,12.6363636 Z M3.64101562,12.6363636 L4.24992827,12.6363636 C4.60253906,12.6363636 4.89103089,12.4312804 4.89103089,12.1799177 C4.89103089,11.928555 4.60253906,11.7234718 4.24992827,11.7234718 L3.64101562,11.7234718 C3.28849183,11.7234718 3,11.928555 3,12.1799177 C3,12.4312804 3.28318483,12.6363636 3.64101562,12.6363636 Z" id="形状"></path>
                                <path d="M13.0528736,1.95899924 L12.0423908,1.95899924 L12.0423908,0.532260574 L12.0423908,0.492608453 C12.0420867,0.220674717 11.8223388,0.000304915708 11.5511724,2.55945922e-16 C11.2858851,2.55945922e-16 11.0655632,0.215228029 11.059954,0.486798956 L11.059954,1.96462431 L4.9851954,1.96462431 L4.9851954,0.532260574 L4.9851954,0.492608453 C4.98494202,0.220689634 4.76522042,0.000305008191 4.49406897,0 C4.2259611,-4.82212995e-09 4.0086025,0.2179324 4.00855172,0.486798956 L4.00855172,1.96462431 L2.94712644,1.96462431 C1.32101149,1.95899924 0,3.10273242 0,5.25980785 L0,13.0164084 C0,14.5676363 1.17434483,15.847201 2.66482759,15.9887499 L13.0528736,16 C14.6788966,16 16,14.6638157 16,13.0164084 L16,4.94840037 C16,3.3008086 14.6788966,1.95899924 13.0528736,1.95899924 L13.0528736,1.95899924 Z M15.0007356,13.3107562 C15.0007356,14.2449786 14.1934713,14.9980001 13.2054253,14.9980001 L2.80036782,14.9980001 C1.80671264,14.9980001 1.00487356,14.2392614 1.00487356,13.3107562 L1.00487356,6.97536151 L15.0063448,6.97536151 L15.0007356,13.3107562 L15.0007356,13.3107562 Z M15.0007356,4.65396031 L15.0007356,5.97317718 L1.00487356,5.97317718 L1.00487356,4.65396031 C1.00487356,3.8273519 1.72763218,2.96680864 3.00349425,2.96680864 L4.00855172,2.96680864 L4.00855172,4.47285155 C4.01425287,4.73317234 4.2342069,4.94840037 4.49967816,4.94840037 C4.77087161,4.94819689 4.99065246,4.72775283 4.9908046,4.45579192 L4.9908046,2.96680864 L11.0655632,2.96680864 L11.0655632,4.47285155 C11.0712644,4.73317234 11.2914023,4.94840037 11.5568736,4.94840037 C11.8280399,4.94809546 12.0477879,4.72772565 12.048092,4.45579192 L12.048092,2.96680864 L13.0021149,2.96680864 C13.9901609,2.96680864 15.0910345,3.69705318 15.0007356,4.65396031 L15.0007356,4.65396031 Z" id="形状"></path>
                            </g>
                        </g>
                    </g>
                </g>
            </g>
        </g>
    </g>
</svg>