<?xml version="1.0" encoding="UTF-8"?>
<svg width="60px" height="66px" viewBox="0 0 60 66" version="1.1" xmlns="http://www.w3.org/2000/svg" xmlns:xlink="http://www.w3.org/1999/xlink">
    <!-- Generator: Sketch 49.3 (51167) - http://www.bohemiancoding.com/sketch -->
    <title>touzhu card/none</title>
    <desc>Created with Sketch.</desc>
    <defs></defs>
    <g id="4-投注单" stroke="none" stroke-width="1" fill="none" fillRule="evenodd">
        <g id="投注单-tab形式/空页面" transform="translate(-158.000000, -280.000000)" fill="#55565A" fillRule="nonzero">
            <g id="无注单" transform="translate(151.000000, 280.000000)">
                <path d="M13,6 L13,60 L61,60 L61,30 C61,16.745166 50.254834,6 37,6 L13,6 Z M13,0 L37,0 C53.5685425,0 67,13.4314575 67,30 L67,60 C67,63.3137085 64.3137085,66 61,66 L13,66 C9.6862915,66 7,63.3137085 7,60 L7,6 C7,2.6862915 9.6862915,0 13,0 Z M36.1231712,15 C32.3851934,15 29.455427,16.0607775 27.2833589,18.1823324 C25.0607775,20.3038874 24,23.2336538 24,26.9716315 L29.7585063,26.9716315 C29.7585063,24.8500766 30.162612,23.1831405 31.0213366,22.0213366 C31.9810877,20.6069667 33.5469973,19.9502949 35.7695787,19.9502949 C37.4870279,19.9502949 38.8508847,20.4049138 39.8106357,21.3646649 C40.7198736,22.3244159 41.2250057,23.6377595 41.2250057,25.3046955 C41.2250057,26.5675258 40.7703868,27.779843 39.861149,28.8911336 L39.2549904,29.5983186 C35.9716315,32.528085 34.0016162,34.64964 33.3449445,36.0134967 C32.6377595,37.3773535 32.3346802,39.0442895 32.3346802,40.9637916 L32.3346802,41.6709766 L38.1436997,41.6709766 L38.1436997,40.9637916 C38.1436997,39.7514745 38.3962658,38.690697 38.9013979,37.6804328 C39.3560168,36.7711949 40.0126886,35.9124703 40.9219264,35.1547721 C43.3465607,33.0332171 44.8114439,31.6693604 45.2660628,31.1642282 C46.4783799,29.5478054 47.1350517,27.4767637 47.1350517,24.951103 C47.1350517,21.869797 46.1247874,19.4451628 44.1042589,17.6772003 C42.0837303,15.8587246 39.40653,15 36.1231712,15 Z M35.2139333,44.146124 C34.1026427,44.146124 33.1934048,44.4997165 32.4357066,45.2069015 C31.6780084,45.9140865 31.3244159,46.8233244 31.3244159,47.934615 C31.3244159,49.0459057 31.6780084,49.9551436 32.4357066,50.6623286 C33.1934048,51.3695135 34.1026427,51.7736193 35.2139333,51.7736193 C36.325224,51.7736193 37.2344619,51.4200268 37.9921601,50.7128418 C38.7498583,50.0056568 39.153964,49.0459057 39.153964,47.934615 C39.153964,46.8233244 38.7498583,45.9140865 38.0426733,45.2069015 C37.2849751,44.4997165 36.325224,44.146124 35.2139333,44.146124 Z" id="touzhu-card/none"></path>
            </g>
        </g>
    </g>
</svg>