<svg xmlns="http://www.w3.org/2000/svg" width="25" height="26" viewBox="0 0 25 26">
  <g fill="none" fill-rule="evenodd">
    <g fill="#653302">
      <g>
        <g>
          <g>
            <g>
              <path fill-rule="nonzero" d="M4.697 18.181c.373.101.752.303 1.137.604.385.302.632.791.742 1.468l-.04-.012c.115.037.214.063.31.089l.073.02c.206.054.419.116.776.285.015.008-.626-.218-1.154-.268-.896.476-1.909.565-3.039.268 1.02-.695 2.03-.826 3.035-.394l.039.012-.005-.017c-.04-.126-.228-.228-.56-.306-.524-.123-.916-.8-.907-.927.007-.085-.129-.36-.407-.822zm.572 1.32c-.433.355-1.46.606-2.065.466-.431-.1-.86-.213-1.283-.339.992-.59 2.108-.633 3.348-.127zM2.85 18.093c.519.173.935.43 1.25.77-.671.066-1.257.056-1.759-.031-.5-.088-1.05-.38-1.646-.878.918-.08 1.637-.034 2.155.139zm.739-2.287c.981 1.064 1.283 2.085.905 3.062-.863-.484-.904-1.479-.878-1.667.006-.039.009-.108.009-.208v-.064c-.001-.237-.013-.611-.036-1.124zm-2.877.14c.867.072 1.45.323 1.749.753.298.431.456.67.474.719.105.162.214.323.325.482-.45.017-1.249-.188-1.822-.731-.263-.228-.505-.636-.726-1.222zm2.052-1.344c.694.876.847 1.811.457 2.805-.748-.769-.9-1.704-.457-2.805zm-2.559-.15c.105.039.228.055.37.05.47.038.921.32 1.356.846.208.34.315.618.322.836-.857-.194-1.292-.619-1.482-.95-.127-.22-.315-.48-.566-.783zm2.598-2.13c.179.597.254 1.292-.05 1.748-.204.303-.423.71-.657 1.217-.002-.389-.041-.714-.12-.975-.117-.392.051-1.417.827-1.991zm-2.43.067c.214.241.438.445.672.614.35.252.675.708.714 1.916-.966-.587-1.428-1.43-1.387-2.53zM.49 10.79c.445.276.76.62.942 1.033.183.412.238.866.166 1.362-.512-.353-.794-.74-.846-1.162-.05-.418-.138-.83-.263-1.233zm2.743-.213c-.052.85-.246 1.146-.473 1.495-.151.233-.427.482-.827.75.06-.159.088-.345.085-.559-.004-.32.202-1.033 1.215-1.686zm-1.827-.924c.588.762.755 1.558.5 2.389-.616-.75-.783-1.546-.5-2.389zm1.9-.231c.032.735-.327 1.31-1.075 1.724-.006-.69.353-1.265 1.076-1.724zM2.194 8.265c.242.416.346.785.314 1.11-.034.484-.195.897-.482 1.238.034-.035.007-.21-.082-.524-.134-.47-.113-1.106.036-1.346.1-.16.17-.32.214-.478zM18.673 18.181c-.373.101-.752.303-1.136.604-.385.302-.633.791-.742 1.468l.039-.012c-.115.037-.213.063-.31.089l-.073.02c-.205.054-.418.116-.775.285-.016.008.625-.218 1.154-.268.896.476 1.909.565 3.039.268-1.02-.695-2.03-.826-3.035-.394l-.04.012.005-.017c.042-.126.229-.228.561-.306.523-.123.916-.8.907-.927-.007-.085.129-.36.406-.822zm-.57 1.32c.431.355 1.458.606 2.064.466.404-.093.832-.206 1.283-.339-.992-.59-2.108-.633-3.348-.127zm2.418-1.408c-.519.173-.936.43-1.25.77.671.066 1.257.056 1.758-.031.502-.088 1.05-.38 1.647-.878-.918-.08-1.637-.034-2.155.139zm-.739-2.287c-.981 1.064-1.283 2.085-.905 3.062.863-.484.904-1.479.878-1.667-.006-.039-.009-.108-.01-.208v-.064c.002-.237.014-.612.037-1.124zm2.877.14c-.867.072-1.45.323-1.749.753-.299.431-.457.67-.474.719-.106.162-.214.323-.325.482.45.017 1.249-.188 1.822-.731.263-.228.505-.636.726-1.223zm-2.052-1.344c-.695.876-.847 1.811-.457 2.805.747-.769.9-1.704.457-2.805zm2.558-.15c-.104.039-.228.055-.37.05-.468.037-.92.32-1.355.845-.208.34-.315.619-.322.837.856-.194 1.292-.619 1.482-.95.126-.22.315-.48.565-.783zm-2.597-2.13c-.179.597-.254 1.292.05 1.748.204.303.423.71.657 1.217.001-.389.041-.714.12-.975.116-.392-.051-1.417-.827-1.991zm2.43.067c-.214.241-.438.445-.672.614-.35.252-.676.708-.714 1.916.966-.587 1.428-1.43 1.387-2.53zm-.118-1.599c-.445.276-.76.62-.942 1.033-.183.412-.238.866-.166 1.362.512-.353.794-.74.845-1.162.052-.421.14-.832.263-1.233zm-2.743-.213c.052.85.246 1.146.473 1.495.151.233.427.483.827.75-.06-.159-.088-.345-.085-.559.004-.32-.202-1.032-1.215-1.686zm1.827-.924c-.588.762-.755 1.558-.5 2.39.616-.75.782-1.546.5-2.39zm-1.9-.231c-.032.735.327 1.31 1.075 1.724.005-.69-.353-1.265-1.076-1.724zm1.113-1.157c-.241.416-.346.785-.314 1.11.035.484.196.897.483 1.238-.034-.035-.007-.21.082-.524.133-.47.113-1.106-.036-1.346-.1-.16-.17-.32-.214-.478z" transform="translate(-27 -312) translate(13 303.342) translate(14.5 8.71) translate(.035 .448)"/>
              <text font-family="Impact" font-size="20.521" font-style="condensed" font-weight="700" transform="translate(-27 -312) translate(13 303.342) translate(14.5 8.71) translate(.035 .448)">
                <tspan x="7.635" y="21">1</tspan>
              </text>
            </g>
          </g>
        </g>
      </g>
    </g>
  </g>
</svg>
