<svg xmlns="http://www.w3.org/2000/svg" width="16" height="24" viewBox="0 0 16 24">
  <g fill="none" fillRule="evenodd">
    <g>
      <g>
        <g>
          <path fill="#35ABF9" fillRule="nonzero" d="M12.577 5.678L10.49 9.853c-.213.44-.662.716-1.15.708H5.13c-.487 0-.932-.273-1.151-.708L1.892 5.678c-.084-.18-.13-.376-.132-.575v-3.57c0-.706.575-1.298 1.3-1.298h8.382c.708 0 1.3.575 1.3 1.297v3.57c-.033.196-.082.395-.163.576h-.002z" transform="translate(-38 -481) translate(13 303.342) translate(25.218 177.842)"/>
          <path fill="#FCC376" fillRule="nonzero" d="M.133 15.723c.084 3.922 3.331 7.033 7.254 6.95 3.803-.082 6.868-3.147 6.95-6.95v.001c0-3.922-3.18-7.101-7.1-7.103-3.92.007-7.095 3.182-7.102 7.102H.133z" transform="translate(-38 -481) translate(13 303.342) translate(25.218 177.842)"/>
          <path fill="#EFB15D" fillRule="nonzero" d="M7.235 10.445c-2.849.006-5.157 2.313-5.162 5.162.005 2.849 2.313 5.158 5.162 5.163 2.849-.005 5.157-2.314 5.161-5.163-.005-2.849-2.313-5.156-5.161-5.162z" transform="translate(-38 -481) translate(13 303.342) translate(25.218 177.842)"/>
          <path fill="#FFFEFF" fillRule="nonzero" d="M7.4 6.811c-.163.002-.296-.128-.298-.29v-4.18c-.001-.162.129-.295.29-.297H7.4c.162 0 .294.13.295.292v4.197c-.016.146-.146.278-.295.278z" transform="translate(-38 -481) translate(13 303.342) translate(25.218 177.842)"/>
          <path fill="#FCC376" fillRule="nonzero" d="M9.602 11.037l-5.261 8.86c.821.56 1.826.89 2.894.89 2.849-.006 5.157-2.315 5.161-5.164 0-2.005-1.135-3.732-2.794-4.586z" transform="translate(-38 -481) translate(13 303.342) translate(25.218 177.842)"/>
          <path fill="#E19547" fillRule="nonzero" d="M7.235 21.065c-3.013-.004-5.455-2.445-5.459-5.458.004-3.013 2.446-5.455 5.459-5.458 3.012.005 5.452 2.446 5.456 5.458-.003 3.013-2.445 5.454-5.458 5.458h.002zm0-10.325c-2.686.005-4.862 2.181-4.867 4.867.005 2.686 2.18 4.862 4.866 4.866 2.686-.005 4.861-2.18 4.867-4.866-.005-2.686-2.181-4.861-4.866-4.867z" transform="translate(-38 -481) translate(13 303.342) translate(25.218 177.842)"/>
          <text fill="#FFF" font-family="PingFangSC-Medium, PingFang SC" font-size="7.781" font-weight="400" letter-spacing="-.002" transform="translate(-38 -481) translate(13 303.342) translate(25.218 177.842)">
            <tspan x="4.632" y="17.843">3</tspan>
          </text>
        </g>
      </g>
    </g>
  </g>
</svg>
