<?xml version="1.0" standalone="no"?>
<!DOCTYPE svg PUBLIC "-//W3C//DTD SVG 1.1//EN" "http://www.w3.org/Graphics/SVG/1.1/DTD/svg11.dtd" >
<svg xmlns="http://www.w3.org/2000/svg">
<metadata>Generated by IcoMoon</metadata>
<defs>
<font id="icomoon" horiz-adv-x="1024">
<font-face units-per-em="1024" ascent="960" descent="-64" />
<missing-glyph horiz-adv-x="1024" />
<glyph unicode="&#x20;" horiz-adv-x="512" d="" />
<glyph unicode="&#xe5d3;" glyph-name="a14" d="M512 502.084c28.928 0 54.084-25.156 54.084-54.084s-25.156-54.084-54.084-54.084-54.084 25.156-54.084 54.084 25.156 54.084 54.084 54.084zM672.986 502.084c28.928 0 54.084-25.156 54.084-54.084s-25.156-54.084-54.084-54.084-54.084 25.156-54.084 54.084 25.156 54.084 54.084 54.084zM351.014 502.084c28.928 0 54.084-25.156 54.084-54.084s-25.156-54.084-54.084-54.084-54.084 25.156-54.084 54.084 25.156 54.084 54.084 54.084z" />
<glyph unicode="&#xe900;" horiz-adv-x="3403" d="M0.042 938.666v-767.969h429.165v767.969h-429.165zM429.18 938.666l248.459-271.067v-496.936l-248.459 271.067v496.936zM677.638 938.666v-767.969h429.165v767.969h-429.165z" />
<glyph unicode="&#xe901;" horiz-adv-x="3403" d="M429.18 441.712v-271.067l-428.589 0.468-0.594 767.519z" />
<glyph unicode="&#xe902;" horiz-adv-x="3403" d="M677.638 938.666l429.165-496.828v-271.175l-429.165 496.936z" />
<glyph unicode="&#xe903;" horiz-adv-x="3403" d="M2068.764 170.662h-349.675v767.969h337.219v-152.931h-134.661v-146.217h126.741v-146.217h-126.741v-169.689h147.099v-152.931zM2552.172 785.735h-118.838v-615.056h-202.558v615.056h-121.088v152.931h442.467v-152.931z" />
<glyph unicode="&#xe904;" horiz-adv-x="3403" d="M1646.457 350.396c0-67.735-17.73-114.608-53.191-140.637s-96.932-39.061-184.45-39.061h-234.239v767.969h238.775c73.945 0 128.811-15.822 164.667-47.431s53.767-80.93 53.767-147.891c0-55.081-5.292-91.532-15.858-109.406-12.834-21.582-43.003-37.567-90.524-47.989 47.521-11.178 79.58-28.837 96.176-53.029s24.912-61.219 24.912-111.080v-71.443zM1442.78 734.38c0 33.481-4.158 53.965-12.456 61.399s-26.011 11.178-53.191 11.178v-169.689h20.376c20.376 0 32.995 5.22 37.909 15.642s7.362 37.567 7.362 81.488zM1442.78 373.832v72.559c0 32.743-3.222 52.669-9.63 59.725s-25.075 10.62-56.017 10.62v-213.214c27.901 0 45.829 3.924 53.767 11.736s11.898 27.343 11.898 58.609z" />
<glyph unicode="&#xe905;" d="M545.338 317.657l-140.734 38.032-39.082 142.198 101.557 101.557 141.466-38.573 38.573-141.435-101.779-101.779zM967.573 514.882v0l-114.828-114.86-145.063 39.21-37.65 138.125 104.453 104.485 159.002-43.379 16.74 61.424-159.289 43.442-42.106 154.324-61.392-16.74 42.042-154.101-104.453-104.453-141.498 38.605-37.236 136.502 117.533 117.533-45.002 45.002-117.533-117.533-159.002 43.379-16.74-61.424 159.257-43.411 37.236-136.565-105.312-105.344-135.833 36.695-44.015 160.053-61.392-16.868 42.297-153.751-117.788-117.82 45.002-45.002 113.523 113.523 146.94-39.719 36.886-134.146-106.267-106.267-156.456 42.265-16.581-61.456 158.684-42.87 43.474-158.016 61.36 16.868-43.92 159.734 102.639 102.671 139.875-37.809 39.082-143.312-114.796-114.796 45.002-45.002 117.215 117.215 159.384-43.061 16.613 61.424-162.853 44.015-37.173 136.279 106.903 106.903 138.029-37.3 43.952-161.135 61.392 16.772-42.838 157.125 117.533 117.533-45.034 45.034z" />
<glyph unicode="&#xe906;" glyph-name="n21" d="M706.352 542.592c-9.161 22.495-22.6 42.683-39.973 59.999-17.361 17.31-37.608 30.697-60.2 39.812-21.796 8.81-44.83 13.283-68.459 13.283-23.636 0-46.67-4.467-68.459-13.283-22.574-9.121-42.832-22.522-60.2-39.812-25.433-25.348-42.618-57.477-49.705-92.926-0.246-1.232-0.48-2.489-0.707-3.741-0.045-0.182-0.071-0.357-0.097-0.545-0.194-1.083-0.37-2.178-0.532-3.28-0.071-0.37-0.117-0.758-0.169-1.122-0.143-0.947-0.272-1.9-0.408-2.84-0.071-0.532-0.143-1.057-0.214-1.601-0.103-0.849-0.201-1.673-0.292-2.502-0.071-0.661-0.143-1.31-0.208-1.99-0.019-0.071-0.019-0.117-0.019-0.194 0-0.019 0-0.045-0.006-0.046-1.621-16.078-1.109-32.266 1.511-48.31 3.041-18.548 8.836-36.24 17.244-52.738l-64.401-55.558c-0.246-0.22-0.48-0.435-0.707-0.667-4.46-4.447-6.6-10.729-5.874-17.258 0.609-5.471 3.177-10.729 7.254-14.788l53.945-54.268c0.019-0.019 0.033-0.033 0.045-0.045 4.084-4.084 9.374-6.652 14.866-7.255 0.836-0.097 1.66-0.143 2.477-0.143 5.634 0 10.924 2.113 14.814 5.997 0.208 0.214 0.408 0.434 0.609 0.635l57.328 64.992c32.266-16.233 68.531-22.438 104.375-17.984 0.071 0.019 0.143 0.019 0.22 0.032 1.459 0.194 2.943 0.383 4.408 0.609 0.194 0.033 0.408 0.071 0.583 0.097 0.609 0.097 1.232 0.194 1.847 0.292 0.596 0.097 1.186 0.194 1.776 0.292 0.479 0.097 0.947 0.169 1.413 0.246 1.024 0.194 2.036 0.37 3.067 0.583 0.331 0.071 0.667 0.143 0.998 0.201 1.122 0.22 2.237 0.461 3.351 0.707 0.019 0.006 0.019 0.006 0.020 0.019s0.019 0.006 0.019 0.006c33.497 7.527 64.103 24.344 88.498 48.655 17.361 17.31 30.814 37.49 39.973 59.999 8.842 21.712 13.31 44.674 13.31 68.213s-4.48 46.496-13.31 68.213v0h-0.006zM461.893 340.261c-0.635 0.344-1.271 0.707-1.9 1.083-5.271 3.079-11.942 2.314-16.37-1.873l-2.69-2.528c-0.311-0.292-0.609-0.609-0.895-0.921l-57.801-65.542-48.065 48.336 65.652 56.642c0.072 0.071 0.143 0.129 0.22 0.194l2.036 1.822c4.843 4.37 5.951 11.527 2.612 17.148-11.656 19.663-18.652 41.555-20.758 64.149l139.298-137.685c-21.407 1.996-42.307 8.447-61.341 19.151v0l-0.006-0.006zM636.627 448.635c-21.407 0-38.749 17.284-38.749 38.631 0 21.323 17.361 38.631 38.749 38.631s38.749-17.284 38.749-38.631c-0.006-21.323-17.361-38.631-38.749-38.631v0 0z" />
<glyph unicode="&#xe907;" glyph-name="n24" horiz-adv-x="1010" d="M471.369 512.952c-21.187 17.803-90.915 76.162-90.915 76.162-10.122 8.508-24.041 12.037-37.521 11.040-13.676-0.991-26.881-6.573-35.434-16.228-16.996-19.213-16.701-52.456 5.503-71.112 0 0 69.728-58.367 90.915-76.13 91.158-76.524 130.049-80.879 178.198-110.187l31.446 35.539c-39.783 42.138-55.598 78.229-142.211 150.909zM696.84 298.198c-2.375-0.183-4.696-0.853-6.795-1.961-10.928 6.992-54.824 44.487-60.105 49.472l-28.448-32.141c5.858-4.264 50.063-41.509 58.787-50.988-2.283-6.127-0.695-13.217 4.671-17.75 3.345-2.807 7.694-4.204 12.083-3.87 4.238 0.309 8.357 2.197 11.329 5.576l22.132 24.992c5.963 6.783 5.182 16.989-1.745 22.841-3.443 2.879-7.733 4.106-11.925 3.818v0zM704.497 599.84c-39.291-4.867-69.911-38.085-69.911-78.675 0-21.882 8.901-41.745 23.24-56.136 6.232 3.188 12.246 6.809 17.776 11.25 18.61 14.969 31.565 36.117 36.432 59.547 4.552 21.903 1.646 44.041-7.543 64.015h0.006zM555.994 569.922v0.006c0-27.038-13.605-50.883-34.228-65.268-13.080 22.197-17.724 47.924-12.424 73.336 3.686 17.724 12.011 34.097 23.89 47.53 14.024-14.365 22.768-33.966 22.768-55.586zM533.246 488.787c25.543 17.986 42.374 47.583 42.395 81.141 0 26.75-10.757 50.967-28.035 68.836 18.065 13.893 40.288 21.672 62.972 21.672 7.124 0.006 14.234-0.748 21.2-2.223 25.097-5.208 46.664-19.548 61.798-40.020-44.828-9.551-78.596-49.393-78.596-97.042 0-24.283 9.105-46.297 23.654-63.569-9.079-2.538-18.4-4.211-27.878-4.211-7.071 0-14.182 0.755-21.174 2.197-22.244 4.605-41.64 16.438-56.346 33.237z" />
<glyph unicode="&#xe908;" d="M63.652 450.817c0 38.414 4.965 77.146 15.181 115.274 41.215 153.783 161.294 273.862 315.077 315.077 38.096 10.216 76.86 15.181 115.274 15.181 116.642 0 230.452-45.829 315.109-130.518 84.657-84.657 130.486-198.435 130.486-315.077 0-38.446-4.965-77.178-15.181-115.305-41.183-153.751-161.294-273.862-315.077-315.045-38.096-10.216-76.828-15.181-115.274-15.181-116.642 0-230.42 45.829-315.077 130.486-84.689 84.657-130.518 198.467-130.518 315.109v0zM641.006-41.085c175.743 47.102 312.976 184.336 360.079 360.079 11.648 43.538 17.345 87.84 17.345 131.759 0.032 133.287-52.386 263.328-149.136 360.111-96.751 96.751-226.824 149.136-360.111 149.136-43.92 0-88.222-5.697-131.759-17.345-175.743-47.102-312.976-184.368-360.079-360.079-11.648-43.538-17.345-87.84-17.345-131.759 0-133.287 52.386-263.36 149.136-360.111s226.824-149.168 360.111-149.136c43.92 0 88.222 5.665 131.759 17.345v0z" />
<glyph unicode="&#xe909;" horiz-adv-x="1015" d="M973.87 446.346c-114.265-7.858-217.896-54.087-298.774-125.499l-126.667 126.698 312.217 312.249c12.338 12.307 12.338 32.282 0 44.621-12.307 12.307-32.282 12.307-44.621 0l-312.249-312.249-126.667 126.698c71.412 80.879 117.642 184.478 125.499 298.743 1.168 17.387-11.96 32.471-29.347 33.639-17.387 1.199-32.44-11.928-33.639-29.316-6.69-98.487-46.104-188.075-107.165-258.446l-140.899 140.93c-12.338 12.307-32.314 12.307-44.621 0-12.338-12.338-12.338-32.314 0-44.621l140.899-140.93c-70.37-61.030-159.959-100.444-258.446-107.165-17.387-1.199-30.515-16.251-29.316-33.639s16.251-30.515 33.639-29.316c114.265 7.858 217.896 54.087 298.774 125.499l126.667-126.698-312.217-312.249c-12.338-12.307-12.338-32.282 0-44.621 12.307-12.307 32.282-12.307 44.621 0l312.217 312.249 126.698-126.698c-71.412-80.879-117.642-184.478-125.499-298.743-1.199-17.387 11.928-32.471 29.316-33.639 17.387-1.199 32.471 11.928 33.639 29.316 6.721 98.455 46.135 188.075 107.197 258.446l140.899-140.93c12.338-12.307 32.314-12.307 44.621 0 12.338 12.338 12.338 32.314 0 44.621l-140.899 140.93c70.37 61.030 159.959 100.444 258.414 107.165 17.387 1.199 30.515 16.251 29.347 33.639-1.199 17.387-16.251 30.515-33.639 29.316z" />
<glyph unicode="&#xe90a;" glyph-name="m1" horiz-adv-x="698" d="M360.727 924.849h153.455v-895.273l16.727-22.545 163.636-7.273v-85.091h-631.273v86.545l172.364 8.727 18.182 25.455v693.818l-19.636 16.727-213.091-28.364v89.455z" />
<glyph unicode="&#xe90b;" glyph-name="m2" horiz-adv-x="815" d="M241.455 100.849h409.455l26.909 133.818h117.818v-320h-781.818v143.273c172.607 122.667 295.151 227.515 367.636 314.545s108.727 171.272 108.727 252.727c0 61.576-16.848 109.212-50.545 142.909s-81.333 50.545-142.909 50.545c-7.758 0-13.818-0.121-18.182-0.364s-8.242-0.606-11.636-1.091v-224.727c-24.243-10.667-46.545-18.545-66.909-23.636s-39.273-7.636-56.727-7.636c-41.212 0-74.182 11.273-98.909 33.818s-37.091 52.485-37.091 89.818c0 73.212 34.788 132.969 104.364 179.273s160.606 69.455 273.091 69.455c117.334 0 209.939-26.788 277.818-80.364s101.818-126.181 101.818-217.818c0-91.637-42.303-180.848-126.909-267.636s-216.605-175.757-396-266.909z" />
<glyph unicode="&#xe90c;" glyph-name="m0" horiz-adv-x="842" d="M421.689 837.689c-48.83 0-84.978-33.54-108.444-100.622s-35.2-170.073-35.2-308.978c0-143.645 11.496-248.177 34.489-313.6s59.378-98.133 109.156-98.133c50.726 0 87.704 32.711 110.933 98.133s34.844 169.955 34.844 313.6c0 141.749-11.733 245.452-35.2 311.111s-60.326 98.489-110.578 98.489zM420.267 932.267c128.001 0 228.977-45.037 302.933-135.111s110.933-213.57 110.933-370.489c0-156.919-36.977-280.651-110.933-371.2s-174.933-135.822-302.933-135.822c-126.104 0-225.54 45.155-298.311 135.467s-109.156 214.162-109.156 371.556c0 156.919 36.266 280.414 108.8 370.489s172.088 135.111 298.667 135.111z" />
<glyph unicode="&#xe90d;" horiz-adv-x="1015" d="M817.023 142.851c-80.121-80.058-185.582-129.538-311.807-129.538s-232.569 49.48-312.691 129.538c-80.058 80.121-129.728 190.379-129.759 312.249 0.032 121.87 49.386 232.128 129.444 312.249 80.121 80.058 190.316 129.538 312.186 129.538s232.096-49.48 312.217-129.538c80.058-80.121 129.507-190.379 129.538-312.249-0.032-121.87-49.070-232.128-129.128-312.249v0zM504.553 960c-278.484-0.063-504.49-226.384-504.553-504.9 0.063-278.515 221.209-504.837 505.215-504.9 284.006 0.063 504.395 226.384 504.458 504.9-0.063 278.515-226.605 504.837-505.121 504.9v0z" />
<glyph unicode="&#xe90e;" d="M571.882 888.581c0 11.044-0.35 21.992-1.050 32.876-1.114 17.536-16.231 30.839-33.767 29.725-17.568-1.114-30.871-16.263-29.725-33.799 0.605-9.516 0.891-19.127 0.891-28.802 0-122.912-49.903-234.112-130.646-314.918-80.806-80.742-192.006-130.646-314.918-130.646-9.675 0-19.287 0.318-28.802 0.923-17.536 1.114-32.653-12.189-33.799-29.725-1.114-17.536 12.189-32.685 29.757-33.799 10.853-0.7 21.833-1.050 32.844-1.050 280.896 0.064 509.183 228.319 509.215 509.215z" />
<glyph unicode="&#xe90f;" glyph-name="n35" horiz-adv-x="878" d="M501.992 448.35h-45.592v-14.297l48.746 0.247-10.086 9.073zM360.613 485.473h61.487v-13.181h-61.487v13.181zM360.613 519.040h61.487v-13.181h-61.487v13.181zM456.406 519.040h62.032v-13.181h-62.032zM456.406 485.473h62.032v-13.181h-62.032zM439 655.687l-178.035-49.078v-196.375c0-115.198 178.035-169.909 178.035-169.909s178.035 53.237 178.035 169.909v196.375l-178.035 49.078zM335.043 336.358l-31.542 15.115c9.229 17.238 17.147 35.5 23.663 54.763l33.754-12.681c-9.073-23.273-17.699-42.335-25.87-57.197zM498.722 341.473c-6.866-6.335-17.756-9.488-32.495-9.488h-57.418c-26.48 0-39.725 11.818-39.725 35.5v35.5h35.91v-26.161c0-9.177 4.816-13.746 14.447-13.746h35.357c5.821 0 10.89 0.817 15.251 2.376 4.362 1.623 7.126 4.258 8.372 7.905 1.207 3.647 2.816 11.87 4.712 24.643 7.275-4.407 18.601-9.885 34.001-16.524-5.361-20.334-11.487-33.715-18.405-40.005zM544.314 341.317c-10.326 19.068-20.314 35.5-29.945 49.233l23.526 12.681-8.125 7.957-77.283-1.519c5.821-6.892 11.131-13.642 15.901-20.236l-27.226-19.275c-7.275 11-15.492 22.468-24.779 34.378l6.918 4.562-116.054-1.214-1.908 27.79c35.208-0.921 74.123-1.467 116.756-1.674v14.297h-95.235v94.664h95.235v12.934h-111.538v27.531h111.59v16.783h34.306v-16.783h111.032v-27.531h-111.084v-12.934h95.786v-94.664h-25.025c15.953-11.915 31.743-24.286 47.338-37.162l-22.721-16.783c8.269-11.202 15.901-22.669 23.014-34.378l-30.49-18.653z" />
<glyph unicode="&#xe910;" d="M979.698 512.591c-10.853 0.7-21.833 1.050-32.876 1.050-280.864-0.064-509.152-228.319-509.215-509.215 0-11.044 0.382-21.992 1.050-32.876 1.146-17.536 16.263-30.839 33.799-29.725 17.568 1.114 30.871 16.263 29.725 33.799-0.605 9.516-0.923 19.127-0.923 28.802 0.032 122.912 49.935 234.112 130.677 314.918 80.774 80.742 192.006 130.646 314.886 130.646 9.707 0 19.287-0.318 28.834-0.923 17.536-1.114 32.653 12.189 33.767 29.725 1.146 17.536-12.158 32.685-29.725 33.799z" />
<glyph unicode="&#xe911;" glyph-name="n9" d="M458.032 596.604c-0.635-0.793-1.337 4.665-1.949 3.853-8.745 17.16-26.273 28.88-46.512 28.88-28.966 0-52.474-24.006-52.474-53.63 0-12.531 2.063-17.246 2.063-17.246l9.203-25.067c29.397-13.17 66.937-22.351 108.738-25.702l-19.064 88.926zM512.37 506.278c6.297 0 12.513 0.159 18.679 0.408l21.984 108.987c-11.488 8.541-25.566 13.669-40.872 13.669-15.546 0-29.805-5.304-41.416-14.077l21.875-108.534c6.501-0.295 13.075-0.453 19.717-0.453zM504.006 378.924l-22.687 113.521c-37.245 2.516-71.702 9.475-101.189 19.808l61.909-126.805c21.535-4.035 37.739-6.46 62.113-6.891-0.045 0.136-0.113 0.227-0.136 0.363zM496.819 491.652l15.029-92.077 15.002 92.032c-4.801-0.159-9.634-0.249-14.485-0.249-5.236 0-10.4 0.113-15.546 0.295zM614.438 629.338c-20.148 0-37.603-11.606-46.403-28.626-0.703 0.952-4.647-14.934-6.483-22.011l-14.984-71.090c41.593 3.219 79.047 12.218 108.484 25.203l9.040 25.661c1.791 5.413 2.811 11.198 2.811 17.246 0 29.628-23.48 53.63-52.474 53.63zM447.151 368.972c-3.173-8.156-4.964-21.508-4.964-30.807 0-39.489 31.328-71.516 69.952-71.516s69.952 32.004 69.952 71.516c0 9.543-1.859 22.483-5.191 30.807h-129.752zM519.664 378.924c-0.023-0.136-0.113-0.249-0.136-0.385 24.346 0.385 39.308 2.743 60.866 6.705l62.97 126.533c-29.51-10.196-63.904-17.024-101.026-19.445l-22.664-113.426z" />
<glyph unicode="&#xe912;" d="M193.852 765.703c80.806 80.742 191.942 130.646 314.854 130.646s234.080-49.903 314.886-130.646c80.742-80.806 130.614-192.006 130.646-314.918-0.032-122.912-49.489-234.112-130.232-314.918-80.806-80.742-187.168-130.646-314.472-130.646s-234.557 49.903-315.363 130.646c-80.742 80.806-130.836 192.006-130.868 314.918 0.032 122.912 49.808 234.112 130.55 314.918v0zM509.533-58.43c286.434 0.064 508.706 228.319 508.77 509.215-0.064 280.896-228.542 509.152-509.438 509.215-280.864-0.064-508.833-228.319-508.865-509.215 0.032-280.896 223.1-509.152 509.533-509.215v0z" />
<glyph unicode="&#xe913;" glyph-name="n3" d="M366.737 298.766h308.182v-8.014h-312.191v8.014h4.009zM337.843 477.975v-30.418h-32.9v-107.204h-32.9v107.204h-32.084v30.418h97.917zM521.626 477.975c17.652 0 32.084-6.417 44.138-19.218s17.652-29.606 17.652-49.601c0-19.995-5.637-36.8-17.652-49.601s-26.482-19.218-44.138-19.218h-54.561v137.622h54.561zM540.874 381.159c6.417 7.195 9.642 16.805 9.642 28.009 0 12.019-3.19 20.81-9.642 28.009s-14.428 10.384-24.885 10.384h-16.063v-76.825h16.063c10.423 0 18.471 3.19 24.885 10.384zM397.224 339.572c-10.423 0-19.249 1.593-26.482 6.417-8.014 3.19-14.428 8.792-20.88 15.209-12.054 13.616-18.471 29.606-18.471 48.004 0 22.407 6.417 39.99 20.068 53.606 12.831 13.616 28.078 19.995 46.546 19.995s34.492-7.195 47.362-21.588c12.054-14.394 18.471-30.418 18.471-50.413s-5.637-36.8-18.471-50.413c-12.831-14.394-28.89-20.81-48.143-20.81zM363.509 410.761c0-10.384 3.19-19.995 8.826-26.412 6.417-8.014 15.244-12.019 24.885-12.019 10.423 0 18.471 4.009 24.885 12.797 5.637 7.195 8.014 15.986 8.014 25.593s-2.412 18.402-8.014 25.593c-6.417 8.792-14.428 12.797-24.885 12.797s-18.471-4.009-24.885-12.019c-5.637-8.014-8.826-15.986-8.826-26.412zM750.325 477.975h33.715l-48.143-88.806v-48.816h-32.9v48.816l-47.362 88.806h32.9l31.303-61.616 30.487 61.616zM632.374 479.606l67.43-139.219h-34.492l-8.014 17.621h-48.143l-8.014-17.621h-34.492l65.799 139.219zM621.917 389.169h20.88l-10.423 23.185-10.423-23.185zM518.398 596.422l-139.646-84.801h-16.063l155.705 93.627 154.89-93.627h-15.244l-139.646 84.801z" />
<glyph unicode="&#xe914;" glyph-name="n40" d="M512 480c17.728 0 32-14.272 32-32s-14.272-32-32-32-32 14.272-32 32 14.272 32 32 32z" />
<glyph unicode="&#xe915;" d="M582.030 516.475c-22.79 123.546-224.877 8.551-188.73-109.312 35.589-116.147 141.187-137.503 141.187-137.503l98.205 48.383c0 0 34.155 28.185 27.903 118.709-6.553 90.53-72.013 61.212-86.528 44.422 9.391 13.957 11.113 18.506 7.957 35.307v0z" />
<glyph unicode="&#xe916;" glyph-name="n10" d="M608.757 613.784c-0.155 0.107-0.335 0.179-0.491 0.281-7.782 4.53-15.923 8.52-24.37 11.932-0.563 0.233-1.127 0.437-1.691 0.665-4.073 1.613-8.19 3.101-12.394 4.428-0.029 0.029-0.077 0.029-0.107 0.053-4.151 1.307-8.37 2.435-12.646 3.456-0.875 0.209-1.745 0.413-2.639 0.617-4.121 0.923-8.292 1.769-12.52 2.435-0.131 0.029-0.257 0.053-0.413 0.077-4.301 0.665-8.627 1.152-13.006 1.511-1.049 0.077-2.099 0.155-3.149 0.233-4.403 0.311-8.832 0.515-13.307 0.515-4.938 0-9.779-0.233-14.615-0.617-0.923-0.053-1.847-0.131-2.741-0.209-4.656-0.437-9.264-1.001-13.823-1.745-0.797-0.131-1.613-0.281-2.411-0.437-4.656-0.821-9.264-1.745-13.769-2.921-0.077 0-0.155-0.029-0.233-0.029-4.68-1.205-9.264-2.615-13.793-4.151-0.641-0.233-1.283-0.437-1.949-0.641-4.476-1.565-8.904-3.281-13.235-5.171-0.311-0.131-0.617-0.281-0.923-0.437-9.162-4.049-17.915-8.778-26.26-14.153-0.077-0.053-0.155-0.107-0.209-0.131-52.939-34.197-88.036-93.66-88.036-161.369 0-106.025 85.958-191.963 191.988-191.963s191.963 85.934 191.963 191.963c0 70.751-38.295 132.523-95.25 165.83zM595.215 517.122c-21.832 19.043-30.26 45.080-18.863 58.182s38.374 8.268 60.204-10.756c21.808-19.043 30.26-45.080 18.863-58.182s-38.374-8.292-60.204 10.726z" />
<glyph unicode="&#xe917;" glyph-name="n2" d="M451.187 562.098c0 0.111 0 0.215 0 0.326 0.021 0 0.066 0 0.087 0v-228.551c-0.021 0-0.066 0-0.087 0-0.236-9.775-8.172-17.624-17.909-17.624-9.709 0-17.603 7.783-17.909 17.513-0.021 0-0.066 0-0.087 0v228.315c0.021 0 0.045 0 0.066 0.021v0c0 9.99 8.019 18.103 17.909 18.103s17.926-8.106 17.926-18.103zM654.425 427.348h-17.475v-67.96h17.513v-0.111h3.293c6.631-0.632 12.381-4.292 15.893-9.581 2.301-3.47 3.623-7.606 3.623-12.096s-1.343-8.63-3.623-12.096c-3.425-5.181-8.994-8.783-15.41-9.539-0.826-0.087-1.669-0.149-2.533-0.149s-1.69 0.066-2.495 0.149h-52.397v264.014h56.946c6.631-0.632 12.381-4.292 15.893-9.581 2.301-3.47 3.623-7.606 3.623-12.096s-1.343-8.63-3.623-12.096c-3.859-5.833-10.469-9.886-17.95-9.886-0.413 0-0.843-0.021-1.256 0h-17.513v-65.642h15.91c0.26 0.045 0.52 0.066 0.802 0.087h4.098c0.26-0.021 0.496-0.066 0.76-0.087 6.308-0.826 11.749-4.4 15.129-9.494 2.301-3.47 3.623-7.606 3.623-12.096s-1.343-8.63-3.623-12.096c-3.64-5.486-9.688-9.213-16.604-9.647-0.43-0.021-0.892-0.045-1.326-0.045s-0.864 0.021-1.277 0.045zM391.593 359.714c6.631-0.632 12.381-4.292 15.893-9.581 2.301-3.47 3.623-7.606 3.623-12.096s-1.343-8.63-3.623-12.096c-3.859-5.833-10.469-9.688-17.95-9.688l-42.813-0.087v245.745c0 9.99 8.019 18.103 17.926 18.103s17.926-8.106 17.926-18.103l0.149-202.169h4.792c0.673 0.066 1.367 0.111 2.037 0.111s1.367-0.045 2.037-0.111zM574.282 580.201c10.969 0 19.859-8.977 19.859-20.053 0-0.632-0.021-1.239-0.087-1.843-0.215-2.384-0.843-4.639-1.801-6.718l-52.567-195.166c2.842-1.669 5.271-3.987 7.114-6.742 2.301-3.47 3.623-7.606 3.623-12.096s-1.343-8.63-3.623-12.096c-3.859-5.833-10.469-9.688-17.95-9.688-11.923 0-21.569 9.758-21.569 21.788 0 8.040 4.317 15.046 10.712 18.818l-52.591 195.277c-0.93 2.016-1.537 4.202-1.756 6.527-0.066 0.632-0.087 1.277-0.087 1.929 0 11.080 8.89 20.053 19.859 20.053 9.237 0 16.996-6.371 19.21-14.98 0.111-0.413 0.198-0.843 0.281-1.277l25.945-117.866 25.754 117.626c0.066 0 0.111 0 0.173 0 1.669 9.362 9.775 16.5 19.529 16.5z" />
<glyph unicode="&#xe918;" glyph-name="n7" d="M507.888 291.016c-4.352 0.639-7.227 1.069-9.016-0.725-0.589-0.589-1.472-1.907-0.906-4.080 0.68-2.559 3.039-5.14 6.634-7.25 3.555-2.088 8.767-3.718 14.568-4.080 0.363-1.789 0.68-3.582 1.001-5.366-49.116-2.627-99.093 14.568-136.517 51.992-35.453 35.453-52.852 82.17-52.376 128.746 4.963-0.657 9.877-1.427 14.722-2.423-1.359-2.355-2.853-4.488-4.121-6.272-2.604-3.668-4.329-6.068-3.374-8.54 0.34-0.888 1.178-2.038 3.125-2.473 3.872-0.861 9.583 1.721 14.5 6.634 2.133 2.133 3.922 4.551 5.416 7.132 8.631-2.405 16.945-5.461 25.074-8.835-0.956-1.092-1.884-2.088-2.74-2.971l-4.488-4.329c-1.771-1.744-3.442-3.65-3.016-5.914 0.159-0.906 0.775-2.201 2.604-2.989 4.918-2.156 13.975 1.359 20.596 7.997 0.544 0.521 0.929 1.155 1.454 1.721 7.974-3.985 15.605-8.518 22.996-13.409-2.133-1.658-4.257-3.125-6.118-4.329-2.061-1.341-3.718-2.382-4.782-3.442-1.137-1.137-1.658-2.355-1.54-3.605 0.091-0.843 0.503-2.061 1.97-3.057 4.533-3.125 15.039-1.341 23.539 5.212 7.019-5.416 13.658-11.308 19.98-17.511-2.423-1.223-4.85-2.224-6.883-3.016-2.948-1.155-5.054-1.993-6.299-3.238-1.703-1.703-1.658-4.080 0.136-5.846 1.857-1.907 5.167-2.971 9.356-2.989 4.103-0.023 9.424 1.155 14.609 3.718 5.914-6.684 11.353-13.753 16.42-21.094-2.654-0.752-5.212-1.246-7.381-1.658-3.668-0.68-6.095-1.137-7.499-2.536-1.092-1.092-1.744-3.057-0.295-5.185 1.454-2.224 4.506-3.899 8.586-4.755 4.053-0.82 9.542-0.657 15.157 0.888 4.533-7.68 8.563-15.632 12.141-23.856-2.79-0.227-5.434-0.227-7.653-0.227-4.257 0.023-6.842 0.068-8.45-1.567-0.544-0.544-1.721-2.088-0.707-4.551s3.691-4.687 7.567-6.272c3.831-1.59 9.266-2.491 15.107-2.020 1.676-4.755 3.057-9.61 4.438-14.473-2.767 0.159-5.366 0.503-7.567 0.843zM637.376 321.504c-27.665-27.665-62.185-44.198-98.114-49.977-0.453 2.604-0.956 5.167-1.472 7.748 2.876 1.703 5.185 3.605 6.842 5.235 5.303 5.303 8.133 11.643 7.046 15.768-0.521 1.97-1.703 2.767-2.604 3.057-2.491 0.861-4.85-0.974-8.4-3.736-1.884-1.454-4.080-3.17-6.634-4.737-1.59 5.683-3.374 11.281-5.348 16.805 1.001 0.793 2.020 1.522 2.921 2.423 6.634 6.634 10.063 15.356 7.974 20.297-0.775 1.857-2.038 2.473-2.971 2.627-2.31 0.453-4.234-1.273-6.367-3.374l-3.238-3.306c-1.223-1.205-2.672-2.536-4.234-3.854-4.035 9.22-8.608 18.169-13.726 26.777 7.313 8.563 9.56 19.799 6.385 24.508-1.001 1.495-2.224 1.907-3.057 1.993-1.273 0.113-2.518-0.408-3.668-1.567-1.069-1.069-2.106-2.672-3.442-4.687s-3.016-4.397-4.936-6.729c-5.683 8.246-11.847 16.153-18.513 23.625 5.665 9.927 5.665 21.298 1.635 25.323-0.929 0.929-1.952 1.404-3.039 1.386-0.725 0-1.816-0.204-2.835-1.246-1.223-1.223-2.088-3.333-3.265-6.231-0.906-2.269-2.038-4.936-3.514-7.653-7.159 7.064-14.749 13.685-22.747 19.826 2.020 6.027 2.269 12.028 1.427 16.402-0.775 4.148-2.423 7.227-4.619 8.722-2.174 1.472-4.121 0.843-5.235-0.272-1.404-1.404-1.884-3.786-2.604-7.449-0.476-2.382-1.042-5.212-1.97-8.133-8.332 5.552-17.054 10.629-26.12 15.134 0.82 6.272-0.091 12.168-1.721 16.289-1.567 3.922-3.786 6.661-6.231 7.698s-4.035-0.113-4.574-0.657c-1.608-1.608-1.608-4.171-1.635-8.4 0-2.423-0.023-5.303-0.363-8.314-9.243 3.854-18.735 7.182-28.521 9.859-0.408 6.317-2.423 11.942-4.823 15.655-2.269 3.537-4.963 5.778-7.567 6.344-2.106 0.453-3.356-0.435-3.922-0.974-1.839-1.857-1.291-4.755-0.453-9.13 0.453-2.382 0.974-5.212 1.223-8.219-5.846 1.205-11.761 2.224-17.761 2.971 4.533 38.696 21.479 76.188 51.086 105.795 28.344 28.322 63.889 44.991 100.791 50.357 0.295-2.518 0.521-5.004 0.888-7.517 0.521-3.555 1.137-7.087 1.816-10.606-2.921 0.272-5.665 0.843-7.974 1.291-4.397 0.906-7.313 1.472-9.175-0.385-0.544-0.544-1.404-1.789-0.974-3.872 1.155-5.552 10.443-11.779 21.678-12.644 2.536-9.764 5.683-19.328 9.406-28.616-2.903-0.272-5.638-0.272-7.947-0.249-4.284 0.023-6.842 0.045-8.468-1.567-0.544-0.544-1.721-2.088-0.68-4.574 1.427-3.419 6.181-6.412 12.44-7.766 2.423-0.544 6.453-0.974 11.104-0.503 4.37-9.084 9.311-17.874 14.79-26.342-2.767-0.82-5.434-1.341-7.725-1.744-3.668-0.707-6.095-1.155-7.517-2.559-1.092-1.092-1.744-3.039-0.295-5.212 1.472-2.224 4.551-3.872 8.676-4.714 4.257-0.861 10.063-0.68 15.972 1.11 6.027-8.065 12.594-15.723 19.645-23.041-2.586-1.341-5.117-2.355-7.295-3.22-2.948-1.155-5.054-2.020-6.317-3.265-1.703-1.703-1.658-4.053 0.136-5.869 1.857-1.884 5.212-2.948 9.406-2.971 4.352-0.023 10.040 1.273 15.496 4.171 5.819-5.28 11.919-10.312 18.282-15.039 1.744-1.291 3.537-2.518 5.303-3.759-2.269-1.789-4.506-3.374-6.48-4.619-2.061-1.341-3.718-2.382-4.782-3.442-1.137-1.137-1.658-2.355-1.54-3.623 0.068-0.843 0.476-2.061 1.97-3.084 4.687-3.22 15.673-1.155 24.309 5.869 8.631-5.28 17.557-9.927 26.664-14.025-1.024-1.178-2.038-2.287-2.989-3.238l-4.37-4.257c-1.789-1.771-3.487-3.718-3.057-5.955 0.181-0.929 0.793-2.201 2.627-2.989 4.936-2.156 14.002 1.386 20.614 8.015 0.725 0.725 1.291 1.567 1.952 2.337 9.492-3.514 19.165-6.412 29.001-8.699-1.404-2.473-2.971-4.687-4.284-6.548-2.604-3.668-4.329-6.068-3.374-8.54 0.34-0.888 1.178-2.038 3.125-2.45 3.899-0.888 9.61 1.744 14.523 6.661 2.31 2.287 4.257 4.936 5.819 7.766 0.657-0.113 1.291-0.227 1.925-0.34-6.435-34.276-22.837-67.013-49.297-93.473zM689.12 433.78c-0.204 0.023-0.385 0.091-0.589 0.113-0.521 6-2.45 11.326-4.755 14.903-2.269 3.487-4.918 5.706-7.476 6.249-2.133 0.476-3.374-0.408-3.94-0.974-1.839-1.857-1.291-4.737-0.476-9.152 0.435-2.287 0.956-5.004 1.205-7.929-8.722 2.020-17.303 4.488-25.735 7.585 0.612 6-0.249 11.602-1.816 15.537-1.567 3.854-3.736 6.548-6.163 7.567-2.491 1.092-4.053-0.113-4.619-0.657-1.608-1.608-1.635-4.189-1.658-8.427 0-2.337-0.023-5.072-0.34-7.947-8.133 3.65-16.103 7.68-23.788 12.327 1.721 5.751 1.952 11.394 1.155 15.537-0.775 4.103-2.423 7.159-4.574 8.608-2.201 1.495-4.171 0.861-5.28-0.272-1.404-1.404-1.907-3.831-2.604-7.476-0.453-2.242-1.001-4.868-1.816-7.585-1.567 1.11-3.238 2.061-4.8 3.22-5.62 4.189-10.991 8.631-16.13 13.255 5.167 9.696 5.031 20.528 1.137 24.395-0.929 0.956-1.952 1.427-3.084 1.427-0.725 0-1.816-0.204-2.853-1.246-1.246-1.246-2.106-3.333-3.288-6.231-0.888-2.156-1.925-4.714-3.306-7.295-6.204 6.435-12.010 13.21-17.353 20.324 6.842 8.468 8.88 19.215 5.819 23.761-1.024 1.522-2.224 1.952-3.084 2.020-1.291 0.136-2.518-0.385-3.668-1.567-1.069-1.069-2.106-2.654-3.419-4.687-1.291-1.952-2.921-4.234-4.737-6.48-4.85 7.499-9.22 15.27-13.119 23.29 0.752 0.657 1.59 1.205 2.287 1.907 6.616 6.593 10.063 15.315 7.974 20.211-0.775 1.884-2.061 2.473-2.989 2.654-2.337 0.453-4.284-1.273-6.435-3.401l-3.152-3.22c-1.223-1.223-2.604-2.473-4.053-3.718-3.288 8.219-6.068 16.696-8.359 25.35 2.767 1.54 5.321 3.442 7.567 5.683 4.868 4.85 7.381 10.289 6.566 14.115-0.408 1.993-1.567 2.853-2.45 3.193-2.45 0.974-4.895-0.725-8.586-3.265-1.907-1.341-4.148-2.876-6.661-4.284-0.589 3.152-1.155 6.299-1.635 9.492-0.317 2.174-0.521 4.352-0.775 6.498 48.342 1.925 97.299-15.315 134.090-52.105 38.674-38.674 55.846-90.734 51.765-141.407z" />
<glyph unicode="&#xe919;" glyph-name="n25" horiz-adv-x="1010" d="M403.682 278.993c3.013-2.188 4.482-5.92 3.794-9.589s-3.45-6.588-7.063-7.513l-52.994-13.608c-0.788-0.206-1.588-0.306-2.388-0.306-2.45 0-4.832 0.938-6.663 2.675-2.406 2.306-3.444 5.688-2.763 8.938l9.588 45.236c0.681 3.188 2.913 5.813 5.963 6.988s6.469 0.713 9.114-1.213l43.417-31.622zM649.698 304.822l9.588-45.236c0.688-3.263-0.356-6.638-2.763-8.938-1.813-1.738-4.219-2.675-6.663-2.675-0.788 0-1.6 0.094-2.388 0.306l-52.994 13.608c-3.619 0.931-6.363 3.851-7.063 7.513s0.769 7.388 3.794 9.589l43.417 31.622c2.638 1.913 6.063 2.369 9.114 1.213s5.282-3.794 5.963-6.988zM647.453 513.145l22.652 19.090c9.639-23.034 14.527-47.487 14.527-72.665 0-25.44-4.982-50.118-14.814-73.364-9.489-22.434-23.078-42.592-40.38-59.894s-37.46-30.897-59.894-40.38c-23.234-9.839-47.924-14.814-73.364-14.814s-50.118 4.982-73.364 14.814c-22.434 9.489-42.592 23.078-59.894 40.38s-30.897 37.46-40.38 59.894c-9.839 23.234-14.814 47.924-14.814 73.364s4.982 50.118 14.814 73.364c9.489 22.434 23.078 42.592 40.38 59.894s37.46 30.897 59.894 40.38c23.234 9.839 47.924 14.814 73.364 14.814s50.118-4.982 73.364-14.814c8.788-3.719 17.214-8.063 25.265-13.020l-22.684-19.29c-22.609 12.207-48.487 19.14-75.94 19.14-88.479 0-160.48-71.995-160.48-160.48s71.995-160.48 160.48-160.48c88.485 0 160.48 71.995 160.48 160.48 0 18.789-3.238 36.817-9.195 53.575zM496.168 576.864c15.614 0 30.747-3.032 44.749-8.813-0.244-1.413-0.363-2.85-0.338-4.319l0.113-18.765-5.838-4.907c-11.714 5.663-24.84 8.826-38.692 8.826-49.237 0-89.322-40.061-89.322-89.322s40.061-89.322 89.322-89.322c49.249 0 89.322 40.061 89.322 89.322 0 9.364-1.45 18.39-4.144 26.865l5.126 4.35 18.69-2.688c1.538-0.288 3.063-0.437 4.532-0.437 0.006 0 0 0 0.006 0 0.137 0 0.263 0.013 0.388 0.013 2.225-9.088 3.375-18.515 3.375-28.109 0-31.335-12.207-60.794-34.366-82.947s-51.618-34.366-82.947-34.366c-31.335 0-60.794 12.207-82.947 34.366s-34.366 51.618-34.366 82.947c0 31.335 12.207 60.794 34.366 82.947s51.618 34.366 82.947 34.366zM698.509 594.516c0.838-2.938-0.137-6.094-2.463-8.064l-85.341-72.27c-1.713-1.463-3.994-2.088-6.213-1.763l-25.59 3.919-48.524-41.079c2.194-4.782 3.444-10.089 3.444-15.689 0-20.783-16.839-37.617-37.617-37.617s-37.617 16.839-37.617 37.617c0 20.783 16.839 37.617 37.617 37.617 6.463 0 12.57-1.638 17.871-4.507l49.412 41.849 0.344 25.89c0.038 2.257 1.038 4.394 2.763 5.838l85.341 72.27c2.332 1.963 5.588 2.407 8.357 1.112s4.507-4.094 4.475-7.138l-0.331-28.21 27.741-4.194c3.013-0.463 5.494-2.638 6.338-5.588z" />
<glyph unicode="&#xe91a;" glyph-name="n6" d="M321.146 469.276c40.35-1.662 80.178 11.184 111.594 38.502l-65.97 65.97c-26.322-30.336-41.424-66.924-45.618-104.472v0zM451.934 527.416c25.446 31.614 36.636 71.112 34.176 110.742-35.97-4.86-70.836-19.758-99.918-45l65.742-65.772zM637.82 593.152c-35.454 30.774-79.458 46.332-123.594 46.848 3.348-47.742-10.476-95.406-41.754-133.122l39.552-39.522 125.826 125.826zM492.584 447.898l-39.318 39.318c-37.248-33.024-84.966-48.306-133.14-45.948 1.458-42.654 16.896-84.918 46.644-119.22l125.826 125.82zM637.82 302.614l-66.948 66.972c-27.396-32.388-40.272-72.708-38.712-112.722 37.992 3.99 75.012 19.17 105.654 45.768v0zM386.168 302.614c34.104-29.568 76.11-45 118.53-46.614-1.788 47.334 13.752 95.022 46.722 133.014l-39.426 39.426-125.82-125.826zM657.248 573.718l-125.82-125.826 39.378-39.378c38.016 32.952 85.734 48.54 133.068 46.776-1.614 42.39-17.046 84.348-46.62 118.446v0zM703.016 427.72c-40.008 1.56-80.382-11.268-112.74-38.652l66.966-66.99c26.598 30.666 41.784 67.686 45.774 105.648v0z" />
<glyph unicode="&#xe91b;" glyph-name="m4" horiz-adv-x="868" d="M459.13 691.71l-293.565-362.435h293.565v362.435zM487.652 923.363h199.652v-594.087h168.348v-133.565h-168.348v-272h-228.174v272h-445.913v141.217l474.435 586.435z" />
<glyph unicode="&#xe91c;" glyph-name="m3" horiz-adv-x="796" d="M484.267 452.978c99.082-5.689 175.407-29.748 228.978-72.178s80.356-99.911 80.356-172.444c0-83.437-39.822-152.652-119.467-207.644s-181.57-82.489-305.778-82.489c-111.408 0-199.703 18.015-264.889 54.044s-97.778 84.148-97.778 144.356c0 36.978 11.97 66.844 35.911 89.6s55.585 34.133 94.933 34.133c13.274 0 26.785-1.185 40.533-3.556s27.97-5.926 42.667-10.667l49.067-191.289c18.489-3.793 34.489-6.637 48-8.533s25.244-2.844 35.2-2.844c52.148 0 94.341 16.474 126.578 49.422s48.356 76.207 48.356 129.778c0 54.045-18.607 96.592-55.822 127.644s-88.059 46.578-152.533 46.578c-17.067 0-33.659-0.948-49.778-2.844s-32-4.741-47.644-8.533v126.578c10.43-1.422 20.385-2.489 29.867-3.2s18.489-1.067 27.022-1.067c66.371 0 118.4 14.578 156.089 43.733s56.533 69.096 56.533 119.822c0 54.045-17.066 96.592-51.2 127.644s-81.303 46.578-141.511 46.578c-2.844 0-7.111-0.237-12.8-0.711s-10.193-0.711-13.511-0.711v-203.378c-16.593-8.533-33.304-14.815-50.133-18.844s-34.015-6.044-51.556-6.044c-41.245 0-74.074 10.904-98.489 32.711s-36.622 50.726-36.622 86.756c0 63.052 34.014 114.726 102.044 155.022s157.274 60.444 267.733 60.444c106.667 0 191.763-22.4 255.289-67.2s95.289-103.94 95.289-177.422c0-60.208-23.466-110.578-70.4-151.111s-113.777-67.911-200.533-82.133z" />
<glyph unicode="&#xe91d;" glyph-name="m5" horiz-adv-x="815" d="M70.545 937.212h661.091v-192h-512.727v-207.273c39.758 14.061 77.818 24.606 114.182 31.636s71.273 10.545 104.727 10.545c108.122 0 195.272-27.636 261.455-82.909s99.273-128 99.273-218.182c0-109.576-42.181-196.848-126.545-261.818s-198.545-97.455-342.545-97.455c-97.455 0-176.485 18.545-237.091 55.636s-90.909 84.242-90.909 141.455c0 39.273 13.333 71.879 40 97.818s60.606 38.909 101.818 38.909c13.091 0 27.151-1.455 42.182-4.364s31.757-7.273 50.182-13.091l44.364-208.727c1.455 0 3.879-0.242 7.273-0.727 14.061-1.455 24.727-2.182 32-2.182 63.515 0 115.636 19.636 156.364 58.909s61.091 89.697 61.091 151.273c0 59.637-23.515 108-70.545 145.091s-109.091 55.636-186.182 55.636c-32 0-65.454-3.030-100.364-9.091s-71.273-14.909-109.091-26.545v537.455z" />
<glyph unicode="&#xe91e;" glyph-name="n4" d="M512 640c-106.038 0-192-85.962-192-192s85.962-192 192-192c106.038 0 192 85.962 192 192s-85.962 192-192 192zM574.622 380.644l-5.61-5.58c-4.656-4.662-12.516-4.866-17.406-0.462l-64.332 55.296c-4.92 4.374-8.652 13.386-8.322 19.968l6.708 106.158c0.33 6.576 5.988 11.976 12.594 11.976h7.89c6.606 0 12.258-5.376 12.594-11.976l5.484-86.94c0.33-6.606 4.194-16.020 8.574-20.94l42.318-50.076c4.374-4.914 4.176-12.78-0.492-17.43z" />
<glyph unicode="&#xe91f;" glyph-name="n14" horiz-adv-x="1418" d="M1010.604 394.674c-3.934 28.97-27.006 133.083-69.778 197.159-4.916 6.895-14.593 19.716-21.489 27.006-17.348 22.974-42.553 38.768-70.76 44.36-17.764 3.027-36.013 0.676-52.455-6.684-6.684-2.952-13.42-6.895-19.716-9.683-19.394-10.808-40.923-17.082-63.073-18.352h-12.629c-20.519 2.831-40.507 8.892-59.16 17.943-6.684 2.761-13.611 6.684-19.716 9.683-16.47 7.25-34.697 9.548-52.455 6.684-28.157-5.92-53.28-21.658-71.004-44.36-6.895-7.666-16.579-19.716-21.283-27.006-35.597-60.693-59.276-127.606-69.778-197.159-5.898-43.569-9.683-121.448 22.265-152.429 9.023-8.019 20.889-12.063 32.951-11.238h9.683c31.152 2.952 61.109 14.402 103.908 52.073 51.473 44.551 62.091 46.324 84.377 55.019 5.407 1.883 10.965 3.465 16.579 4.72l23.247 3.934c4.807 0.988 9.792 0.988 14.593 0 7.85-0.785 15.609-2.074 23.247-3.934 5.777-0.497 11.381-2.127 16.579-4.72 22.471-8.675 32.951-10.474 84.377-55.019 42.778-37.665 72.777-49.074 103.908-52.073h9.683c11.838-0.572 23.378 3.634 32.16 11.647 35.51 31.751 31.56 109.057 25.811 152.429v0zM675.424 476.699c0-5.211-4.234-9.439-9.439-9.439h-39.438v-39.438c0-5.211-4.234-9.439-9.439-9.439-2.51 0-4.916 0.988-6.684 2.761s-2.761 4.2-2.761 6.684v39.438h-39.438c-5.211 0-9.439 4.234-9.439 9.439-0.572 4.638 2.374 9.023 6.895 10.23h39.438v39.438c0 5.211 4.234 9.439 9.439 9.439 2.51 0 4.916-0.988 6.684-2.761s2.761-4.2 2.761-6.684v-39.438h39.438c2.51 0 4.916-0.988 6.684-2.761s2.761-4.2 2.761-6.684l2.558-0.785zM819.343 434.713c-23.738 0.109-42.887 19.428-42.778 43.16s19.428 42.887 43.16 42.778c23.738-0.103 42.887-19.428 42.778-43.16-0.163-11.512-4.904-22.498-13.203-30.503s-19.428-12.351-30.987-12.085l0.988-0.197z" />
<glyph unicode="&#xe920;" glyph-name="n1" d="M712.106 460.244c9.074-7.571 10.277-20.964 2.647-29.984l-9.646-12.624c-7.598-8.988-21.13-10.169-30.23-2.625l-162.455 135.208-163.332-133.786c-9.074-7.517-22.601-6.368-30.23 2.625l-9.646 10.495c-7.598 8.988-6.422 22.413 2.647 29.953l185.088 150.869c7.763 7.902 20.414 8.72 29.076 1.534l186.040-151.687zM512.624 489.812l149.773-124.328v-67.316c0-11.757-9.597-21.264-21.456-21.264h-257.51c-11.837 0-21.456 9.507-21.456 21.264v68.738l150.623 122.905z" />
<glyph unicode="&#xe921;" glyph-name="n41" d="M480.619 295.938v0c101.070-0.175 183.268 81.896 183.449 183.147 0.155 100.883-81.761 183.328-182.402 183.544-101.849 0.221-184.188-81.68-184.289-183.308-0.1-101.070 81.976-183.208 183.248-183.403zM633.535 479.039c-0.241-84.708-68.898-152.787-153.848-152.545-83.661 0.241-152.062 69.226-151.7 153.023 0.362 84.622 68.979 152.988 153.149 152.545 84.441-0.417 152.646-68.924 152.404-153.043zM648.821 326.465c4.276 0.040 7.856-1.544 10.829-4.512 20.396-20.356 40.813-40.692 61.082-61.117 5.996-6.036 5.815-15.476 0.020-21.391s-15.315-6.277-21.356-0.296c-20.612 20.416-41.123 40.948-61.56 61.54-4.672 4.707-5.619 10.588-2.968 16.684 2.611 5.996 7.465 8.903 13.952 9.104z" />
<glyph unicode="&#xe922;" glyph-name="n19" d="M511.814 640c-105.936 0-191.814-85.956-191.814-192s85.878-192 191.814-192c105.936 0 191.814 85.956 191.814 192s-85.878 192-191.814 192zM611.36 342.574h-199.098l0.18 9.24 28.278 38.676v124.596l-17.604 30.21-1.356 8.124h94.812v-38.34h-9.48v-115.014h85.332l18.96 19.164v-76.668h0.006z" />
<glyph unicode="&#xe923;" glyph-name="n28" d="M711.707 472.907c0 104.080-89.413 188.427-199.707 188.427s-199.707-84.347-199.707-188.427c0-104.053 89.413-188.427 199.707-188.427 17.947 0 35.227 2.427 51.76 6.613l82.053-56.427-6.027 93.493c43.92 34.56 71.893 86.56 71.893 144.747zM541.147 356.64l-14.507-14.293h-32.88l-10.693 10.533v29.333l6.107 10.533h38.987l12.987-12.773v-23.333zM596.187 503.333c0 0-68.027-58.667-68.773-71.467v-13.547h-38.213v42.88l60.4 54.907v27.813c0 0-21.413 36.107-59.627 10.533 0 0-19.867-15.067-25.227-46.64 0 0-48.16-27.067-42.027 25.573 0 0 18.347 51.147 66.48 63.947h48.907c0 0 49.68-14.293 58.080-54.16v-39.867z" />
<glyph unicode="&#xe924;" d="M443.969 421.979c0 0 38.704-58.067 109.030 2.562 29.313 25.346 31.587 77.419 29.031 78.007-0.846 0.282-13.393-29.595-13.393-29.595s-35.871-73.447-116.147-51.815l-8.551 0.846zM580.913 294.155l-46.108-19.634c0 0-105.88 11.395-137.779 134.071-5.989 22.478-1.716-7.675 49.817-57.503 51.227-49.817 134.071-56.939 134.071-56.939v0z" />
<glyph unicode="&#xe925;" glyph-name="n20" horiz-adv-x="1038" d="M517.042 232c-120.326 0-216.986 96.654-216.986 215.015s96.654 216.985 216.986 216.985c120.325 0 216.985-96.654 216.985-215.014s-96.654-216.986-216.985-216.986zM517.042 510.14c-69.045 0-124.268-47.344-124.268-108.499 0-59.171 55.229-108.499 124.268-108.499s124.268 47.344 124.268 108.499c0 59.171-55.229 108.499-124.268 108.499zM517.042 356.268c-17.753 0-31.557 13.81-31.557 31.557s13.81 31.557 31.557 31.557c17.752 0 31.557-13.81 31.557-31.557s-13.81-31.557-31.557-31.557z" />
<glyph unicode="&#xe926;" glyph-name="n15" d="M397.786 283.789c4.475-0.237 8.668 0.187 10.587 0.525 4.212 0.806-0.762 4.612-3.069 6.912s-4.987 12.231-5.744 15.305c-0.762 3.069 3.037 3.812 5.344 5.381 2.269 1.512 11.087 2.669 19.511 6.887 8.45 4.212 19.911 17.211 34.085 50.915 14.162 33.685 19.911 47.484 25.261 45.172 5.375-2.269 48.235-47.084 51.709-52.884 3.437-5.775 5.712-28.336 7.65-37.516s4.987-6.887 6.512-12.262c1.537-5.312 1.137-18.711 2.669-23.686 1.562-4.987 8.818-12.662 13.799-16.462 4.169-3.218 16.686-7.781 24.461-8.049-24.111-10.312-50.666-16.012-78.557-16.012-42.46 0-81.832 13.237-114.211 35.798zM369.344 307.818c-35.46 36.085-57.34 85.582-57.34 140.173 0 110.455 89.538 199.994 199.994 199.994 67.764 0 127.654-33.71 163.833-85.263-2.062 0.712-5.237-0.412-7.562-0.062-2.712 0.406-1.937 4.212-1.937 5.744s-0.363 4.212-2.269 4.987c-1.912 0.762-6.112-0.363-6.112-0.363l-3.069-8.050h-7.25c-2.337 0-2.712 2.669-2.712 2.669s-0.394 4.944-0.394 6.487c0 1.562-4.987 3.837-4.987 3.837s-1.137-3.437-1.137-6.112c0-2.669-2.669-3.437-4.987-3.812-2.312-0.394-8.050 0.737-8.050 0.737l-1.137 13.399-8.787-0.763-2.337-11.487-34.41 1.162c0 0-1.537 3.069-1.937 5.744-0.363 2.669-3.437 4.987-3.437 4.987h-7.25c-2.275 0-1.137-4.987-1.137-4.987s-6.112-3.812-13.031-6.887c-6.912-3.069-13.031-4.987-13.031-4.987l-0.006-0.012-2.237-4.612c0 0-5.743 0-7.687 1.137-1.937 1.162 0 3.469 0 5.012s-1.937 7.618-1.937 9.925c0 2.312 1.912 2.312 4.187 3.469 2.337 1.163 3.112 5.744 5.412 7.287 2.269 1.512 8.787 5.344 0 16.068-8.818 10.687-17.236 12.999-28.736 15.668-11.462 2.669-19.511-6.149-27.161-12.631-7.687-6.512-2.312-33.31-2.312-33.31l-4.212 0.363c0 0-5.375-1.137-13.762-5.712-8.418-4.612-16.068-11.156-18.374-20.311s-7.65-66.215-8.050-72.333c-0.363-6.112-2.312-31.835-3.812-39.86s-6.887-27.536-10.33-36.748c-3.412-9.187-3.037-20.649-5.343-31.011-2.312-10.324-19.911-27.936-26.030-35.96-6.112-8.087-15.311-13.062-18.742-19.542-0.662-1.244-0.737-2.612-0.388-4.062zM679.812 556.816c20.361-31.317 32.185-68.69 32.185-108.825 0-77.483-44.072-144.679-108.518-177.901 0.362 1.087 0.312 2.362-0.237 3.868-1.937 5.375-17.262 18.011-20.711 20.711-3.437 2.669-5.343 8.050-8.050 9.562-2.669 1.537 0 12.231 0 12.231s4.637 2.312 6.912 4.987c2.269 2.712-2.669 24.886-3.069 30.636s-7.681 19.542-13.031 28.736c-5.344 9.187-17.611 17.98-17.611 19.511v10.756c0 3.437 4.987 4.987 0.762 8.762-4.237 3.837-21.811 26.798-25.661 29.861-3.812 3.069-10.33 0.394-13.399 3.069-3.069 2.712-0.762 6.912-0.394 11.487 0.394 4.612 4.612 21.417 8.818 27.186 4.212 5.712 8.818 15.305 8.818 15.305s19.142-1.537 25.598-0.394c6.543 1.137 14.162 4.975 17.236 7.65 3.069 2.712 9.987 9.987 11.887 10.33 1.937 0.363 3.437-0.394 9.187 1.537 5.775 1.937 13.431 5.744 13.431 5.744 3.812-14.162 18.374-30.236 18.374-30.236l6.887 7.287c-7.256 6.112-16.068 31.010-16.068 31.010s8.45 4.587 14.193 7.287c5.743 2.669 6.512 6.112 6.512 6.112h45.135c0 0 0.362 1.912 0.737 3.437 0.031 0.094 0.037 0.206 0.062 0.312z" />
<glyph unicode="&#xe927;" d="M534.217 261.974c-1.998 3.996-0.564 9.109 3.714 11.113l94.797 48.383c3.996 1.998 9.109 0.564 11.113-3.714 1.998-3.996 0.564-9.109-3.714-11.113l-94.797-48.383c-3.996-2.28-8.827-0.564-11.113 3.714z" />
<glyph unicode="&#xe928;" glyph-name="n16" horiz-adv-x="1010" d="M470.087 515.428c-21.995 18.481-94.38 79.065-94.38 79.065-10.508 8.838-24.963 12.495-38.951 11.461-14.197-1.029-27.906-6.823-36.779-16.847-17.644-19.946-17.337-54.455 5.707-73.829 0 0 72.386-60.591 94.38-79.032 94.638-79.44 135.006-83.962 184.994-114.387l32.645 36.894c-41.299 43.744-57.717 81.211-147.638 156.66zM704.152 292.484c-2.465-0.19-4.875-0.885-7.054-2.030-11.345 7.259-56.914 46.183-62.402 51.358l-29.527-33.366c6.087-4.426 51.971-43.097 61.027-52.931-2.37-6.36-0.722-13.714 4.849-18.427 3.473-2.914 7.987-4.359 12.543-4.018 4.399 0.326 8.675 2.275 11.766 5.788l22.975 25.944c6.196 7.041 5.38 17.637-1.811 23.717-3.569 2.983-8.028 4.263-12.38 3.963v0zM712.111 605.633c-40.789-5.053-72.576-39.536-72.576-81.674 0-22.716 9.241-43.342 24.12-58.276 6.469 3.309 12.707 7.068 18.454 11.679 19.325 15.539 32.768 37.493 37.82 61.817 4.726 22.743 1.703 45.72-7.831 66.455h0.006zM557.937 574.575v0.006c0-28.069-14.123-52.822-35.533-67.761-13.579 23.037-18.399 49.751-12.898 76.131 3.827 18.399 12.462 35.402 24.8 49.342 14.559-14.913 23.635-35.266 23.635-57.704zM534.328 490.342c26.516 18.672 43.989 49.396 44.016 84.234 0 27.769-11.167 52.904-29.104 71.459 18.753 14.423 41.818 22.498 65.372 22.498 7.395 0.006 14.777-0.776 22.008-2.308 26.053-5.407 48.443-20.3 64.153-41.551-46.536-9.921-81.592-51.276-81.592-100.741 0-25.209 9.459-48.062 24.555-65.992-9.432-2.628-19.108-4.372-28.941-4.372-7.341 0-14.722 0.784-21.981 2.275-23.092 4.78-43.233 17.065-58.494 34.503z" />
<glyph unicode="&#xe929;" glyph-name="m7" horiz-adv-x="774" d="M7.111 937.245h755.911v-130.844l-482.133-841.956v-47.644h-194.844l483.556 807.822h-413.867l-23.467-136.533h-125.156z" />
<glyph unicode="&#xe92a;" glyph-name="m8" horiz-adv-x="842" d="M292.267 374.045c-16.119-29.393-28.089-56.415-35.911-81.067s-11.733-47.644-11.733-68.978c0-57.363 18.133-106.074 54.4-146.133s80.237-60.089 131.911-60.089c41.719 0 76.918 12.563 105.6 37.689s43.022 55.704 43.022 91.733c0 37.926-19.318 72.889-57.956 104.889s-115.081 72.652-229.333 121.956zM596.622 464.356c80.593-30.341 137.955-65.304 172.089-104.889s51.2-90.429 51.2-152.533c0-91.023-36.622-162.37-109.867-214.044s-174.577-77.511-304-77.511c-118.993 0-214.281 26.074-285.867 78.222s-107.378 120.888-107.378 206.222c0 55.941 17.066 101.807 51.2 137.6s84.622 60.8 151.467 75.022c-55.467 25.6-96.592 57.363-123.378 95.289s-40.178 82.726-40.178 134.4c0 90.549 35.081 162.015 105.244 214.4s166.162 78.578 288 78.578c102.875 0 184.889-23.822 246.044-71.467s91.733-111.288 91.733-190.933c0-45.511-15.763-85.926-47.289-121.244s-77.866-64.355-139.022-87.111zM518.4 504.178c14.222 23.23 24.77 45.985 31.644 68.267s10.311 45.037 10.311 68.267c0 57.837-13.274 104.059-39.822 138.667s-61.866 51.911-105.956 51.911c-33.185 0-60.444-11.496-81.778-34.489s-32-52.741-32-89.244c0-39.348 16.592-74.667 49.778-105.956s89.126-63.763 167.822-97.422z" />
<glyph unicode="&#xe92b;" glyph-name="n17" horiz-adv-x="1038" d="M321.254 253.219c18.833-18.833 59.197-24.213 110.305-18.833-21.53 18.833-45.73 40.363-67.266 61.88 0 0 0 2.696-2.696 2.696-13.454-16.137-26.896-32.288-40.363-45.73zM305.11 363.526c-5.379-43.046 0-80.713 13.454-102.231 10.771 13.454 24.213 29.605 37.667 43.046-18.833 18.833-34.971 40.363-51.116 59.197v0zM436.945 393.125l-16.137 16.137c-2.696 2.696-2.696 8.068 0 10.771s8.068 2.696 10.771 0l16.137-16.137 16.137 16.137-18.833 18.833c-2.696 2.696-2.696 5.379 0 8.068s8.068 2.696 10.771 0l17.034-17.144 15.070 15.973-21.338 22.701c-2.696 2.696-2.696 5.379 0 8.068s8.068 2.696 10.771 0l21.53-21.53 16.055 16.685-21.441 20.982c-2.696 2.696-2.696 8.068 0 10.771s8.068 2.696 10.771 0l21.53-21.53 16.137 16.137-18.833 18.833c-2.696 2.696-2.696 8.068 0 10.771s8.068 2.696 10.771 0l19.067-17.725 14.714 13.372-14.96 15.117c-2.696 2.696-2.696 8.068 0 10.771s8.068 2.696 10.771 0l16.938-16.958c2.696 2.696 29.988 29.058 37.133 36.257-29.605 26.896-54.584 53.073-84.177 74.603-45.73-16.137-90.973-40.096-131.323-80.46-43.046-43.046-69.955-94.162-83.397-142.595 21.53-26.896 43.21-47.898 70.107-74.795 5.379 8.068 48.275 47.898 48.275 47.898zM596.532 656.242c14.583-11.401 41.705-35.512 63.221-57.034 21.53 18.833 35.463 30.673 51.614 41.432-18.833 18.833-61.031 26.354-114.837 15.59zM716.749 635.259c-13.454-10.771-32.288-24.213-51.116-40.363 24.213-24.213 45.73-45.73 64.569-69.955 8.068 45.73 2.696 88.783-13.454 110.305zM582.222 656.79c-13.454-2.696-24.213-5.379-34.971-8.068 52.772-39.241 122.899-109.916 172.193-172.193 2.696 10.771 5.379 24.213 8.068 34.971-22.809 26.512-121.070 126.456-145.284 145.284zM587.937 523.735l18.491-17.615c2.696-2.696 2.696-8.068 0-10.771s-8.068-2.696-10.771 0l-18.833 18.833c-5.379-2.696-10.771-8.068-16.137-13.454l18.833-18.833c2.696-2.696 2.696-8.068 0-10.771s-8.068-2.696-10.771 0l-18.833 18.833-16.137-16.137 21.53-21.53c2.696-2.696 2.696-8.068 0-10.771-5.379 0-10.771 0-13.454 2.696l-18.833 21.53-16.137-16.137 21.53-21.53c2.696-2.696 2.696-8.068 0-10.771-5.379-2.696-8.068-2.696-10.771 0l-21.53 21.53-16.137-16.137 21.53-21.53c2.696-2.696 2.696-8.068 0-10.771s-8.068-2.696-10.771 0l-21.53 21.53-16.137-16.137 21.53-21.53c2.696-2.696 2.696-8.068 0-10.771s-8.068-2.696-10.771 0l-21.53 21.53c-8.068-8.068-39.624-42.671-45.010-48.056 0 0 65.63-62.044 97.919-86.265 48.433 16.137 95.052 37.462 138.112 77.806 40.363 40.363 65.597 86.845 81.741 132.581-24.213 34.971-54.989 68.074-87.283 100.368-5.379-2.696-37.167-35.053-39.865-37.749zM313.185 409.261c-2.696-13.454-5.379-24.213-8.068-34.971 16.137-21.53 107.020-115.684 139.898-137.209 10.771 2.696 24.213 5.379 34.971 8.068-29.605 21.53-136.326 104.79-166.806 164.118z" />
<glyph unicode="&#xe92c;" glyph-name="m9" horiz-adv-x="789" d="M144.667-75.333l-45.333 117.333h76.667c88.445 34.222 159.555 76.111 213.333 125.667s92.667 109.666 116.667 180.333c-33.778-17.778-66.778-31.111-99-40s-64.333-13.333-96.333-13.333c-86.667 0-158.111 28-214.333 84s-84.333 127.333-84.333 214c0 102.223 35.666 185.111 107 248.667s164.999 95.333 281 95.333c114.667 0 206.555-34 275.667-102s103.667-158.222 103.667-270.667c0-151.556-55.777-283.666-167.333-396.333s-267.332-193.666-467.333-243zM528 441.334c3.111 20.445 5.444 40.889 7 61.333s2.333 40.444 2.333 60c0 89.778-12.333 158.666-37 206.667s-60.555 72-107.667 72c-40 0-72.667-18.778-98-56.333s-38-86.777-38-147.667c0-70.667 17-124.222 51-160.667s84.333-54.667 151-54.667c8.889 0 19.111 1.556 30.667 4.667s24.444 8 38.667 14.667z" />
<glyph unicode="&#xe92d;" glyph-name="n32" d="M586.324 431.252c-5.093-5.627-11.328-10.288-17.035-15.355-2.72-2.373-5.653-4.587-8.24-7.067-9.6-9.36-9.92-26.214-0.693-35.948 2.773-2.907 6.027-4.853 9.968-5.947 30.609-8.693 61.55-16.427 91.685-26.582 32.609-10.987 56.536-37.996 57.896-76.671 0.187-4.773 0.24-9.6 0.133-14.368-0.107-8.32-5.84-14.267-13.627-14.368-7.947-0.053-380.161 0.293-387.388 0-7.493-0.293-14 4.827-14.368 12.32-0.8 16.128-0.107 32.161 6.827 47.229 9.227 20.027 24.001 34.156 44.189 43.015 14.507 6.373 30.001 9.488 45.069 14.080 18.027 5.467 36.188 10.4 54.296 15.568 10.027 2.853 17.035 14.368 15.787 25.841-0.853 7.733-4.213 13.947-10.587 18.587-33.468 24.422-52.317 57.576-57.389 98.432-2.533 20.534-3.467 41.383 3.227 61.47 14.448 43.522 44.935 67.683 89.578 77.417 57.016 12.448 178.629 7.253 178.629 7.253s0-14.128-7.013-35.655c-7.013-21.574-31.361-31.121-31.361-31.121h19.195c0-57.763-31.681-54.056-31.361-57.763-1.173-37.815-11.6-71.977-37.436-100.353z" />
<glyph unicode="&#xe92e;" glyph-name="a22" d="M404.651 394.325l107.349 107.349 107.349-107.349h-214.672z" />
<glyph unicode="&#xe92f;" glyph-name="n23" d="M512 664c-119.3 0-216-96.7-216-216s96.7-216 216-216c119.299 0 216 96.701 216 216s-96.701 216-216 216v0zM404.608 337.422c0 0-15.971 40.891-15.971 42.809s19.164 61.357 19.164 61.357l6.386-8.761 60.088-80.096-69.673-15.323zM598.298 324.624l-173.867 206.456-10.219 16.618 6.224 6.621c0.095-0.067 0.23-0.095 0.338-0.148 2.389-1.715 5.063-3.092 7.87-4.334 3.963-3.955 8.904-6.98 14.316-9.49 3.038-2.524 6.385-4.684 9.923-6.439 4.981-3.766 10.833-6.717 17.536-8.572l164.957-143.168-37.077-57.531zM623.861 494.67l-85.017 60.709 48.262 15.997 48.262-29.416-11.496-47.291z" />
<glyph unicode="&#xe930;" glyph-name="a21" d="M404.651 501.675h214.672l-107.349-107.349z" />
<glyph unicode="&#xe931;" glyph-name="a19" d="M724.652 418.047h-182.699v-182.699h-59.947v182.699h-182.699v59.947h182.699v182.699h59.947v-182.699h182.699v-59.947z" />
<glyph unicode="&#xe932;" glyph-name="n34" d="M318.106 660.516c4.002 1.148 8.221 0.741 12.362 0.775 123.812 0 247.616 0 371.387 0 5.78 0.184 10.885-3.957 12.63-9.403 23.732-71.308 47.359-142.656 71.047-213.998 1.187-4.225 0.663-8.622 0.708-12.92 0-56.132-0.039-112.252 0.039-168.39-0.078-3.818-0.814-8.037-3.818-10.701-2.703-2.999-7.040-3.517-10.807-3.628-171.5 0.039-343.025 0.039-514.522 0-5.183 0-11.403-0.518-15.366 3.55-4.297 3.885-3.924 10.256-3.885 15.517 0 56.087 0.111 112.219-0.039 168.311-0.518 5.663 1.633 10.958 3.444 16.174 22.774 68.644 45.581 137.289 68.349 205.961 1.259 3.957 4.403 7.625 8.516 8.701v0zM329.877 637.302c-21.174-63.829-42.354-127.658-63.567-191.525 53.2 0 106.406-0.039 159.611 0 3.662-0.078 7.775-0.518 10.478-3.327 3.701-3.032 4.18-8.26 4.364-12.736 0.931-21.174 12.139-41.546 29.217-53.902 13.037-9.626 29.473-14.513 45.614-13.667 19.034 0.814 37.538 9.815 50.056 24.251 10.807 12.218 17.295 28.286 17.735 44.611 0.184 3.885 0.775 8.26 3.818 10.991 2.703 3.11 7.067 3.662 10.924 3.779 53.2-0.039 106.406 0 159.578 0-21.174 63.829-42.354 127.658-63.533 191.525-121.438 0.039-242.881 0.039-364.314 0v0zM261.719 421.821c0-51.868 0-103.741 0-155.615 166.862 0 333.733 0 500.6 0 0 51.868 0 103.741 0 155.615-51.913 0-103.847 0-155.76 0-3.372-28.587-20.544-55.095-45.135-69.859-19.173-11.844-42.61-16.286-64.793-12.63-21.325 3.372-41.323 14.475-55.647 30.655-12.847 14.324-21.174 32.65-23.51 51.796-51.913 0-103.847 0-155.76 0v0z" />
<glyph unicode="&#xe933;" glyph-name="a18" d="M714.667 609.88l-161.88-161.88 161.88-161.88-40.787-40.787-161.88 161.88-161.88-161.88-40.787 40.787 161.88 161.88-161.88 161.88 40.787 40.787 161.88-161.88 161.88 161.88z" />
<glyph unicode="&#xe934;" glyph-name="a6" d="M709.95 447.978h-50.175v4.337c-2.287 93.8-78.78 169.154-172.813 169.154-95.513 0-172.916-77.679-172.916-173.486s77.408-173.442 172.916-173.442c40.151 0 77.105 13.752 106.464 36.764l-29.743 31.815c-21.493-15.828-48.022-25.234-76.73-25.234-71.625 0-129.692 58.252-129.692 130.098s58.062 130.098 129.692 130.098c70.171 0 127.306-55.91 129.567-125.762v-4.337h-56.517l73.917-82.373 76.031 82.373z" />
<glyph unicode="&#xe935;" d="M329.067 657.067h365.867c115.477 0 209.067-93.59 209.067-209.067s-93.59-209.067-209.067-209.067h-365.867c-115.477 0-209.067 93.59-209.067 209.067s93.59 209.067 209.067 209.067z" />
<glyph unicode="&#xe936;" d="M329.067 630.933c101.038 0 182.933-81.895 182.933-182.933s-81.895-182.933-182.933-182.933c-101.038 0-182.933 81.895-182.933 182.933s81.895 182.933 182.933 182.933z" />
<glyph unicode="&#xe937;" glyph-name="n22" horiz-adv-x="882" d="M472.861 266.184h-65.227c-8.772 13.86-54.319 96.188 3.162 229.097h58.885c57.469-132.903 11.916-215.254 3.18-229.097v0zM412.643 522.63h55.237v-14.58h-55.237v14.58zM464.76 543.354h-46.771l-1.416 3.132c-0.42 0.948-10.41 23.328-10.41 39.925 0 26.341 12.876 53.593 34.417 53.593 19.26 0 33.775-22.806 33.775-53.053 0-15.636-8.004-39.037-8.364-40.021l-1.236-3.57zM576.837 476.573l-1.206 2.724h-64.699l-1.212-2.724c-4.044-9.144-10.614-26.653-10.614-26.653s16.284-62.371 14.796-85.43c-2.58-40.537-18.3-83.318-18.3-83.318s11.598-22.314 12.324-23.304l1.368-1.86h67.939l1.374 1.86c2.436 3.276 58.741 81.734-1.782 218.711v0zM518.564 501.743h49.447v-10.584h-49.447v10.584zM565.623 512.669h-42.637l-1.41 3.132c-0.378 0.852-9.372 20.988-9.372 35.965 0 23.85 11.724 48.517 31.369 48.517 17.556 0 30.781-20.652 30.781-48.037 0-14.094-7.212-35.113-7.506-36.007l-1.236-3.57zM301.785 257.856l1.374-1.86h67.939l1.374 1.86c0.732 0.996 12.324 23.304 12.324 23.304s-15.726 42.781-18.3 83.318c-1.476 23.058 14.796 85.43 14.796 85.43s-6.564 17.508-10.62 26.653l-1.212 2.724h-64.699l-1.212-2.724c-60.517-136.983-4.212-215.446-1.776-218.711v0zM312.381 501.743h49.453v-10.584h-49.453v10.584zM357.406 512.669h-42.637l-1.236 3.57c-0.3 0.894-7.506 21.912-7.506 36.007 0 27.397 13.236 48.037 30.781 48.037 19.644 0 31.369-24.667 31.369-48.517 0-14.982-8.988-35.113-9.372-35.965l-1.416-3.132z" />
<glyph unicode="&#xe938;" glyph-name="n18" horiz-adv-x="1010" d="M403.584 380.729l25.534 24.34-16.53 15.634c-2.807 2.725-4.394 6.462-4.394 10.373s1.587 7.654 4.394 10.373c6.143 5.844 15.797 5.844 21.927 0l16.53-15.634 25.838 24.639-16.53 15.634c-2.908 2.726-4.549 6.529-4.549 10.515s1.641 7.797 4.549 10.515c6.143 5.844 15.797 5.844 21.927 0l16.231-15.329 25.838 24.639-16.231 15.329c-2.908 2.726-4.549 6.529-4.549 10.515s1.641 7.797 4.549 10.515c6.143 5.844 15.797 5.844 21.927 0l15.634-15.024 23.744 22.536-94.655 89.537c-37.358-17.988-70.925-42.972-98.86-73.617-24.828-25.534-45.141-55.107-60.092-87.448l87.746-88.045zM704.67 450.142c-0.312 2.23 0.474 4.461 2.102 6.007 18.93 67.604 5.709 127.098-36.056 163.764-47.237 36.87-110.826 45.047-165.865 21.33l199.813-191.095zM527.088 255.136c40.198 17.554 76.384 43.107 106.372 75.116 25.080 26.347 45.413 56.857 60.092 90.134l-100.954 97.957-24.34-21.927 16.231-15.329c2.908-2.726 4.549-6.529 4.549-10.515s-1.641-7.797-4.549-10.515c-6.143-5.844-15.797-5.844-21.927 0l-15.634 15.024-25.838-24.639 16.231-15.634c2.807-2.725 4.394-6.462 4.394-10.373s-1.587-7.654-4.394-10.373c-6.143-5.844-15.797-5.844-21.927 0l-16.53 15.024-24.042-24.34 16.53-15.634c2.807-2.725 4.394-6.462 4.394-10.373s-1.587-7.654-4.394-10.373c-6.143-5.844-15.797-5.844-21.927 0l-18.022 15.329-26.143-24.937 101.862-103.666zM305.931 440.23c0-3.003-2.102-5.709-3.003-8.719-18.631-67.299-5.709-127.098 36.056-163.764 28.577-24.414 65.563-36.707 103.070-34.253 19.079 1.261 37.948 4.787 56.185 10.515l-192.307 196.207z" />
<glyph unicode="&#xe939;" d="M496.936 545.5c-15.673-7.399-26.474-19.070-24.758-22.478s16.226-0.564 32.175 6.835c15.673 7.399 26.474 16.508 24.758 19.916s-16.508 3.126-32.175-4.278v0z" />
<glyph unicode="&#xe93a;" glyph-name="r1" d="M608.76 525.996l29.614-29.612-126.376-126.376-126.376 126.376 29.612 29.612 96.76-96.76z" />
<glyph unicode="&#xe93b;" glyph-name="r2" d="M589.996 351.24l-29.612-29.614-126.376 126.376 126.376 126.376 29.614-29.612-96.76-96.76z" />
<glyph unicode="&#xe93c;" glyph-name="r3" d="M415.24 370.004l-29.612 29.612 126.376 126.376 126.376-126.376-29.612-29.614-96.76 96.76z" />
<glyph unicode="&#xe93d;" glyph-name="n39" d="M230.654 605.389c16.284-8.753 241.972-129.998 250.424-134.506s19.302-6.661 30.264-6.661c10.962 0 21.862 2.148 30.264 6.661s234.14 125.747 250.424 134.506c16.334 8.803 31.748 42.961 1.791 42.961h-564.892c-29.952 0-14.538-34.152 1.791-42.961zM799.59 531.819c-18.532-9.623-246.63-128.509-258-134.456s-19.302-6.661-30.264-6.661-18.889 0.714-30.264 6.661-238.185 124.827-256.666 134.506c-13.004 6.806-12.903-1.183-12.903-7.319s0-243.509 0-243.509c0-14.030 18.889-33.382 33.382-33.382h534.221c14.488 0 33.382 19.358 33.382 33.382 0 0 0 237.314 0 243.456s0.156 14.131-12.903 7.319z" />
<glyph unicode="&#xe93e;" glyph-name="n44" horiz-adv-x="1387" d="M811.826 554.815v0c30.994-0.042 56.112-25.154 56.16-56.148v-143.962c-0.042-30.988-25.16-56.1-56.16-56.148h-144.454c-17.548-0.054-34.382 6.927-46.734 19.375l-92.8 92.77c-8.825 8.831-8.825 23.13 0 31.961l92.873 92.77c12.34 12.424 29.149 19.399 46.656 19.363h144.454zM786.036 480.506c-3.671 3.635-9.594 3.635-13.271 0l-40.486-40.546-40.474 40.546c-2.277 2.752-5.924 3.983-9.414 3.166s-6.2-3.533-7.023-7.023c-0.823-3.484 0.403-7.131 3.166-9.408l40.474-40.546-40.474-40.468c-2.752-2.277-3.983-5.924-3.166-9.408s3.533-6.2 7.023-7.023c3.484-0.823 7.131 0.403 9.414 3.166l40.474 40.468 40.474-40.468c3.743-3.1 9.234-2.842 12.676 0.589s3.695 8.927 0.589 12.67l-40.474 40.468 40.474 40.468c1.772 1.772 2.764 4.169 2.764 6.669s-0.997 4.902-2.764 6.669h0.012z" />
<glyph unicode="&#xe93f;" glyph-name="a1" d="M728.005 448.021c0 119.528-96.956 215.999-215.999 215.999s-215.999-96.956-215.999-215.999c0-119.043 96.956-215.999 215.999-215.999s215.999 96.47 215.999 215.999zM500.234 371.753l-107.757 107.271c-3.288 3.288-4.719 7.527-4.719 11.766s1.425 8.472 4.719 11.766c6.582 6.609 16.95 6.609 23.538 0l96.011-96.011 94.607 95.552c6.609 6.582 16.95 6.582 23.079 0 6.582-6.609 6.582-16.95 0-23.079l-106.353-107.271c-3.288-3.315-7.068-4.719-11.766-4.719-3.774 0-8.013 1.425-11.307 4.719v0z" />
<glyph unicode="&#xe940;" glyph-name="n26" d="M700.136 397.591c-27.831-103.923-134.649-165.591-238.545-137.727s-165.591 134.649-137.727 238.545c27.831 103.923 134.649 165.591 238.545 137.727s165.591-134.649 137.727-238.545zM598.541 577.465l-61.317-35.397-35.397 61.317c-26.373-1.728-51.402-10.449-73.251-24.3l5.508-92.145-70.923 6.075c-0.486-1.62-1.215-3.078-1.668-4.698-7.338-27.459-6.75-55.107 0.129-80.703l73.791-19.764-17.199-64.233c15.552-11.745 33.501-20.817 53.46-26.163s40.062-6.48 59.4-4.098l17.199 64.233 73.791-19.764c18.759 18.711 33.096 42.363 40.446 69.822 0.453 1.647 0.513 3.267 0.891 4.908l-52.293 29.046 38.685 78.213c-11.988 22.89-29.289 42.957-51.273 57.639zM459.248 401.641l-0.999 71.571 68.85 31.233 44.031-61.506-36.66-61.479-75.249 20.169z" />
<glyph unicode="&#xe941;" glyph-name="a2" d="M295.995 447.994c0-119.528 96.943-215.999 215.999-215.999s215.999 96.943 215.999 215.999c0 119.056-96.943 215.999-215.999 215.999s-215.999-96.47-215.999-215.999zM523.758 524.234l107.77-107.29c3.288-3.288 4.711-7.527 4.711-11.759s-1.417-8.465-4.711-11.759c-6.582-6.594-16.942-6.594-23.53 0l-95.998 95.998-94.588-95.533c-6.594-6.582-16.942-6.582-23.064 0-6.582 6.594-6.582 16.942 0 23.064l106.353 107.29c3.288 3.3 7.060 4.711 11.759 4.711 3.766 0 8.005-1.417 11.299-4.711v0z" />
<glyph unicode="&#xe942;" glyph-name="n5" d="M688.35 372.152l-39.475 4.944-42.187-56.269 13.44-31.381c29.899 20.43 53.737 49.075 68.227 82.712zM458.239 263.784c17.076-4.992 35.071-7.788 53.761-7.788 34.555 0 66.973 9.144 94.976 25.135l-17.562 40.957 1.080 0.462-42.367 15.9-89.906-44.953v-29.719zM541.413 352.256l-5.022 45.103-54.427 54.427-56.629-31.459-14.544-77.594 41.113-35.251 89.498 44.773zM359.735 331.388l35.839 13.44 15.288 81.458-26.701 26.725-62.623-12.522-1.512 7.53c0-43.927 14.904-84.272 39.727-116.612v0zM412.164 580.273l-35.455 3.948c-33.253-33.019-54.277-78.206-56.323-128.283l67.255 13.47 24.499 53.893v56.989zM512 639.998c-16.488 0-32.383-2.304-47.665-6.198l-36.811-55.249v-40.699l56.581-16.974 91.004 65.029 4.638 41.575c-21.096 7.962-43.849 12.522-67.717 12.522v0zM577.215 568.53l-81.404-58.165-5.634-45.031 53.227-53.227 56.095 16.848 24.066 110.624-46.333 28.951zM638.207 534.708l-23.172-106.544 24.601-34.453 54.247-6.762c6.456 19.2 10.092 39.679 10.092 61.087 0 40.165-12.396 77.414-33.457 108.26l-32.329-21.558z" />
<glyph unicode="&#xe943;" glyph-name="a20" d="M214.018 489.984h596.011v-84.011h-596.011v84.011z" />
<glyph unicode="&#xe944;" glyph-name="n29" d="M582.7 458.354h41.737l84.349 72.641c-3.68 8.667-7.808 16.988-12.502 25.015l-113.572-97.657zM522.315 661.354v-34.216l34.344 29.629c-11.174 2.347-22.615 4.027-34.344 4.587v0zM698.906 458.354l24.343 20.956c-1.467 10.235-3.893 20.156-6.8 29.869l-59.093-50.831h41.55zM629.192 626.504l-106.884-91.875v-35.923l128.992 111.151c-7.008 6.027-14.401 11.574-22.103 16.641v0zM581.754 649.973l-59.44-51.151v-35.923l87.096 75.1c-8.907 4.533-18.049 8.667-27.65 11.974v0zM684.291 574.152c-5.328 7.248-11.094 14.182-17.281 20.695l-144.695-124.405v-12.075h27.549l134.406 115.791zM502.133 661.354c-113.231-5.307-203.474-98.537-203.474-213.075 0-49.572 17.041-95.102 45.385-131.339l158.115 135.953v208.461zM515.941 438.172l-158.782-136.534c38.958-41.177 93.929-66.993 155.075-66.993 114.532 0 207.768 90.275 213.101 203.533h-209.4z" />
<glyph unicode="&#xe945;" glyph-name="n30" d="M512 640c-106.014 0-192-85.986-192-192 0-106.032 85.968-192 192-192s192 85.968 192 192c0 106.014-85.968 192-192 192zM579.008 405.73c2.718-2.772 2.718-7.218 0-9.936l-14.94-14.976c-2.832-2.796-7.236-2.796-10.014 0l-42.372 42.348-42.384-42.348c-2.754-2.796-7.212-2.796-9.984 0l-14.94 14.976c-2.736 2.736-2.736 7.182 0 9.936l42.384 42.348-42.384 42.462c-2.736 2.736-2.736 7.212 0 9.936l14.94 14.94c2.772 2.772 7.248 2.772 9.984 0l42.384-42.366 42.372 42.366c2.796 2.772 7.212 2.772 10.014 0l14.94-14.94c2.718-2.748 2.718-7.212 0-9.936l-42.372-42.432 42.372-42.384z" />
<glyph unicode="&#xe946;" glyph-name="n8" d="M512 409.671c24.185 0 46.92 9.407 64.033 26.52s26.52 39.848 26.52 64.033c0 24.185-9.407 46.92-26.52 64.033s-39.848 26.52-64.033 26.52c-24.185 0-46.92-9.407-64.033-26.52s-26.52-39.848-26.52-64.033c0-24.185 9.407-46.92 26.52-64.033s39.848-26.52 64.033-26.52zM512 574.729v0c41.095 0 74.528-33.433 74.528-74.528s-33.433-74.528-74.528-74.528c-41.095 0-74.528 33.433-74.528 74.528s33.433 74.528 74.528 74.528zM512 305.245v0c3.4 0 6.415 2.131 7.548 5.327 15.073 42.636 53.833 70.72 54.219 70.992 2.833 2.017 4.035 5.644 2.992 8.953s-4.148 5.576-7.616 5.576h-114.217c-3.468 0-6.551-2.244-7.616-5.553s0.136-6.936 2.969-8.953c0.385-0.272 39.145-28.379 54.219-70.992 1.133-3.196 4.148-5.327 7.548-5.327zM476.549 380.091c10.948-10.585 25.047-26.565 35.451-46.784 10.427 20.219 24.503 36.199 35.451 46.784h-70.924zM453.565 486.035c0-5.78 4.669-10.449 10.449-10.449s10.449 4.669 10.449 10.449c0 5.78-4.669 10.449-10.449 10.449s-10.449-4.669-10.449-10.449v0zM496.179 488.891c0-5.78 4.669-10.449 10.449-10.449s10.449 4.669 10.449 10.449c0 5.78-4.669 10.449-10.449 10.449s-10.449-4.669-10.449-10.449v0zM477.003 459.311c0-3.74 1.995-7.185 5.236-9.044s7.208-1.859 10.449 0c3.241 1.859 5.236 5.327 5.236 9.044s-1.995 7.185-5.236 9.044c-3.241 1.859-7.208 1.859-10.449 0s-5.236-5.327-5.236-9.044v0zM512.952 451.377c0-5.78 4.669-10.449 10.449-10.449s10.449 4.669 10.449 10.449c0 5.78-4.669 10.449-10.449 10.449s-10.449-4.669-10.449-10.449v0zM512 266.667c-24.48 0-48.235 4.805-70.584 14.257-21.601 9.135-40.981 22.213-57.641 38.851s-29.716 36.040-38.851 57.641c-9.452 22.349-14.257 46.104-14.257 70.584s4.805 48.235 14.257 70.584c9.135 21.601 22.213 40.981 38.851 57.641s36.040 29.716 57.641 38.851c22.349 9.452 46.104 14.257 70.584 14.257s48.235-4.805 70.584-14.257c21.601-9.135 40.981-22.213 57.641-38.851s29.716-36.040 38.851-57.641c9.452-22.349 14.257-46.104 14.257-70.584s-4.805-48.235-14.257-70.584c-9.135-21.601-22.213-40.981-38.851-57.641s-36.040-29.716-57.641-38.851c-22.349-9.452-46.104-14.257-70.584-14.257v0z" />
<glyph unicode="&#xe947;" glyph-name="n11" d="M514.933 496.469c-20.661 64.33-49.074 117.706-58.877 135.266 17.045 5.196 34.712 7.961 52.759 8.243 7.782-9.676 21.993-37.327 33.711-69.755 13.084-36.145 19.767-67.961 19.071-90.727-22.552 7.5-39.295 14.003-46.692 16.943zM660.556 361.922c8.316 0 16.277 0.539 23.854 1.565-9.292-18.945-21.58-36.145-36.661-51.223-3.047-3.047-6.192-5.988-9.424-8.802-0.413 0-0.845 0-1.259-0.053-67.733-7.446-124.151 14.153-159.529 33.609-34.635 19.047-56.573 39.811-60.948 44.107 14.309 17.663 28.466 33.453 40.724 46.386 0.311-0.233 0.617-0.437 0.947-0.641 1.409-0.821 34.737-20.403 80.146-37.993 26.804-10.372 52.219-17.871 75.543-22.275 16.588-3.125 32.151-4.68 46.62-4.68zM565.873 457.299c34.047-10.906 85.298-25.215 136.856-31.563-1.643-14.207-4.836-28.136-9.628-41.624-1.361 0.335-2.795 0.384-4.253 0.107-36.325-7.116-85.779 0.821-143.047 22.96-36.223 14.003-65.152 29.696-74.416 34.917 16.919 17.045 30.668 29.57 37.4 35.529 9.448-3.767 29.876-11.596 57.035-20.325zM652.355 454.396c1.049 73.959-14.153 121.565-27.776 149.138 8.19-5.939 15.923-12.544 23.164-19.791 17.633-17.633 31.461-38.168 41.137-61.026 10.012-23.679 15.101-48.817 15.101-74.727 0-0.845 0-1.691-0.029-2.537-17.381 2.177-34.761 5.273-51.607 8.904zM446.542 444.875c-25.648-26.78-60.972-67.096-88.545-111.539-9.19 12.316-16.841 25.672-22.882 39.961-0.179 0.413-0.335 0.821-0.515 1.229 26.828 69.473 65.74 111.227 93.925 134.138 21.351 17.356 39.883 26.78 49.555 31.028 6.041-14.771 12.010-30.746 17.429-47.436-8.448-7.5-26.828-24.214-48.996-47.358zM542.272 290.398c21.964-5.448 44.209-8.214 66.43-8.268-7.062-4.121-14.387-7.806-21.964-11.008-23.679-10.012-48.817-15.101-74.727-15.101s-51.043 5.064-74.727 15.101c-22.858 9.676-43.388 23.5-61.026 41.137-1.667 1.667-3.281 3.353-4.889 5.064 10.036 16.739 21.351 32.997 32.919 48.18 7.422-7.14 29.439-26.882 63.101-45.468 24.136-13.337 49.356-23.32 74.877-29.672zM561.099 576.95c-8.598 23.781-18.945 46.44-27.956 61.92 18.459-2.027 36.403-6.678 53.604-13.949 0.384-0.179 0.797-0.359 1.181-0.515 0.491-1.433 1.283-2.795 2.435-3.947 0.107-0.107 10.649-10.931 21.147-35.864 9.91-23.602 21.507-64.384 21.147-125.643-18.483 4.505-35.971 9.472-51.607 14.333 2.741 34.605-11.212 79.558-19.941 103.675zM363.282 468.332c-14.537-19.66-27.266-41.468-38.017-65.098-3.485 14.561-5.244 29.541-5.244 44.772 0 25.906 5.064 51.043 15.101 74.727 9.676 22.858 23.5 43.388 41.137 61.026s38.119 31.436 60.972 41.108c4.608-8.136 18.357-33.147 33.176-67.018-10.804-4.71-30.591-14.795-53.449-33.225-19.737-15.923-37.813-34.863-53.681-56.321z" />
<glyph unicode="&#xe948;" glyph-name="a8" d="M318.464 641.536h161.276v-161.276h-161.276v161.276zM544.26 641.536h161.276v-161.276h-161.276v161.276zM318.464 415.74h161.276v-161.276h-161.276v161.276zM544.26 415.74h161.276v-161.276h-161.276v161.276z" />
<glyph unicode="&#xe949;" glyph-name="n43" d="M697.857 487.327l-1.386-2.358-21.252-36.816 22.656-39.246c2.688 12.852 4.074 25.962 4.074 39.096 0 13.212-1.386 26.37-4.098 39.3zM474.728 512.689l-37.248-64.536 37.248-64.536h74.49l37.224 64.536-37.224 64.536zM430.112 589.994l22.17 38.43c-24.504-8.118-47.184-21.198-66.534-38.43h44.34zM326.125 487.327c-2.718-12.93-4.074-26.088-4.074-39.3s1.362-26.322 4.074-39.12l22.632 39.246-22.608 39.168zM437.744 586.19l37.506-64.998h73.494l37.506 64.998-26.394 45.696c-31.338 8.118-64.482 8.118-95.718 0l-26.394-45.696zM593.87 589.994h44.37c-19.356 17.208-42.036 30.288-66.504 38.43l22.146-38.43zM430.112 314.832l37.278 64.536-37.278 64.536h-74.004l-27.090-46.98c8.604-30.828 24.96-59.166 47.49-82.098h53.61zM430.112 452.407l37.278 64.536-37.278 64.536h-53.328c-22.632-22.938-39.096-51.306-47.748-82.2l27.060-46.878h74.004zM425.714 306.342h-40.272c19.458-17.412 42.318-30.594 67.020-38.76l-22.35 38.76h-4.404zM593.87 443.905l-37.278-64.536 37.278-64.536h53.61c22.506 22.914 38.892 51.252 47.514 82.122l-27.114 46.98h-74.004zM593.87 306.342l-22.35-38.76c24.684 8.172 47.544 21.354 67.020 38.76h-44.676zM548.744 375.121h-73.494l-37.506-64.998 10.446-18.078 16.128-27.984c31.236-8.064 64.152-8.064 95.364 0l26.574 46.056-37.506 64.968zM593.87 581.504l-3.636-6.276-33.618-58.266 37.248-64.536h73.98l27.090 46.878c-8.658 30.9-25.116 59.268-47.748 82.2h-53.352z" />
<glyph unicode="&#xe94a;" glyph-name="n27" d="M512 662.869c-118.641 0-214.869-96.195-214.869-214.869s96.195-214.869 214.869-214.869c118.641 0 214.869 96.195 214.869 214.869 0.060 118.641-96.195 214.869-214.869 214.869v0zM511.355 294.798c-17.19 0-31.049 13.892-31.049 31.049 0 17.135 13.892 31.049 31.049 31.049s31.049-13.892 31.049-31.049c0-17.19-13.892-31.049-31.049-31.049v0zM552.019 525.594c0-0.060 0-0.115-0.060-0.241l-0.060-0.115-0.060-0.241v-0.241l-0.060-0.115c0 0-26.22-121.999-26.22-122.234 0 0 1.799 9.205 0 0s-6.432-14.248-14.248-14.248c-7.87 0-12.032 5.841-14.456 15.276s-25.515 118.548-25.569 118.587v0.241c0 0.060-0.060 0.115-0.060 0.241v0.738l-0.060 0.241v0.295c0 0 0 0.115-0.060 0.241v0.175c0 0-0.060 0.115-0.060 0.241v0.711l-0.060 0.241v0.35c-0.585 2.713-0.859 5.54-0.859 8.434 0 22.977 18.579 41.551 41.551 41.551s41.551-18.579 41.551-41.551c-0.35-3.008-0.645-5.841-1.209-8.554v0z" />
<glyph unicode="&#xe94b;" glyph-name="n37" d="M711.707 472.907c0 104.080-89.413 188.427-199.707 188.427s-199.707-84.347-199.707-188.427c0-104.053 89.413-188.427 199.707-188.427 17.947 0 35.227 2.427 51.76 6.613l82.053-56.427-6.027 93.493c43.92 34.56 71.893 86.56 71.893 144.747zM541.147 356.64l-14.507-14.293h-32.88l-10.693 10.533v29.333l6.107 10.533h38.987l12.987-12.773v-23.333zM596.187 503.333c0 0-68.027-58.667-68.773-71.467v-13.547h-38.213v42.88l60.4 54.907v27.813c0 0-21.413 36.107-59.627 10.533 0 0-19.867-15.067-25.227-46.64 0 0-48.16-27.067-42.027 25.573 0 0 18.347 51.147 66.48 63.947h48.907c0 0 49.68-14.293 58.080-54.16v-39.867z" />
<glyph unicode="&#xe94c;" glyph-name="n42" d="M512 256.041v0c25.903 0 51.068 5.068 74.72 15.080 22.856 9.676 43.388 23.502 61.025 41.134s31.482 38.169 41.134 61.025c10.011 23.682 15.080 48.817 15.080 74.72s-5.068 51.068-15.080 74.72c-9.676 22.856-23.502 43.388-41.134 61.025s-38.169 31.482-61.025 41.134c-23.682 10.011-48.817 15.080-74.72 15.080s-51.068-5.068-74.72-15.080c-22.856-9.676-43.388-23.502-61.025-41.134s-31.482-38.169-41.134-61.025c-10.011-23.682-15.080-48.817-15.080-74.72s5.068-51.068 15.080-74.72c9.676-22.856 23.502-43.388 41.134-61.025s38.169-31.482 61.025-41.134c23.682-10.011 48.817-15.080 74.72-15.080zM649.46 460.879l-51.942 13.924-53.551-30.918 53.322-30.768 52.117 13.972 6.58-24.523-27.619-7.397 24.756-14.288-12.694-21.986-24.936 14.39 7.421-27.697-24.241-6.502-13.924 51.942-53.4 30.845v-53.58l38.013-37.659-17.919-17.739-20.095 19.891v-36.857h-25.368v37.193l-20.299-20.095-17.709 17.559 38.043 37.659v53.73l-46.533-26.875-13.588-51.762-24.348 6.658 7.193 27.361-31.92-18.429-12.694 21.986 32.202 18.584-27.565 7.523 6.352 24.114 51.631-14.108 46.533 26.851-46.533 26.875-51.631-14.108-6.4 24.396 27.283 7.445-31.92 18.429 12.694 21.986 32.202-18.584-7.265 27.619 24.066 6.58 13.588-51.762 46.665-26.929v61.691l-38.169 38.169 17.943 17.943 20.227-20.227v28.595h25.368v-28.775l20.275 20.275 17.739-17.739-38.013-38.043v-61.822l53.322 30.768 13.972 52.117 24.523-6.58-7.397-27.619 24.756 14.288 12.694-21.986-24.936-14.39 27.697-7.421-6.502-24.241z" />
<glyph unicode="&#xe94d;" glyph-name="n12" d="M448.696 419.448c-13.418 6.249-20.117 15.31-20.117 27.157 0 8.27 3.147 15.025 9.441 20.212s14.323 7.795 24.105 7.795c8.96 0 16.336-2.451 22.143-7.339s8.706-11.207 8.706-18.952c0-12.487-6.99-22.099-20.978-28.823v-0.291c16.431-5.908 24.625-15.975 24.625-30.209 0-9.34-3.362-16.78-10.137-22.314s-16.185-8.326-28.278-8.326c-9.916 0-18.001 2.742-24.251 8.2s-9.371 12.563-9.371 21.263c0 14.323 8.035 24.771 24.105 31.299v0.291zM459.738 412.679c-13.879-5.623-20.838-13.633-20.838-24.105 0-5.408 2.032-9.871 6.098-13.348s9.371-5.218 15.9-5.218c6.344 0 11.512 1.741 15.475 5.198s5.959 7.795 5.959 12.968c0 10.897-7.529 19.072-22.599 24.53zM478.62 446.687c0 5.028-1.576 8.991-4.723 11.892s-7.409 4.363-12.778 4.363c-5.028 0-9.321-1.526-12.848-4.533s-5.293-6.895-5.293-11.587c0-9.396 5.864-16.551 17.641-21.433 11.992 4.983 18.001 12.068 18.001 21.263zM614.085 623.056c-0.165 0.101-0.355 0.196-0.506 0.291-8.225 4.793-16.811 8.991-25.701 12.588-0.601 0.24-1.191 0.481-1.786 0.696-4.287 1.691-8.65 3.267-13.063 4.673-0.050 0.025-0.070 0.025-0.12 0.050-4.363 1.381-8.84 2.571-13.348 3.653-0.925 0.215-1.861 0.43-2.792 0.64-4.363 0.981-8.77 1.861-13.208 2.546-0.145 0.025-0.291 0.050-0.43 0.070-4.533 0.696-9.111 1.191-13.728 1.596-1.115 0.101-2.222 0.165-3.343 0.24-4.648 0.31-9.321 0.525-14.069 0.525-5.198 0-10.327-0.26-15.425-0.64-0.981-0.070-1.931-0.12-2.887-0.215-4.913-0.45-9.796-1.076-14.589-1.836-0.83-0.145-1.691-0.31-2.527-0.45-4.913-0.855-9.776-1.861-14.544-3.077-0.070 0-0.145-0.025-0.24-0.025-4.933-1.266-9.776-2.761-14.564-4.363-0.671-0.24-1.361-0.45-2.051-0.696-4.743-1.646-9.396-3.457-13.974-5.464-0.31-0.145-0.64-0.31-0.981-0.45-9.65-4.262-18.932-9.276-27.727-14.949-0.070-0.050-0.145-0.101-0.215-0.145-55.885-36.098-92.902-98.867-92.902-170.316 0-111.904 90.737-202.622 202.647-202.622s202.622 90.717 202.622 202.622c0 74.692-40.41 139.898-100.563 175.039zM468.242 313.938c-58.247 0-105.471 47.205-105.471 105.446s47.224 105.471 105.471 105.471c58.247 0 105.446-47.224 105.446-105.471s-47.224-105.446-105.446-105.446zM599.775 521.011c-23.054 20.098-31.945 47.585-19.907 61.419s40.511 8.726 63.554-11.347c23.035-20.098 31.945-47.585 19.907-61.419s-40.511-8.745-63.535 11.322z" />
<glyph unicode="&#xe94e;" glyph-name="n33" d="M548.090 308.17c0 0 41.373-32.859 72.21 18.37 30.601 50.835 25.182 57.659 41.316 93.023 16.55 36.256 32.207 110.876-21.521 109.865-60.545-1.162-55.25-1.039-55.25-1.039v-42.327l-92.365 62.803 92.989 56.406 0.124-37.627c0 0 38.902 0.124 76.798 0.837 31.904 0.629 104.153-56.233 38.312-186.87-53.817-106.799-23.070-44.175-41.316-73.081s-67.42-82.032-135.738-38.874l24.413 38.514zM349.736 488.908c-13.13-6.784-22.205-19.437-24.378-34.055s2.797-29.383 13.36-39.705c17.617-24.205 37.059-47.028 58.164-68.256 32.802-34.201 68.133-57.451 90.394-8.548 17.949 39.559 26.524 65.1 26.524 65.1l-41.856 17.505 96.712 60.602 24.289-110.966-39.435 15.949c0 0-19.173-48.224-35.178-85.604-13.428-31.343-62.568-72.423-114.33-22.414-30.983 29.916-86.109 86.857-101.98 107.635-28.58 37.329-44.557 93.91 21.644 140.197l26.075-37.447zM641.882 588.583c0 0 5.599 40.070-54.199 39.857s-75.967-0.269-115.851-0.326c-39.89-0.084-108.259-24.946-78.612-69.772 33.432-50.51 31.494-47.831 31.494-47.831l39.559 24.413v-114.24l-107.545 45.304 34.858 22.414c0 0-23.452 35.773-44.377 67.391-17.567 26.546-6.424 111.802 118.89 112.044s81.74 0.269 115.851 0.326c34.112 0.084 105.406 1.342 105.546-79.449l-45.54-0.084z" />
<glyph unicode="&#xe94f;" glyph-name="a26" d="M345.56 314.967l98.773 94.679c8.874 8.914 26.494 11.566 35.667 2.387 8.874-8.874 6.567-26.494-2.514-35.586l-98.859-94.8h109.993c12.627 0 23.386-10.494 23.386-23.467 0-12.587-10.453-23.467-23.386-23.467h-164.733c-0.594-0.046-1.147-0.086-1.747-0.086-12.587 0-23.426 10.494-23.426 23.426v166.526c0 12.627 10.494 23.426 23.426 23.426 12.587 0 23.426-10.494 23.426-23.426v-109.607zM645.033 614.44h-109.607c-12.927 0-23.426 10.88-23.426 23.426 0 12.927 10.794 23.426 23.426 23.426h166.526c12.927 0 23.426-10.88 23.426-23.426 0-0.594-0.046-1.194-0.086-1.747v-164.733c0-12.927-10.88-23.386-23.467-23.386-12.967 0-23.467 10.747-23.467 23.386v109.993l-94.8-98.859c-9.087-9.087-26.707-11.387-35.586-2.514-9.173 9.173-6.486 26.794 2.387 35.667l94.679 98.773z" />
<glyph unicode="&#xe950;" glyph-name="a25" d="M467.454 371.693l-93.808-89.945c-8.44-8.478-25.207-10.98-33.901-2.28-8.44 8.44-6.23 25.169 2.394 33.826l93.922 90.053h-104.497c-11.974 0-22.219 9.986-22.219 22.289 0 11.936 9.948 22.289 22.219 22.289h156.485c0.557 0.032 1.102 0.070 1.653 0.070 11.936 0 22.251-9.948 22.251-22.219v-158.182c0-12.012-9.986-22.219-22.251-22.219-11.936 0-22.251 9.948-22.251 22.219v104.129zM556.546 524.307l93.808 89.945c8.44 8.478 25.207 10.98 33.901 2.28 8.44-8.44 6.23-25.169-2.394-33.826l-93.922-90.053h104.497c11.974 0 22.219-9.986 22.219-22.289 0-11.936-9.948-22.289-22.219-22.289h-156.485c-0.557-0.032-1.102-0.070-1.653-0.070-11.936 0-22.251 9.948-22.251 22.219v158.182c0 12.012 9.986 22.219 22.251 22.219 11.936 0 22.251-9.948 22.251-22.219v-104.129z" />
<glyph unicode="&#xe951;" glyph-name="a13" d="M320.683 492.48l106.923-136.235 288.896 296.491 17.621-18.048-305.621-391.424-138.624 214.443z" />
<glyph unicode="&#xe952;" glyph-name="a3" d="M598.943 320.57c-26.536-18.991-57.55-28.483-89.293-28.055-4.163 0.038-8.326 0.262-12.484 0.653-1.691 0.166-3.376 0.423-5.067 0.653-3.248 0.423-6.507 0.878-9.621 1.493-1.953 0.385-3.869 0.878-5.79 1.338-3.093 0.749-6.175 1.493-9.204 2.408-1.461 0.455-2.857 0.974-4.324 1.461-3.484 1.198-6.962 2.44-10.344 3.869-0.749 0.326-1.493 0.685-2.28 1.038-3.933 1.761-7.834 3.644-11.612 5.726-0.198 0.102-0.326 0.166-0.525 0.262-12.746 7.154-24.422 16.090-34.696 26.536-0.166 0.166-0.326 0.358-0.487 0.557-3.184 3.28-6.207 6.662-9.102 10.204-0.589 0.749-1.198 1.557-1.793 2.344-20.842 26.632-33.428 60.349-33.428 96.993h35.343c0.942 0 1.825 0.525 2.28 1.37s0.385 1.857-0.134 2.665l-59.439 91.048c-0.487 0.717-1.268 1.166-2.146 1.166s-1.653-0.423-2.146-1.166l-59.439-91.048c-0.525-0.781-0.557-1.825-0.134-2.665s1.338-1.37 2.28-1.37h35.375c0-43.119 13.163-83.080 35.51-116.112 0.262-0.455 0.455-0.942 0.781-1.397 2.312-3.376 4.88-6.507 7.379-9.685 0.942-1.198 1.793-2.44 2.761-3.644 3.676-4.516 7.545-8.781 11.548-12.971 0.385-0.423 0.749-0.813 1.102-1.198 13.399-13.726 28.58-25.268 45.098-34.53 0.423-0.262 0.845-0.525 1.338-0.781 4.752-2.601 9.621-4.971 14.603-7.186 1.23-0.525 2.44-1.134 3.708-1.691 4.227-1.793 8.589-3.376 12.971-4.88 2.081-0.717 4.131-1.461 6.239-2.113 3.837-1.134 7.738-2.113 11.708-3.093 2.601-0.621 5.207-1.306 7.866-1.825 1.102-0.23 2.146-0.589 3.248-0.749 3.708-0.685 7.481-1.038 11.184-1.525 1.338-0.166 2.665-0.385 4.003-0.525 6.694-0.685 13.367-1.134 20.029-1.134 40.775 0 80.57 12.746 114.716 37.163 10.889 7.802 13.527 23.122 5.918 34.236s-22.667 13.822-33.524 6.047v0zM712.102 448.102c-0.038 42.984-13.099 82.85-35.343 115.823-0.326 0.557-0.557 1.134-0.91 1.653-2.761 4.035-5.79 7.802-8.781 11.548-0.326 0.455-0.685 0.942-1.038 1.397-20.355 25.236-45.912 44.707-74.882 57.454-0.813 0.358-1.589 0.749-2.408 1.102-4.612 1.953-9.364 3.676-14.111 5.303-1.723 0.589-3.414 1.198-5.175 1.761-4.163 1.268-8.358 2.344-12.612 3.312-2.344 0.557-4.682 1.166-7.058 1.621-1.166 0.23-2.28 0.589-3.452 0.813-3.152 0.557-6.335 0.813-9.525 1.23-2.21 0.294-4.356 0.621-6.571 0.845-5.335 0.525-10.632 0.717-15.898 0.813-0.974 0-1.889 0.166-2.857 0.166-0.166 0-0.326-0.070-0.525-0.070-40.743-0.038-80.442-12.58-114.523-36.97-10.889-7.77-13.559-23.122-5.918-34.236s22.667-13.822 33.524-6.015c26.332 18.825 57.031 28.355 88.538 28.055 4.516-0.038 9.006-0.262 13.399-0.685 1.37-0.166 2.697-0.358 4.067-0.525 3.612-0.455 7.218-0.974 10.761-1.691 1.557-0.326 3.125-0.717 4.644-1.070 3.484-0.813 6.93-1.653 10.344-2.697 1.070-0.358 2.146-0.749 3.216-1.102 3.869-1.306 7.673-2.697 11.44-4.292 0.385-0.166 0.781-0.358 1.134-0.525 22.437-9.857 42.107-25.037 57.486-44.023 0.102-0.102 0.198-0.262 0.294-0.358 21.623-26.857 34.632-61.226 34.632-98.62h-35.375c-0.942 0-1.825-0.525-2.28-1.37s-0.385-1.857 0.134-2.665l59.439-91.048c0.487-0.717 1.268-1.166 2.146-1.166s1.653 0.423 2.146 1.166l59.407 91.048c0.525 0.781 0.557 1.825 0.134 2.665s-1.338 1.37-2.28 1.37h-35.343z" />
<glyph unicode="&#xe953;" glyph-name="a4" d="M515.612 524.5c-12.756 0-23.1 10.35-23.1 23.106v69.288c0 12.756 10.344 23.106 23.1 23.106s23.106-10.35 23.106-23.106v-69.288c0-12.756-10.344-23.106-23.106-23.106zM515.612 256c-7.974 0-14.442 6.462-14.442 14.448v69.288c0 7.974 6.462 14.448 14.442 14.448s14.448-6.462 14.448-14.448v-69.288c0-7.98-6.462-14.448-14.448-14.448zM463.67 512.026c-7.488 0-14.76 3.882-18.768 10.836l-34.644 60.012c-5.97 10.368-2.436 23.598 7.932 29.586s23.598 2.436 29.586-7.932l34.644-60.006c5.97-10.368 2.436-23.598-7.932-29.592-3.414-1.962-7.128-2.898-10.818-2.898zM602.252 280.666c-4.506 0-8.856 2.328-11.268 6.504l-34.644 60.012c-3.588 6.204-1.446 14.166 4.758 17.748s14.166 1.452 17.748-4.758l34.644-60.006c3.588-6.204 1.452-14.166-4.758-17.754-2.046-1.17-4.284-1.746-6.48-1.746zM425.594 475.432c-3.432 0-6.912 0.87-10.086 2.712l-60.012 34.644c-9.666 5.592-12.966 17.94-7.398 27.606s17.94 12.966 27.606 7.398l60.006-34.644c9.666-5.586 12.972-17.94 7.404-27.606-3.738-6.48-10.542-10.11-17.52-10.11zM665.636 345.496c-1.962 0-3.948 0.492-5.76 1.554l-60.012 34.644c-5.52 3.18-7.422 10.266-4.224 15.792s10.26 7.428 15.786 4.224l60.012-34.644c5.52-3.18 7.422-10.266 4.224-15.792-2.136-3.708-6.018-5.778-10.008-5.778zM411.68 424.894h-69.288c-10.368 0-18.768 8.4-18.768 18.774s8.406 18.768 18.768 18.768h69.288c10.368 0 18.774-8.4 18.774-18.768s-8.4-18.774-18.774-18.774zM688.844 432.124c0 0 0 0 0 0h-69.294c-6.378 0-11.538 5.166-11.538 11.544s5.166 11.538 11.538 11.538c0 0 0 0 0 0h69.294c6.378 0 11.538-5.166 11.538-11.538s-5.166-11.544-11.538-11.544zM365.618 339.736c-6 0-11.814 3.114-15.018 8.658-4.782 8.28-1.944 18.882 6.336 23.664l60.012 34.644c8.28 4.776 18.876 1.938 23.658-6.336s1.938-18.882-6.336-23.658l-60.006-34.644c-2.736-1.584-5.712-2.322-8.64-2.322zM605.648 484.096c-3.99 0-7.872 2.070-10.008 5.784-3.18 5.52-1.296 12.582 4.224 15.786l60.012 34.644c5.52 3.174 12.582 1.296 15.786-4.224s1.296-12.588-4.224-15.792l-60.012-34.644c-1.818-1.044-3.792-1.56-5.76-1.56zM428.978 277.762c-2.688 0-5.424 0.678-7.92 2.13-7.596 4.398-10.2 14.106-5.808 21.696l34.644 60.012c4.374 7.59 14.106 10.194 21.696 5.802s10.2-14.106 5.808-21.696l-34.644-60.012c-2.94-5.094-8.28-7.932-13.758-7.932zM567.584 522.136c-1.962 0-3.948 0.492-5.76 1.56-5.526 3.174-7.428 10.266-4.224 15.786l34.644 60.012c3.174 5.526 10.266 7.428 15.792 4.224s7.422-10.266 4.224-15.786l-34.644-60.012c-2.136-3.708-6.018-5.784-10.008-5.784z" />
<glyph unicode="&#xe954;" glyph-name="m@" horiz-adv-x="960" d="M553.22 278.69c-31.111-31.5-60.278-54.833-87.5-70s-53.666-22.75-79.333-22.75c-43.945 0-79.625 17.694-107.041 53.083s-41.125 81.666-41.125 138.833c0 38.5 5.542 75.055 16.625 109.667s27.319 66.305 48.708 95.083c28 38.111 62.125 68.153 102.375 90.125s81.375 32.958 123.375 32.958c18.667 0 37.333-2.625 56-7.875s38.305-13.125 58.917-23.625l20.417 27.417h81.083c-8.167-21-16.916-53.278-26.25-96.833-2.722-12.445-4.667-21.389-5.833-26.833l-43.167-203.583c-3.111-15.945-5.444-29.847-7-41.708s-2.333-22.653-2.333-32.375c0-11.667 3.792-21.292 11.375-28.875s17.208-11.375 28.875-11.375c16.722 0 33.736 5.347 51.042 16.042s33.347 25.569 48.125 44.625c24.5 31.111 43.555 67.666 57.167 109.667s20.417 85.166 20.417 129.5c0 98.778-30.333 178.014-91 237.708s-141.361 89.542-242.083 89.542c-59.111 0-114.138-9.917-165.083-29.75s-96.639-49-137.083-87.5c-47.834-45.5-83.514-96.444-107.042-152.833s-35.292-119.389-35.292-189c0-128.334 37.527-231.486 112.583-309.458s174.222-116.958 297.5-116.958c50.945 0 101.889 7.389 152.833 22.167s101.111 36.555 150.5 65.333l21.583-47.833c-60.667-34.611-121.236-60.764-181.708-78.458s-118.708-26.542-174.708-26.542c-64.945 0-126.097 11.472-183.458 34.417s-108.791 56.389-154.292 100.333c-43.556 42.389-76.319 92.069-98.292 149.042s-32.958 120.847-32.958 191.625c0 79.334 14.194 152.444 42.583 219.333s70.583 126.389 126.583 178.5c47.834 43.945 103.153 77.583 165.958 100.917s129.402 35 199.792 35c118.223 0 213.5-35 285.833-105s108.5-161.972 108.5-275.917c0-44.722-5.444-86.819-16.333-126.292s-27.028-75.93-48.417-109.375c-27.611-43.556-62.222-78.264-103.833-104.125s-82.639-38.792-123.084-38.792c-31.889 0-55.611 7.68-71.167 23.042s-23.333 38.597-23.333 69.708zM557.303 646.774c-5.056 0.778-9.43 1.361-13.125 1.75s-6.903 0.583-9.625 0.583c-48.611 0-89.444-24.014-122.5-72.042s-49.583-108.014-49.583-179.958c0-41.611 7.292-73.111 21.875-94.5s35.875-32.083 63.875-32.083c17.889 0 35.875 6.222 53.958 18.667s36.458 31.305 55.125 56.583l42.583 238-42.583 63z" />
<glyph unicode="&#xe955;" glyph-name="132" d="M471.68 492.827h-57.067v66.587c0 14.507 2.853 28 8.613 40.533s13.653 23.547 23.787 33.067c10.107 9.52 22.053 16.987 35.787 22.427s28.773 8.16 45.067 8.16c14.507 0 28.453-2.72 41.893-8.16s25.36-12.907 35.787-22.427c10.427-9.52 18.72-20.533 24.907-33.067s9.28-26.053 9.28-40.533v-66.587h-54.8v53.893c0 19.013-5.28 33.733-15.867 44.16s-24.907 15.627-43.040 15.627c-16.293 0-29.44-5.2-39.413-15.627s-14.933-25.147-14.933-44.16v-53.893zM666.907 465.653c8.16 0 15.173-2.933 21.067-8.827s8.827-12.907 8.827-21.067v-140.4c0-8.16-1.44-15.787-4.293-22.88s-6.8-13.28-11.787-18.56c-4.987-5.28-10.88-9.44-17.653-12.453s-14.267-4.533-22.427-4.533h-228.72c-8.16 0-15.547 1.52-22.187 4.533s-12.293 7.013-16.987 12c-4.693 4.987-8.293 10.8-10.88 17.44s-3.84 13.733-3.84 21.28v143.573c0 8.16 2.853 15.173 8.613 21.067s12.693 8.827 20.827 8.827h279.467z" />
<glyph unicode="&#xe956;" glyph-name="n46" horiz-adv-x="1214" d="M909.735 536.637c-35.85-17.896-60.55-54.897-60.55-97.78s24.688-79.89 60.55-97.78v-84.345c0-40.241-32.53-72.849-72.66-72.849h-460.151c-40.124 0-72.66 32.614-72.66 72.849v84.345c35.85 17.896 60.55 54.897 60.55 97.781s-24.688 79.89-60.55 97.78v84.345c0 40.241 32.53 72.849 72.66 72.849h460.151c40.124 0 72.66-32.614 72.66-72.849v-84.345zM608.904 352.202l86.898-45.693-16.594 96.769 70.305 68.533-97.161 14.119-43.455 88.047-43.455-88.047-97.161-14.119 70.305-68.533-16.594-96.769 86.898 45.693z" />
<glyph unicode="&#xe957;" glyph-name="n31" d="M473.060 384.064c0.060-0.084 0.132-0.144 0.204-0.228l21.552-21.552c1.488-1.488 4.050-1.554 5.58-0.018l116.736 116.736c1.572 1.566 1.536 4.032-0.018 5.58l-21.552 21.552c-1.488 1.488-4.050 1.548-5.586 0.012l-92.334-92.334-51.552 51.552c-1.5 1.5-4.050 1.524-5.586-0.012l-21.564-21.57c-1.488-1.488-1.548-4.044-0.012-5.586l54.144-54.144zM512 640c106.032 0 192-85.986 192-192 0-106.032-85.968-192-192-192s-192 85.968-192 192c0 106.014 85.986 192 192 192z" />
<glyph unicode="&#xe958;" glyph-name="a12" d="M797.356 233.319h-570.758c-14.336 0-25.964 12.025-25.964 26.866v376.431c0 14.84 11.634 26.866 25.964 26.866s25.964-12.025 25.964-26.866v-349.566h544.797c14.336 0 25.964-12.025 25.964-26.866s-11.634-26.866-25.964-26.866v0zM785.277 546.791l-139.246-144.355c-9.927-10.271-26.018-10.271-35.939 0-1.251 1.251-1.855 2.904-2.809 4.356l-121.2 125.662-125.408-129.972c-9.927-10.271-26.018-10.271-35.939 0s-9.927 26.967 0 37.237l140.995 146.157c0.652 0.853 0.954 1.903 1.701 2.708 10.17 10.526 26.664 10.526 36.792 0 0.35-0.35 0.451-0.806 0.752-1.15l123.807-128.318 122.303 126.759c0.652 0.853 0.954 1.903 1.701 2.708 10.17 10.526 26.664 10.526 36.792 0s10.17-27.618 0-38.144c-1.357-1.404-2.809-2.56-4.309-3.609v0z" />
<glyph unicode="&#xe959;" glyph-name="a5" d="M726.851 441.070c-0.559 28.934-6.825 57.751-18.414 84.123-11.542 26.378-28.322 50.288-48.902 70.036s-44.966 35.395-71.369 45.714c-26.378 10.346-54.758 15.283-82.795 14.704-28.037-0.559-55.949-6.662-81.467-17.887-25.545-11.21-48.681-27.458-67.785-47.406s-34.256-43.542-44.212-69.119c-9.987-25.545-14.756-53.008-14.177-80.128 0.559-27.152 6.467-54.141 17.36-78.806 10.846-24.686 26.599-47.074 45.904-65.546s42.156-33.086 66.874-42.715c24.712-9.655 51.226-14.229 77.498-13.65 26.267 0.559 52.312 6.298 76.171 16.833 23.859 10.514 45.461 25.74 63.301 44.407s31.927 40.77 41.192 64.623c5.634 14.483 9.46 29.592 11.478 44.902 0.527-0.032 1.086-0.058 1.639-0.058 15.283 0 27.679 12.401 27.679 27.679 0 0.775-0.058 1.549-0.111 2.303h0.111zM682.86 367.561c-10.156-23.026-24.849-43.853-42.91-61.077s-39.364-30.788-62.384-39.69c-23.026-8.933-47.706-13.175-72.176-12.596-24.491 0.559-48.707 5.94-70.868 15.784-22.167 9.792-42.246 23.99-58.831 41.408s-29.656 37.972-38.199 60.139c-8.601 22.193-12.648 45.93-12.069 69.541s5.771 46.905 15.257 68.207c9.46 21.329 23.131 40.639 39.917 56.581s36.554 28.486 57.92 36.696c21.329 8.243 44.185 12.121 66.874 11.542s45.071-5.57 65.572-14.73c20.47-9.102 39.026-22.278 54.342-38.388s27.353-35.168 35.194-55.669c7.905-20.496 11.594-42.41 10.989-64.239h0.111c-0.058-0.754-0.111-1.523-0.111-2.303 0-14.288 10.82-26.019 24.686-27.51-2.693-15.062-7.151-29.761-13.313-43.685z" />
<glyph unicode="&#xe95a;" glyph-name="a9" d="M318.459 641.541h387.077v-64.508h-387.077v64.508zM318.459 480.26h387.077v-64.508h-387.077v64.508zM318.459 318.978h387.077v-64.508h-387.077v64.508z" />
<glyph unicode="&#xe95b;" glyph-name="a10" d="M733.392 495.492c0-4.798-3.465-9.304-6.915-12.775l-96.588-94.205 22.884-133.052c0.271-1.855 0.271-3.465 0.271-5.326 0-6.915-3.188-13.297-10.914-13.297-3.721 0-7.443 1.327-10.637 3.188l-119.472 62.807-119.472-62.807c-3.465-1.855-6.915-3.188-10.637-3.188-7.72 0-11.191 6.387-11.191 13.297 0 1.855 0.271 3.465 0.528 5.326l22.884 133.052-96.865 94.205c-3.188 3.465-6.659 7.971-6.659 12.775 0 7.971 8.248 11.191 14.913 12.247l133.58 19.434 59.864 121.076c2.388 5.054 6.915 10.914 13.052 10.914s10.637-5.859 13.052-10.914l59.864-121.076 133.58-19.434c6.387-1.056 14.913-4.249 14.913-12.247z" />
<glyph unicode="&#xe95c;" glyph-name="a11" d="M593.153 400.508l81.436 79.047-112.312 16.491-50.283 101.648-50.283-101.648-112.312-16.491 81.436-79.047-19.434-112.029 100.592 52.943 100.315-52.943zM733.392 495.492c0-4.798-3.465-9.304-6.915-12.775l-96.588-94.205 22.884-133.052c0.271-1.855 0.271-3.465 0.271-5.326 0-7.192-3.188-13.297-10.914-13.297-3.721 0-7.443 1.327-10.637 3.188l-119.472 62.807-119.472-62.807c-3.465-1.855-6.915-3.188-10.637-3.188-7.72 0-11.191 6.387-11.191 13.297 0 1.855 0.271 3.465 0.528 5.326l22.884 133.052-96.865 94.205c-3.188 3.465-6.659 7.971-6.659 12.775 0 7.971 8.248 11.191 14.913 12.247l133.58 19.434 59.864 121.076c2.388 5.054 6.915 10.914 13.052 10.914s10.637-5.859 13.052-10.914l59.864-121.076 133.58-19.434c6.387-1.056 14.913-4.249 14.913-12.247z" />
<glyph unicode="&#xe95d;" d="M483.443-35.443c12.48 12.512 12.48 32.768 0 45.28l-411.744 411.712c-12.48 12.512-32.736 12.512-45.248 0-12.512-12.48-12.512-32.736 0-45.248l411.744-411.744c12.48-12.48 32.736-12.48 45.248 0z" />
<glyph unicode="&#xe95e;" glyph-name="b9" d="M457.185 334.179c-5.588 0-10.47 4.888-10.47 10.47v312.845c0 3.486 0 6.978 3.486 8.38 2.797 2.096 5.588 2.096 9.080 0.695l230.441-95.668c4.187-1.396 6.289-5.588 6.289-9.781s-2.797-7.679-6.289-9.781l-203.212-89.385c-5.588-2.096-11.171 0-13.962 5.588-2.096 5.588 0 11.171 5.588 13.962l182.261 79.603-192.736 81.005v-297.484c0-5.588-4.888-10.47-10.47-10.47v0zM464.169 279.714c-52.374 0-92.877 28.637-92.877 64.946 0 5.588 4.888 10.47 10.47 10.47s10.47-4.888 10.47-10.47c0-23.737 32.823-43.994 71.93-43.994s71.93 20.251 71.93 43.994c0 5.588 4.888 10.47 10.47 10.47s10.47-4.888 10.47-10.47c0-36.31-41.203-64.946-92.877-64.946v0zM464.169 228.035c-74.721 0-136.17 41.904-136.17 93.577 0 30.027 20.946 58.663 56.561 76.111 4.888 2.797 11.171 0.695 13.962-4.888 2.797-4.888 0.695-11.171-4.888-13.962-27.936-13.962-44.695-34.92-44.695-57.262 0-39.802 51.679-72.625 115.218-72.625s115.218 32.823 115.218 72.625c0 23.048-18.161 44.695-47.486 58.663-5.588 2.096-7.679 8.38-4.888 13.962 2.096 5.588 8.38 7.679 13.962 4.888 37.711-17.454 60.053-46.085 60.053-77.519-0.695-51.679-62.155-93.577-136.87-93.577v0z" />
<glyph unicode="&#xe95f;" glyph-name="b10" horiz-adv-x="1032" d="M515.724 408.988c-21.336 0-39.012 17.682-39.012 39.012s17.682 39.006 39.012 39.006c21.33 0 39.006-17.676 39.006-39.006-0.606-21.33-17.682-39.012-39.006-39.012v0zM515.724 468.718c-11.586 0-20.724-9.144-20.724-20.718s9.144-20.724 20.724-20.724c11.58 0 20.718 9.144 20.718 20.724-0.606 11.58-9.75 20.718-20.718 20.718v0zM602.274 360.838c-21.336 0-39.012 17.682-39.012 39.012s17.682 39.012 39.012 39.012c21.33 0 39.006-17.682 39.006-39.012s-17.070-39.012-39.006-39.012v0zM602.274 420.568c-11.586 0-20.724-9.144-20.724-20.724s9.144-20.718 20.724-20.718c11.58 0 20.718 9.144 20.718 20.718 0 10.974-9.144 20.724-20.718 20.724v0zM427.95 452.872c-21.33 0-39.012 17.682-39.012 39.006s17.682 39.012 39.012 39.012c21.33 0 39.012-17.676 39.012-39.012s-17.682-39.006-39.012-39.006v0zM427.95 512.614c-11.58 0-20.724-9.144-20.724-20.724s9.144-20.724 20.724-20.724c11.58 0 20.724 9.144 20.724 20.724s-9.144 20.724-20.724 20.724v0zM515.724 256c-106.062 0-192 85.938-192 192s85.944 192 192 192c106.056 0 192-85.938 192-192 0-105.444-86.556-192-192-192v0zM515.724 621.712c-95.7 0-173.718-78.024-173.718-173.712s78.018-173.712 173.718-173.712c95.694 0 173.712 78.018 173.712 173.712s-78.018 173.712-173.712 173.712v0z" />
<glyph unicode="&#xe960;" glyph-name="b11" horiz-adv-x="1032" d="M514.957 224c-123.739 0-224 100.261-224 224s100.261 224 224 224c123.739 0 224-100.261 224-224 0-123.018-100.261-224-224-224v0zM514.957 650.664c-111.65 0-202.664-91.028-202.664-202.664s91.028-202.664 202.664-202.664c111.643 0 202.664 91.021 202.664 202.664s-91.021 202.664-202.664 202.664v0zM714.786 362.67h-2.849c-224 54.040-185.598 296.527-184.891 299.376 0.707 4.984 4.984 8.533 9.961 8.533h2.849c14.217 0 86.751-4.263 155.022-89.6 75.383-93.87 32.004-207.641 29.869-212.625-2.135-3.549-5.691-5.691-9.961-5.691v0zM546.961 649.25c-4.984-42.672-12.803-215.46 160.706-263.109 7.826 27.027 26.313 112.35-29.155 182.042-54.754 67.557-110.229 78.939-131.551 81.067v0zM432.469 243.201h-2.842l-12.803 2.842c-0.707 0-1.421 0.707-2.128 0.707-62.58 30.576-95.998 91.021-96.705 93.156-72.534 155.736 28.448 248.171 29.162 248.885 3.549 3.549 9.247 3.549 13.51 0.707 2.135-1.428 201.243-145.775 81.060-342.041-2.128-2.128-5.691-4.27-9.24-4.27v0zM423.222 267.379l3.556-0.707c91.021 157.871-38.402 275.205-71.827 301.511-19.201-21.336-74.662-97.419-18.494-217.602 0.707 0 31.29-55.461 86.758-83.195v0z" />
<glyph unicode="&#xe961;" glyph-name="b8" d="M513.086 225.412v0c-122.332 0-221.502 99.17-221.502 221.502s99.17 221.502 221.502 221.502c122.332 0 221.502-99.17 221.502-221.502-0.726-122.332-99.891-221.502-221.502-221.502v0zM512.366 646.695c-110.025 0-199.062-89.763-199.062-199.787s91.931-199.787 200.514-199.787v-10.86l-0.726 10.86c110.025 0 199.062 89.763 199.062 199.787 0.726 110.025-89.036 199.787-199.787 199.787v0zM457.345 348.469l-52.116 89.763 52.116 89.763h103.517l52.116-89.763-52.116-89.763h-103.517zM430.564 438.227l39.089-68.049h78.897l39.089 68.049-39.089 68.049h-78.897l-39.089-68.049zM555.069 510.615c-1.453 0-3.614 0.726-5.067 1.453-5.067 2.894-7.234 9.413-4.341 14.48l60.076 110.025c2.894 5.067 9.413 7.234 14.48 4.341s7.234-9.413 4.341-14.48l-60.076-110.025c-2.173-3.614-5.793-5.793-9.413-5.793v0zM721.561 410.719h-2.173l-121.611 20.988c-5.793 0.726-10.14 6.52-8.681 12.301 0.726 5.793 6.52 10.14 12.301 8.681l121.611-20.988c5.793-0.726 10.14-6.52 8.681-12.301 0-5.067-5.067-8.681-10.14-8.681v0zM609.358 249.305c-3.614 0-7.961 2.173-9.413 5.793l-55.015 103.517c-2.894 5.067-0.726 11.581 4.341 14.48s11.581 0.726 14.48-4.341l55.015-103.517c2.894-5.067 0.726-11.581-4.341-14.48-1.453-1.453-2.894-1.453-5.067-1.453v0zM384.241 269.567c-2.894 0-5.067 0.726-7.234 2.894-4.341 4.341-4.341 10.86-0.726 15.207l79.624 83.244c4.341 4.341 10.86 4.341 15.207 0.726 4.341-4.341 4.341-10.86 0.726-15.207l-79.624-83.244c-2.173-2.894-5.067-3.614-7.961-3.614v0zM463.139 510.615c-4.341 0-7.961 2.173-10.14 5.793l-52.842 110.025c-2.894 5.067 0 11.581 5.067 14.48s11.581 0 14.48-5.067l52.842-110.025c2.894-5.067 0-11.581-5.067-14.48-0.726 0-2.173-0.726-4.341-0.726v0zM417.53 428.093v0l-115.824 6.52c-5.793 0-10.86 6.52-10.14 12.301 0 5.793 5.067 10.86 11.581 10.86l115.824-4.341c5.793 0 10.86-7.234 10.14-13.028s-5.793-12.301-11.581-12.301v0z" />
<glyph unicode="&#xe962;" glyph-name="b7" horiz-adv-x="1609" d="M805.081 226.868c-190.433 0-344.753 152.878-344.753 253.339 0 103.739 151.036 184.548 344.753 184.548s344.753-80.81 344.753-184.548c0-100.467-154.315-253.339-344.753-253.339v0zM805.081 632.001c-168.539 0-311.913-69.89-311.913-151.783 0-85.175 142.273-220.585 311.913-220.585s311.913 135.409 311.913 220.585c0 81.899-143.373 151.783-311.913 151.783v0zM634.346 484.578c-5.473 0-9.852 2.189-13.136 6.554-5.473 7.643-3.278 17.474 4.378 22.928 32.834 22.928 72.237 37.131 112.728 42.585 29.55 3.271 86.456 2.189 117.101-5.46 8.757-2.189 14.225-10.92 12.041-19.651s-10.941-14.191-19.704-12.014c-22.983 5.46-76.616 7.643-105.066 4.366-35.018-4.366-68.953-17.474-97.403-37.131-4.378-1.094-7.657-2.189-10.941-2.189v0zM822.584 479.118c-8.757 0-15.32 6.554-16.42 15.291-2.189 19.651-39.397 55.693-65.663 75.35-7.657 5.46-8.757 15.291-3.278 22.928s15.32 8.731 22.983 3.271c12.041-9.826 74.421-57.87 78.8-99.367 1.094-8.731-5.473-17.474-15.32-17.474 0 0-1.094 0-1.094 0v0zM732.85 460.561c-8.757 0-15.32 6.554-16.42 15.291-2.189 19.651-39.397 55.693-65.663 75.35-7.657 5.46-8.757 15.291-3.278 22.928s15.32 8.731 22.983 3.271c12.041-9.826 74.421-57.87 78.8-99.367 1.094-8.731-5.473-17.474-15.32-17.474 0 0-1.094 0-1.094 0v0z" />
<glyph unicode="&#xe963;" glyph-name="b6" horiz-adv-x="768" d="M503.302 286.774c-12.186 0-23.643 5.020-32.966 13.615-17.917 17.917-17.917 47.298 0 65.209 8.594 8.594 20.069 13.615 32.966 13.615 12.186 0 23.643-5.020 32.966-13.615 17.917-17.917 17.917-47.298 0-65.209-9.317-8.594-20.78-13.615-32.966-13.615v0zM503.302 357.72c-6.449 0-12.903-2.863-17.2-7.165-9.317-9.317-9.317-25.083 0-35.111 9.317-9.317 25.795-9.317 35.111 0s9.317 25.083 0 35.111c-5.732 5.020-11.463 7.165-17.917 7.165v0zM398.684 225.868h-50.16c-14.331 0-20.069 7.877-20.069 21.491v108.198c-71.657 20.78-108.921 76.671-108.921 151.192 0 73.092 46.575 136.867 115.369 154.778 14.331 3.58 28.657 5.732 42.994 5.732 87.418 0 159.792-71.657 159.792-160.509 0-73.092-58.76-129.701-108.921-151.192v-108.198c0-12.903-13.615-21.491-30.097-21.491v0zM349.958 247.365h48.72c2.863 0 1.434 0.711 8.594 0.711v115.369c0 5.020 1.434 8.594 5.732 10.034 49.437 15.76 101.755 68.078 101.755 133.28 0 76.671-62.334 139.012-137.578 139.012-12.903 0-25.795-1.434-37.98-5.020-58.76-15.048-99.603-70.223-99.603-133.998 0-67.355 38.692-116.798 101.038-132.563 5.020-1.434 9.317-5.732 9.317-10.746v-116.081zM411.587 354.845h-78.823c-5.732 0-10.746 5.020-10.746 10.746s5.020 10.746 10.746 10.746h78.823c5.732 0 10.746-5.020 10.746-10.746s-5.020-10.746-10.746-10.746v0zM411.587 319.016h-71.657c-5.732 0-10.746 5.020-10.746 10.746s5.020 10.746 10.746 10.746h71.657c5.732 0 10.746-5.020 10.746-10.746s-5.020-10.746-10.746-10.746v0z" />
<glyph unicode="&#xe964;" glyph-name="n45" horiz-adv-x="986" d="M281.23 310.377c50.8-58.186 125.524-94.952 208.837-94.952 86.588 0 163.891 39.705 214.709 101.905-15.243 30.797-63.458 67.533-86.93 75.317-25.721 8.529-52.131 15.017-78.249 22.33-3.36 0.904-6.152 2.554-8.51 4.997-7.869 8.18-7.588 22.33 0.599 30.193 2.199 2.089 4.716 3.934 7.026 5.938 4.875 4.246 10.19 8.18 14.54 12.891 22.043 23.821 30.956 52.528 31.958 84.297-0.275 3.104 26.765 0 26.765 48.515h-16.379c0 0 20.766 8.016 26.765 26.148 5.993 18.084 5.993 29.96 5.993 29.96s-103.774 4.368-152.423-6.097c-38.11-8.18-64.106-28.464-76.447-65.028-5.712-16.862-4.918-34.365-2.761-51.624 4.319-34.323 20.411-62.163 48.967-82.684 5.437-3.892 8.303-9.121 9.024-15.609 1.081-9.634-4.918-19.3-13.465-21.701-15.457-4.368-30.956-8.492-46.334-13.092-12.866-3.849-25.824-7.282-38.465-11.834-48.563-17.485-67.906-53.585-75.237-79.88z" />
</font>
</defs>
</svg>
