<svg xmlns="http://www.w3.org/2000/svg" width="23" height="23" viewBox="0 0 23 23">
  <g fill="none" fill-rule="evenodd">
    <g fill="#71717B">
      <g>
        <g>
          <g>
            <path d="M8.891 12.968c-.088.042-.178.062-.288.062-.244 0-.444-.125-.556-.314l-.045-.083-1.754-3.607c-.022-.043-.022-.083-.022-.126 0-.168.133-.294.312-.294.066 0 .133.02.2.063l2.065 1.384c.155.083.333.146.533.146.111 0 .22-.02.332-.063l9.687-4.067c-1.733-1.93-4.598-3.188-7.842-3.188-5.287 0-9.596 3.376-9.596 7.547 0 2.264 1.288 4.319 3.309 5.703.154.106.266.294.266.483 0 .062-.022.125-.045.188-.155.566-.423 1.49-.423 1.53-.022.063-.045.146-.045.231 0 .168.133.294.311.294.067 0 .133-.02.178-.063l2.087-1.153c.155-.083.333-.146.512-.146.087 0 .2.02.287.043.977.271 2.044.42 3.133.42 5.287 0 9.596-3.377 9.596-7.548 0-1.259-.399-2.452-1.088-3.502L8.958 12.925l-.067.043z" transform="translate(-1087 -414) translate(916 376) translate(152 26) translate(19 12.5)"/>
          </g>
        </g>
      </g>
    </g>
  </g>
</svg>
