<svg xmlns="http://www.w3.org/2000/svg" width="23" height="23" viewBox="0 0 23 23">
  <g fill="none" fill-rule="evenodd">
    <g fill="#71717B">
      <g>
        <g>
          <g>
            <path d="M20.262 14.027l-5.637-1.814s.433-.62.896-1.836c.462-1.216.528-1.884.528-1.884l-3.648-.029V7.272l4.418-.03V6.4H12.4V4.48h-2.164V6.4H6.112v.843l4.123-.028v1.278H6.928v.668h6.807s-.075.542-.336 1.216c-.26.674-.53 1.265-.53 1.265s-3.195-1.07-4.88-1.07c-1.684 0-3.732.647-3.93 2.525-.198 1.877.953 2.894 2.576 3.269 1.623.376 3.121-.004 4.426-.615 1.304-.61 2.585-1.996 2.585-1.996l6.57 3.051c-.269 1.489-1.62 2.576-3.199 2.575H5.983c-1.79.002-3.243-1.385-3.245-3.098V5.723C2.736 4.01 4.187 2.62 5.978 2.619h11.039c1.79-.002 3.243 1.386 3.245 3.098v8.31zm-8.215-1.051s-2.051 2.476-4.467 2.476c-2.418 0-2.925-1.176-2.925-2.022 0-.846.502-1.765 2.559-1.898 2.056-.133 4.834 1.444 4.834 1.444h-.001z" transform="translate(-1232 -414) translate(916 376) translate(304 26) translate(12 12.5)"/>
          </g>
        </g>
      </g>
    </g>
  </g>
</svg>
