<svg xmlns="http://www.w3.org/2000/svg" width="22" height="22" viewBox="0 0 22 22">
  <g fill="none" fill-rule="evenodd">
    <g fill="#6F6F71">
      <g>
        <g>
          <g>
            <path d="M12.498 14.602L15.508 14.602 15.508 12.919 12.498 12.919 12.498 12.38 12.84 11.774 15.508 11.774 15.508 10.024 13.73 10.024 15.919 5.042 13.182 5.042 11.335 10.226 9.557 5.042 6.752 5.042 8.941 10.024 6.752 10.024 6.82 11.774 9.488 11.774 9.83 12.38 9.83 12.919 6.752 12.919 6.752 14.602 9.83 14.602 9.83 16.958 12.498 16.958z" transform="translate(-932 -516) translate(916 474) translate(0 29) translate(16 13)"/>
          </g>
        </g>
      </g>
    </g>
  </g>
</svg>
