<svg xmlns="http://www.w3.org/2000/svg" xmlns:xlink="http://www.w3.org/1999/xlink" width="24" height="24" viewBox="0 0 24 24">
  <defs>
    <linearGradient id="5e8uol3tdb" x1="0%" x2="100%" y1="76.065%" y2="76.085%">
      <stop offset="0%" stop-color="#1B1B21" stop-opacity=".983"/>
      <stop offset="23.779%" stop-color="#76768B"/>
      <stop offset="61.351%" stop-color="#54546C"/>
      <stop offset="100%" stop-color="#30303A"/>
    </linearGradient>
    <linearGradient id="dv7zdmlo6d" x1="50%" x2="50%" y1="0%" y2="100%">
      <stop offset="0%" stop-color="#61616F"/>
      <stop offset="100%" stop-color="#32323C"/>
    </linearGradient>
    <filter id="ezyf70w79a" width="165%" height="161.9%" x="-32.5%" y="-31%" filterUnits="objectBoundingBox">
      <feOffset dy="1" in="SourceAlpha" result="shadowOffsetOuter1"/>
      <feGaussianBlur in="shadowOffsetOuter1" result="shadowBlurOuter1" stdDeviation="1"/>
      <feColorMatrix in="shadowBlurOuter1" result="shadowMatrixOuter1" values="0 0 0 0 0 0 0 0 0 0 0 0 0 0 0 0 0 0 0.5 0"/>
      <feMerge>
        <feMergeNode in="shadowMatrixOuter1"/>
        <feMergeNode in="SourceGraphic"/>
      </feMerge>
    </filter>
    <filter id="3m0kcx14uf" width="120.8%" height="120.8%" x="-10.4%" y="-10.4%" filterUnits="objectBoundingBox">
      <feOffset dy=".5" in="SourceAlpha" result="shadowOffsetOuter1"/>
      <feColorMatrix in="shadowOffsetOuter1" result="shadowMatrixOuter1" values="0 0 0 0 0 0 0 0 0 0 0 0 0 0 0 0 0 0 0.5 0"/>
      <feMerge>
        <feMergeNode in="shadowMatrixOuter1"/>
        <feMergeNode in="SourceGraphic"/>
      </feMerge>
    </filter>
    <circle id="0voodglm6c" cx="10" cy="10" r="10"/>
  </defs>
  <g fill="none" fill-rule="evenodd">
    <g>
      <g filter="url(#ezyf70w79a)" transform="translate(2 1.5)">
        <circle cx="10" cy="11" r="10" fill="url(#5e8uol3tdb)"/>
        <g>
          <mask id="yipq83rjbe" fill="#fff">
            <use xlink:href="#0voodglm6c"/>
          </mask>
          <use fill="url(#dv7zdmlo6d)" xlink:href="#0voodglm6c"/>
          <circle cx="3" cy="-2" r="10" fill="#FFF" mask="url(#yipq83rjbe)" opacity=".121"/>
          <circle cx="27.5" cy="16.5" r="10" fill="#FFF" mask="url(#yipq83rjbe)" opacity=".128"/>
          <circle cx="-1" cy="3.5" r="11" fill="#FFF" mask="url(#yipq83rjbe)" opacity=".063"/>
          <circle cx="23" cy="23" r="11" fill="#FFF" mask="url(#yipq83rjbe)" opacity=".045"/>
        </g>
      </g>
      <g filter="url(#3m0kcx14uf)" transform="translate(6 5)">
        <path fill="#3A70D2" fill-opacity=".01" fill-rule="nonzero" d="M0 0L12 0 12 12 0 12z"/>
        <path fill="#A8A8AA" d="M11.4 5.533H7.367C6.557 5.533 5.9 6.19 5.9 7s.657 1.467 1.467 1.467H11.4v1.1c0 1.012-.82 1.833-1.834 1.833H2.233C1.221 11.4.4 10.579.4 9.566V4.434c0-1.012.82-1.833 1.833-1.834h7.333c1.013 0 1.834.821 1.834 1.834v1.1zm-7.7-3.3c.436-.228.848-.45 1.236-.662.336-.177.671-.357 1.005-.538.331-.18.59-.318.775-.417C7 .46 7.252.389 7.474.4c.222.012.41.051.563.117.178.09.293.235.423.382l.74 1.333H3.7zm3.666 5.5c-.405 0-.733-.328-.733-.733 0-.405.328-.734.733-.734.405 0 .734.329.734.734 0 .405-.329.733-.734.733z"/>
      </g>
    </g>
  </g>
</svg>
