<svg xmlns="http://www.w3.org/2000/svg" width="36" height="36" viewBox="0 0 36 36">
    <defs>
        <linearGradient id="3n1njpcqea" x1="14.545%" x2="66.55%" y1="21.473%" y2="18.055%">
            <stop offset="0%" stop-color="#ECB30B"/>
            <stop offset="100%" stop-color="#F1BF13"/>
        </linearGradient>
    </defs>
    <g fill="none" fill-rule="evenodd">
        <g>
            <g>
                <path fill="#FFCE3C" d="M0 17.5C0 27.165 7.835 35 17.5 35S35 27.165 35 17.5 27.165 0 17.5 0 0 7.835 0 17.5z" transform="translate(-816 -703) translate(816.5 703.5)"/>
                <path fill="url(#3n1njpcqea)" d="M26.387 8.45L10.418 26.058l-1.395.902L17.145 35h.355C27.152 35 35 27.152 35 17.5v-.52l-8.613-8.53z" transform="translate(-816 -703) translate(816.5 703.5)"/>
                <path fill="#FFF" fill-rule="nonzero" d="M30.133 17.5c0 6.973-5.66 12.633-12.633 12.633-6.973 0-12.633-5.66-12.633-12.633 0-6.973 5.66-12.633 12.633-12.633 6.973 0 12.633 5.66 12.633 12.633z" transform="translate(-816 -703) translate(816.5 703.5)"/>
                <path fill="#1D3541" fill-rule="nonzero" d="M14.52 21.602l-1.832-5.66 4.812-3.5 4.785 3.5-1.832 5.66H14.52zm6.753 7.957c2.68-.848 4.977-2.543 6.563-4.813h-5.004l-1.559 4.813zm6.48-19.414l-1.503 4.648 3.883 2.816V17.5c0-2.762-.875-5.305-2.38-7.355zm-14.41 19.277l-1.366-4.211H7.492c1.504 1.914 3.528 3.39 5.852 4.21zM7.41 9.898c-1.586 2.106-2.543 4.758-2.543 7.602v.3l4.13-3.007L7.41 9.898zm10.09-5.03c-1.477 0-2.898.245-4.21.737l4.21 3.063 4.211-3.063c-1.313-.464-2.734-.738-4.211-.738z" transform="translate(-816 -703) translate(816.5 703.5)"/>
                <path fill="#1D3541" fill-rule="nonzero" d="M28.273 14.465l-.19-.574-10.2 3.172-.082-.137V7.438h-.63v9.652l-9.57-3.2-.19.575L17.5 17.828l.137-.055 5.55 8.067.493-.356-5.442-7.902 10.035-3.117zM10.52 26.403l4.723-6.164.478.366-4.723 6.164-.478-.366z" transform="translate(-816 -703) translate(816.5 703.5)"/>
            </g>
        </g>
    </g>
</svg>
