<svg xmlns="http://www.w3.org/2000/svg" width="24" height="24" viewBox="0 0 24 24">
    <g fill="none" fill-rule="evenodd">
        <g fill="#06B4FD" fill-rule="nonzero">
            <g>
                <g>
                    <g>
                        <path d="M4.55 10.407c-.22.187-.45.462-.515.806-.092.472-.018 1.062.405 1.533.516.56 1.307.718 1.648.748.92.068 1.905-.423 2.65-.974.295-.216.793-.658 1.262-1.337-1.068-.59-2.403-1.238-3.82-1.18-.727.03-1.252.188-1.63.404zm13.69 2.807c.485-1.14.76-2.394.76-3.714C19 4.266 14.735 0 9.5 0 4.266 0 0 4.266 0 9.5 0 14.735 4.266 19 9.5 19c3.164 0 5.966-1.558 7.695-3.933-1.634-.808-4.322-2.147-5.985-2.954-.789.902-1.957 1.805-3.277 2.194-.827.247-1.577.342-2.356.18-.78-.161-1.35-.522-1.682-.883-.171-.19-.361-.418-.503-.703.009.019.019.038.019.057 0 0-.086-.143-.143-.361-.028-.114-.057-.218-.066-.332-.01-.077-.01-.162 0-.238-.01-.143 0-.294.028-.446.076-.38.238-.817.656-1.216.912-.893 2.128-.941 2.764-.931.931.009 2.565.418 3.933.902.38-.807.627-1.672.779-2.251h-5.7v-.618h2.926V6.232H5.054v-.627h3.534V4.37c0-.171.038-.304.304-.304h1.387v1.539h3.848v.618h-3.848v1.235h3.078s-.313 1.719-1.273 3.42c2.138.76 5.159 1.938 6.156 2.336z" transform="translate(-508 -229) translate(364 229) translate(144) translate(2.5 2.5)"/>
                    </g>
                </g>
            </g>
        </g>
    </g>
</svg>
