<svg xmlns="http://www.w3.org/2000/svg" width="24" height="24" viewBox="0 0 24 24">
    <g fill="none" fill-rule="evenodd">
        <g fill="#09BB07" fill-rule="nonzero">
            <g>
                <g>
                    <g>
                        <path d="M7.278 11.147c-.092.046-.186.068-.3.068-.256 0-.464-.137-.581-.343l-.047-.09-1.83-3.936c-.023-.046-.023-.09-.023-.137 0-.183.139-.32.325-.32.07 0 .139.022.208.068l2.156 1.51c.161.09.347.16.555.16.117 0 .231-.023.348-.07l10.107-4.436C16.388 1.516 13.4.143 10.013.143 4.497.143 0 3.826 0 8.376c0 2.47 1.344 4.712 3.453 6.222.161.115.278.32.278.526 0 .068-.023.137-.047.206-.162.616-.442 1.625-.442 1.669-.022.068-.047.159-.047.252 0 .183.14.32.325.32.07 0 .139-.022.186-.068l2.178-1.258c.161-.09.347-.16.533-.16.092 0 .209.023.3.047 1.02.296 2.134.458 3.27.458C15.503 16.59 20 12.906 20 8.356c0-1.373-.417-2.675-1.136-3.82L7.347 11.1l-.07.046z" transform="translate(-476 -229) translate(364 229) translate(112) translate(2 3)"/>
                    </g>
                </g>
            </g>
        </g>
    </g>
</svg>
