<svg xmlns="http://www.w3.org/2000/svg" xmlns:xlink="http://www.w3.org/1999/xlink" width="24" height="24" viewBox="0 0 24 24">
    <defs>
        <circle id="dctdqjciwa" cx="9.5" cy="9.5" r="9.5"/>
    </defs>
    <g fill="none" fill-rule="evenodd">
        <g>
            <g>
                <g>
                    <g transform="translate(-540 -229) translate(364 229) translate(176) translate(2.5 2.5)">
                        <mask id="fgcp315mbb" fill="#fff">
                            <use xlink:href="#dctdqjciwa"/>
                        </mask>
                        <circle cx="9.5" cy="9.5" r="9" stroke="#979797"/>
                        <path fill="#E60012" fill-rule="nonzero" d="M1.29.025C.55.143-.193.915-.436 1.806c-.161.554-3.06 16.278-3.074 16.564-.027.823.35 1.428.971 1.58.23.066 7.59.066 7.833 0 .701-.169 1.362-.858 1.605-1.698.094-.319 3.087-16.345 3.087-16.614.04-.756-.324-1.378-.903-1.596C8.948.01 1.6-.025 1.29.025z" mask="url(#fgcp315mbb)"/>
                        <path fill="#00508E" fill-rule="nonzero" d="M8.454.025c-.77.118-1.538.89-1.79 1.781-.154.554-3.173 16.278-3.173 16.564-.029.823.363 1.428 1.006 1.58.238.066 7.872.066 8.123 0 .728-.169 1.413-.858 1.664-1.698.098-.319 3.202-16.345 3.202-16.614.042-.756-.336-1.378-.937-1.596C16.395.01 8.775-.025 8.454.025z" mask="url(#fgcp315mbb)"/>
                        <path fill="#00908C" fill-rule="nonzero" d="M15.936.041c-.766.118-1.532.89-1.783 1.78-.153.553-3.163 16.265-3.163 16.55-.027.823.363 1.427 1.004 1.578.237.067 5.893.067 6.144 0 .724-.168 1.407-.856 1.657-1.695.098-.32 3.191-16.333 3.191-16.601.042-.756-.334-1.377-.934-1.595-.139-.05-6.492-.084-6.812-.033h.696V.04z" mask="url(#fgcp315mbb)"/>
                        <path fill="#FFF" fill-rule="nonzero" d="M2.693 6.822c0 .01-.01.077-.033.142-.255.857-.51 2.011-.477 2.154.089.428.722.395.944-.055.066-.12.544-2.131.544-2.274 0-.011.755 0 .755.01 0 0 0 .034-.012.067-.01.033-.133.494-.266 1.043-.3 1.165-.333 1.286-.489 1.516-.51.748-2.22.726-2.353-.032-.034-.165.333-2.066.5-2.582 0-.033.887-.011.887.01zm11.348 0c.51.11.666.516.432 1.12-.233.605-.732.868-1.61.868-.266 0-.244-.044-.41.78-.033.154-.067.297-.067.319-.011.055-.8.055-.788 0 .666-2.824.722-3.065.722-3.087l.01-.033h.8c.633.01.81.01.91.033zM7.19 7.909c.11.022.188.11.188.187 0 .275-.566.462-.777.253-.2-.209.222-.528.588-.44zm-1.966.209c0 .022-.011.066-.011.099l-.011.044.133-.066c.355-.176.7-.143.81.077.067.132.056.209-.122 1.022-.033.142-.077.34-.088.439-.045.22-.012.209-.411.209-.345 0-.345 0-.333-.033 0-.022.044-.198.088-.407.178-.78.19-.89.034-.89-.09 0-.211.055-.222.088-.022.077-.222 1.033-.234 1.12l-.022.1-.344.022c-.422.01-.388.044-.3-.33.122-.483.19-.824.234-1.131.055-.33.022-.297.333-.341.144-.022.288-.044.333-.055.11-.033.133-.022.133.033zm5.274-.01c0 .021-.011.065-.011.098l-.012.055.134-.066c.688-.352.955-.066.755.835-.045.198-.1.483-.133.615-.023.143-.056.264-.067.275-.045.044-.7.033-.689 0 0-.022.045-.198.09-.396.188-.802.188-.9.022-.9-.134 0-.2.043-.222.142-.034.121-.2.912-.223 1.055l-.022.12-.344.012c-.422.01-.389.055-.289-.352.111-.44.19-.846.245-1.142.044-.286.01-.253.288-.297.122-.022.278-.044.333-.055.111-.055.145-.044.145 0zm6.74-.012c.043.67.055.868.055.879 0 .011.1-.165.21-.385.223-.439.178-.395.422-.428.067-.011.2-.033.3-.055.244-.044.244-.066-.033.418-.378.648-.9 1.56-1.088 1.89-.566 1.02-.566 1.02-1.044 1.032l-.288.01.022-.076c.01-.044.044-.132.055-.198l.034-.12h.088c.1 0 .122-.023.211-.176.034-.055.09-.143.111-.198.034-.055.145-.23.233-.407l.178-.307-.044-.407c-.056-.472-.122-1.032-.156-1.197-.022-.154-.022-.154.178-.176.089-.011.233-.044.31-.055.212-.066.234-.066.245-.044zm-8.372.011c.855.154.555 1.626-.378 1.835-.633.143-1.066-.1-1.066-.583.011-.845.644-1.395 1.444-1.252zm6.395.044c.044.022.11.066.144.099.056.055.056.055.056.022.01-.044 0-.044.444-.11.355-.055.344-.055.322.044-.145.615-.267 1.153-.322 1.417-.078.396-.022.352-.455.34h-.367V9.92c0-.044-.022-.066-.044-.033-.122.198-.722.12-.889-.121-.41-.615.467-1.912 1.11-1.615zM7.29 8.47s0 .055-.011.099C7.19 8.92 7.035 9.634 7 9.766l-.033.165-.366.01c-.433.012-.411.034-.322-.23.077-.253.155-.56.2-.89.044-.285 0-.242.322-.285.144-.022.3-.044.333-.055.088-.022.144-.022.155-.011zm1.943 2.274c0 .01-.022.055-.056.11-.022.055-.055.099-.055.099.655.01.677.01.666.043l-.122.396h-.955l-.055.044c-.123.11-.766.253-.766.165l.122-.396H8.1c.155 0 .188-.033.322-.263l.11-.21c.578-.01.7 0 .7.012zm1.454 0c0 .01-.01.066-.033.132-.022.055-.033.11-.033.12 0 0 .055-.022.122-.076.244-.165.455-.198 1.077-.198.244 0 .455 0 .466.01.011.023-.355 1.21-.41 1.32-.078.142-.156.219-.278.274l-.111.044-.633.01-.633.012-.11.373c-.223.714-.223.66.099.627.255-.023.244-.044.167.22l-.067.219h-.322c-.7.011-.788-.033-.722-.319.034-.142.833-2.757.844-2.78.011-.01.577-.01.577.012zm2.92 0c0 .01-.01.044-.022.088-.033.11-.033.11.111.033.189-.1.633-.132 1.544-.132h.288v.132c0 .153.011.164.145.186l.1.011-.056.198-.056.198h-.2c-.51.01-.588-.044-.599-.34v-.144l-.033.1-.034.11h-.11c-.056 0-.112 0-.112.01l-.621 2.044c-.011.022 0 .033.066.033.1 0 .1 0 .067.087-.033.1-.033.1.078.1.077 0 .122-.012.177-.044.078-.044.078-.033.433-.528l.145-.209h-.3c-.367 0-.333.022-.267-.197l.056-.176h.733c.066-.23.088-.297.088-.308 0-.01-.155-.01-.355-.01h-.355l.11-.396h1c.544 0 1 0 1 .01 0 .012-.023.1-.056.199l-.056.186-.333.011-.333.011c-.055.165-.077.242-.089.264l-.01.044h.321c.378 0 .356-.022.278.198l-.056.175h-.732l-.111.132h.288l.045.264c.044.297.044.297.188.297.111 0 .111-.023.034.241l-.067.22h-.21c-.367 0-.434-.055-.5-.428l-.034-.242-.133.176c-.367.494-.389.505-.855.505-.3 0-.3 0-.255-.088.01-.044.01-.044-.078-.044-.089 0-.089 0-.111.066l-.011.066h-.622l.011-.033c.033-.11.089-.099-.588-.099-.589 0-.622 0-.61-.033l.055-.198c.066-.197.055-.197.122-.197.055 0 .055 0 .077-.077.522-1.725.689-2.274.711-2.351l.044-.143h.311c.2 0 .344.01.344.022zm-3.941.945l-.122.384h-.666c-.067.22-.09.286-.1.308-.011.033.01.033.333.033.189 0 .344.01.344.01 0 .012-.011.034-.022.067-.011.022-.033.11-.056.197l-.044.143h-.688l-.078.264c-.111.373-.1.384.322.33.177-.022.166-.044.089.22l-.067.219h-.466c-.733 0-.744-.022-.544-.648.055-.198.11-.363.11-.363s-.077-.01-.188-.01c-.1 0-.189 0-.189-.012.078-.274.111-.362.111-.384.011-.022.034-.033.2-.033h.189l.089-.34h-.178c-.133 0-.178 0-.178-.023 0-.022.1-.34.111-.373.023-.022 1.7-.011 1.688.01zm2.154.79c0 .023-.022.089-.033.143-.067.308-.156.374-.511.396l-.233.022c-.023.033-.023.297 0 .34l.033.045.222-.011c.122-.011.222-.011.222-.011 0 .022-.122.406-.133.417-.022.022-.7.011-.788-.022-.134-.044-.134-.033-.123-.725l.012-.604h.566v.23h.11c.123 0 .134-.01.19-.164l.033-.088h.222c.2.01.222.01.21.033zm1.044-4.701l-.123.527h.167c.855.022 1.21-.956.377-1.022l-.266-.022c-.033 0-.033.033-.155.517zm-4.42.747c-.21.087-.41.878-.244 1 .123.098.3-.067.39-.341.143-.506.099-.747-.145-.66zm6.618.054c-.222.11-.389.89-.222.978.222.121.51-.296.51-.747 0-.209-.122-.307-.288-.23zm-4.486 2.615l-.055.198c-.033.099-.056.187-.067.198 0 .01.056-.011.134-.055.222-.11.288-.132.61-.143l.278-.011c.044-.132.055-.187.055-.198.011-.01-.943-.01-.955.011zm-.188.637l-.045.176.955-.01.056-.177c-.755 0-.966 0-.966.011zm3.02-.395c-.045.143-.078.253-.067.253l.133-.044c.067-.022.189-.055.256-.066.066-.011.122-.022.133-.022 0 0 .11-.34.11-.352 0 0-.11-.01-.243-.01h-.245l-.077.24zm-.178.56c0 .011-.044.121-.078.253-.044.132-.077.253-.077.253 0 .01.055-.011.133-.044.077-.033.189-.066.255-.077.144-.022.156-.033.167-.088.01-.022.033-.11.055-.176l.045-.132h-.245c-.133 0-.255 0-.255.011zm-.389 1.264l.489.01c.1-.329.133-.439.133-.45l-.488-.022-.134.462z" mask="url(#fgcp315mbb)"/>
                    </g>
                </g>
            </g>
        </g>
    </g>
</svg>
