<svg xmlns="http://www.w3.org/2000/svg" width="22" height="22" viewBox="0 0 22 22">
  <g fill="none" fill-rule="evenodd">
    <g fill="#A8A8AA">
      <g>
        <g>
          <g>
            <path d="M15.942 7.544V5.051H5.732v2.493h3.764v1.63c-3.06.137-5.364.74-5.364 1.464s2.304 1.327 5.364 1.464v5.229h2.682v-5.23c3.048-.14 5.34-.742 5.34-1.463 0-.721-2.292-1.324-5.34-1.464v-1.63h3.764zm.424 2.947c0 .476-1.782.875-4.188.986l-.156.006h-.017l-.146.006h-.016l-.329.009h-.007l-.149.003h-.042l-.118.002h-.745l-.116-.002h-.04l-.14-.003h-.015c-.162-.004-.325-.009-.487-.015h-.002l-.16-.007c-2.418-.109-4.21-.51-4.21-.988s1.793-.878 4.21-.988v1.513c.42.021.867.034 1.33.034.47 0 .925-.013 1.353-.036V9.504c2.408.111 4.19.51 4.19.987z" transform="translate(-932 -518) translate(916 240) translate(0 265) translate(16 13)"/>
          </g>
        </g>
      </g>
    </g>
  </g>
</svg>
