<svg xmlns="http://www.w3.org/2000/svg" width="15" height="16" viewBox="0 0 15 16">
    <g fill="none" fill-rule="evenodd">
        <g fill="#AAA" fill-rule="nonzero">
            <g>
                <g>
                    <path d="M6.933 9.245h1.088c.317 0 .544-.272.544-.59 0-.316-.227-.588-.544-.588H6.933c-.316 0-.543.271-.543.589 0 .317.272.589.543.589zm0 2.31h1.088c.317 0 .544-.27.544-.588 0-.317-.227-.59-.544-.59H6.933c-.316 0-.543.272-.543.59 0 .316.272.589.543.589zm5.892-10.377h-2.13V.59c0-.316-.227-.589-.544-.589-.317 0-.543.272-.543.59v.588h-4.26V.59C5.348.273 5.12 0 4.803 0c-.316 0-.543.272-.543.59v.588H2.13C.952 1.178 0 2.22 0 3.49v9.2C0 13.958.952 15 2.13 15h10.695c1.178 0 2.13-1.042 2.13-2.31v-9.2c0-1.27-.952-2.312-2.13-2.312zm1.042 11.511c0 .634-.499 1.134-1.088 1.134H2.085c-.59 0-1.088-.5-1.088-1.134V5.8h12.825v6.888h.045v.001zm0-8.021H1.042V3.534c0-.633.499-1.132 1.088-1.132h2.13v.589c0 .317.227.589.543.589.318 0 .545-.272.545-.59v-.588h4.26v.589c0 .317.226.589.543.589.317 0 .544-.272.544-.59v-.588h2.13c.59 0 1.088.498 1.088 1.133v1.133h-.046zm-10.15 6.888h1.086c.318 0 .545-.272.545-.59 0-.316-.227-.588-.545-.588H3.717c-.317 0-.544.271-.544.589 0 .316.272.589.544.589zm6.434-2.311h1.087c.318 0 .545-.272.545-.59 0-.316-.227-.588-.545-.588h-1.087c-.317 0-.543.271-.543.589 0 .317.226.589.543.589zm-6.435 0h1.087c.318 0 .544-.272.544-.59 0-.316-.226-.588-.544-.588H3.717c-.317 0-.544.271-.544.589.045.317.272.589.544.589h-.001zm6.435 2.31h1.087c.318 0 .545-.27.545-.588 0-.317-.227-.59-.545-.59h-1.087c-.317 0-.543.272-.543.59 0 .316.226.589.543.589z" transform="translate(-336 -144) translate(12.5 135) translate(323.5 9.5)"/>
                </g>
            </g>
        </g>
    </g>
</svg>
