<svg xmlns="http://www.w3.org/2000/svg" width="45" height="44" viewBox="0 0 45 44">
    <g fill="none" fill-rule="evenodd">
        <g fill="#67CA2C" fill-rule="nonzero">
            <g>
                <path d="M21.302 35.876L6.304 20.386l3.846-3.126 8.672 6.906c3.554-4.292 11.444-12.808 22.33-19.58l.916 2.146c-9.992 9.32-18.172 22.44-20.766 29.146M40.24 18.966c1.668 10.085-5.156 19.612-15.24 21.28-10.085 1.667-19.612-5.156-21.28-15.24-.165-1-.248-2.012-.248-3.026v-.003c0-10.222 8.286-18.508 18.508-18.508 2.391 0 4.76.463 6.975 1.364V1.13C26.707.378 24.351-.004 21.98 0 16.15-.007 10.557 2.31 6.44 6.438 2.311 10.555-.006 16.148 0 21.978c-.007 5.83 2.31 11.423 6.438 15.54 4.116 4.13 9.71 6.448 15.54 6.44 5.83.008 11.424-2.309 15.54-6.438 4.13-4.116 6.448-9.709 6.44-15.54 0-1.018-.07-2.024-.206-3.016H40.24v.002z" transform="translate(-165 -235) translate(165.5 235)"/>
            </g>
        </g>
    </g>
</svg>
