<?xml version="1.0" encoding="UTF-8"?>
<svg width="60px" height="60px" viewBox="0 0 60 60" version="1.1" xmlns="http://www.w3.org/2000/svg" xmlns:xlink="http://www.w3.org/1999/xlink">
    <!-- Generator: Sketch 49.3 (51167) - http://www.bohemiancoding.com/sketch -->
    <title>touzhu card/bet up</title>
    <desc>Created with Sketch.</desc>
    <defs></defs>
    <g id="4-投注单" stroke="none" stroke-width="1" fill="none" fillRule="evenodd">
        <g id="弹窗投注单/不同卡片状态" transform="translate(-255.000000, -178.000000)">
            <g id="touzhu-card/folded" transform="translate(10.000000, 154.000000)">
                <g id="touzhu-card/bet-up" transform="translate(245.000000, 24.000000)">
                    <g>
                        <circle id="Oval" fill="#313236" cx="30" cy="30" r="30"></circle>
                        <path d="M32.9665114,28.0764544 L43.6237051,38.6185043 C44.4645345,39.4502491 44.4645345,40.7987738 43.6237051,41.6305185 C42.7828757,42.4622633 41.419622,42.4622633 40.5787926,41.6305185 L28.3991427,29.5824616 C27.5583133,28.7507168 27.5583133,27.4021921 28.3991427,26.5704473 L40.5787926,14.5223903 C41.419622,13.6906456 42.7828757,13.6906456 43.6237051,14.5223903 C44.4645345,15.3541351 44.4645345,16.7026598 43.6237051,17.5344046 L32.9665114,28.0764544 Z M21.299409,28.0764544 L31.9566027,38.6185043 C32.797432,39.4502491 32.797432,40.7987738 31.9566027,41.6305185 C31.1157733,42.4622633 29.7525196,42.4622633 28.9116902,41.6305185 L16.7320403,29.5824616 C15.8912109,28.7507168 15.8912109,27.4021921 16.7320403,26.5704473 L28.9116902,14.5223903 C29.7525196,13.6906456 31.1157733,13.6906456 31.9566027,14.5223903 C32.797432,15.3541351 32.797432,16.7026598 31.9566027,17.5344046 L21.299409,28.0764544 Z" id="Combined-Shape" fill="#3D3E43" transform="translate(30.177873, 28.076454) rotate(-270.000000) translate(-30.177873, -28.076454) "></path>
                    </g>
                </g>
            </g>
        </g>
    </g>
</svg>