<svg xmlns="http://www.w3.org/2000/svg" width="17" height="16" viewBox="0 0 17 16">
    <g fill="none" fill-rule="evenodd">
        <g fill="#EBBA73" fill-rule="nonzero">
            <g>
                <g>
                    <path d="M16.01 5.552L13.156.409C13.015.156 12.755 0 12.465 0H3.65c-.29 0-.55.156-.691.409L.098 5.552c-.163.29-.119.654.104.906l7.269 8.138c.148.171.364.26.587.26.223 0 .438-.096.587-.26l7.268-8.138c.223-.245.26-.61.097-.906zM11.75 6.889l-.007.008-3.1 3.47c-.148.171-.363.26-.586.26-.223 0-.439-.096-.587-.26l-3.13-3.5c-.17-.186-.163-.483.03-.654.186-.17.484-.163.655.03l.007.007 3.025 3.39 2.995-3.353c.17-.193.46-.215.654-.044.193.163.215.453.044.646z" transform="translate(-1493 -22) translate(1277 14) translate(216 8.5)"/>
                </g>
            </g>
        </g>
    </g>
</svg>
