<svg xmlns="http://www.w3.org/2000/svg" width="18" height="16" viewBox="0 0 18 16">
    <g fill="none" fill-rule="evenodd">
        <g fill="#EBBA73" fill-rule="nonzero">
            <g>
                <g>
                    <path d="M16.688 8.1l-.365-.151-2.22-.004V1.526c0-.697-.57-1.263-1.264-1.263H4.32c-.697 0-1.263.57-1.263 1.263v6.405L.857 7.927l-.368.184c-.517.466-.52 1.015-.054 1.531l6.863 5.892c.465.516 1.989.556 2.505.09l6.759-5.852c.61-.556.592-1.155.126-1.672zm-5.076-.743c0 .328-.267.595-.596.595H9.175v1.084h1.841c.329 0 .596.267.596.595 0 .329-.267.596-.596.596H9.175v1.408c0 .328-.267.596-.596.596-.328 0-.595-.268-.595-.596v-1.408H6.142c-.328 0-.595-.267-.595-.596 0-.328.267-.595.595-.595h1.842V7.952H6.142c-.328 0-.595-.267-.595-.595 0-.329.267-.596.595-.596h1.733L6.052 4.934c-.23-.23-.23-.61 0-.84.231-.232.61-.232.841 0l1.694 1.692 1.693-1.693c.23-.231.61-.231.84 0 .232.231.232.61 0 .841L9.295 6.761h1.722c.329 0 .596.267.596.596zm4.332.592l-1.841-.004V1.526c0-.697-.57-1.263-1.264-1.263H4.32c-.697 0-1.263.57-1.263 1.263v6.405l-2.2-.004-.367.184c-.517.466-.52 1.015-.054 1.531l6.863 5.892c.465.516 1.989.556 2.505.09l6.141-5.314V7.949zm-4.332-.592c0 .328-.267.595-.596.595H9.175v1.084h1.841c.329 0 .596.267.596.595 0 .329-.267.596-.596.596H9.175v1.408c0 .328-.267.596-.596.596-.328 0-.595-.268-.595-.596v-1.408H6.142c-.328 0-.595-.267-.595-.596 0-.328.267-.595.595-.595h1.842V7.952H6.142c-.328 0-.595-.267-.595-.595 0-.329.267-.596.595-.596h1.733L6.052 4.934c-.23-.23-.23-.61 0-.84.231-.232.61-.232.841 0l1.694 1.692 1.693-1.693c.23-.231.61-.231.84 0 .232.231.232.61 0 .841L9.295 6.761h1.722c.329 0 .596.267.596.596zm3.61.592h-1.119V1.526c0-.697-.57-1.263-1.264-1.263H4.32c-.697 0-1.263.57-1.263 1.263v6.405l-2.2-.004-.367.184c-.517.466-.52 1.015-.054 1.531l6.863 5.892c.465.516 1.989.556 2.505.09l5.42-4.693V7.949zm-3.61-.592c0 .328-.267.595-.596.595H9.175v1.084h1.841c.329 0 .596.267.596.595 0 .329-.267.596-.596.596H9.175v1.408c0 .328-.267.596-.596.596-.328 0-.595-.268-.595-.596v-1.408H6.142c-.328 0-.595-.267-.595-.596 0-.328.267-.595.595-.595h1.842V7.952H6.142c-.328 0-.595-.267-.595-.595 0-.329.267-.596.595-.596h1.733L6.052 4.934c-.23-.23-.23-.61 0-.84.231-.232.61-.232.841 0l1.694 1.692 1.693-1.693c.23-.231.61-.231.84 0 .232.231.232.61 0 .841L9.295 6.761h1.722c.329 0 .596.267.596.596zm2.888.588h-.397V1.526c0-.697-.57-1.263-1.264-1.263H4.32c-.697 0-1.263.57-1.263 1.263v6.405l-2.2-.004-.367.184c-.517.466-.52 1.015-.054 1.531l6.863 5.892c.465.516 1.989.556 2.505.09l4.697-4.061V7.945zm-2.888-.588c0 .328-.267.595-.596.595H9.175v1.084h1.841c.329 0 .596.267.596.595 0 .329-.267.596-.596.596H9.175v1.408c0 .328-.267.596-.596.596-.328 0-.595-.268-.595-.596v-1.408H6.142c-.328 0-.595-.267-.595-.596 0-.328.267-.595.595-.595h1.842V7.952H6.142c-.328 0-.595-.267-.595-.595 0-.329.267-.596.595-.596h1.733L6.052 4.934c-.23-.23-.23-.61 0-.84.231-.232.61-.232.841 0l1.694 1.692 1.693-1.693c.23-.231.61-.231.84 0 .232.231.232.61 0 .841L9.295 6.761h1.722c.329 0 .596.267.596.596zM13.778.68c-.231-.256-.567-.418-.939-.418H4.32c-.697 0-1.263.57-1.263 1.263v6.405l-2.2-.004-.367.184c-.517.466-.52 1.015-.054 1.531l6.863 5.892c.465.516 1.989.556 2.505.09l3.975-3.437V.681zm-2.166 6.676c0 .328-.267.595-.596.595H9.175v1.084h1.841c.329 0 .596.267.596.595 0 .329-.267.596-.596.596H9.175v1.408c0 .328-.267.596-.596.596-.328 0-.595-.268-.595-.596v-1.408H6.142c-.328 0-.595-.267-.595-.596 0-.328.267-.595.595-.595h1.842V7.952H6.142c-.328 0-.595-.267-.595-.595 0-.329.267-.596.595-.596h1.733L6.052 4.934c-.23-.23-.23-.61 0-.84.231-.232.61-.232.841 0l1.694 1.692 1.693-1.693c.23-.231.61-.231.84 0 .232.231.232.61 0 .841L9.295 6.761h1.722c.329 0 .596.267.596.596zM13.056.28c-.072-.011-.144-.018-.217-.018H4.32c-.697 0-1.263.57-1.263 1.263v6.405l-2.2-.004-.367.184c-.517.466-.52 1.015-.054 1.531l6.863 5.892c.465.516 1.989.556 2.505.09l3.253-2.816V.281zm-1.444 7.076c0 .328-.267.595-.596.595H9.175v1.084h1.841c.329 0 .596.267.596.595 0 .329-.267.596-.596.596H9.175v1.408c0 .328-.267.596-.596.596-.328 0-.595-.268-.595-.596v-1.408H6.142c-.328 0-.595-.267-.595-.596 0-.328.267-.595.595-.595h1.842V7.952H6.142c-.328 0-.595-.267-.595-.595 0-.329.267-.596.595-.596h1.733L6.052 4.934c-.23-.23-.23-.61 0-.84.231-.232.61-.232.841 0l1.694 1.692 1.693-1.693c.23-.231.61-.231.84 0 .232.231.232.61 0 .841L9.295 6.761h1.722c.329 0 .596.267.596.596zm.722-7.094H4.319c-.697 0-1.263.57-1.263 1.263v6.405l-2.2-.004-.367.184c-.517.466-.52 1.015-.054 1.531l6.863 5.892c.465.516 1.989.556 2.505.09l2.531-2.191V.263zm-1.318 8.773c.329 0 .596.267.596.595 0 .329-.267.596-.596.596H9.175v1.408c0 .328-.267.596-.596.596-.328 0-.595-.268-.595-.596v-1.408H6.142c-.328 0-.595-.267-.595-.596 0-.328.267-.595.595-.595h1.842V7.952H6.142c-.328 0-.595-.267-.595-.595 0-.329.267-.596.595-.596h1.733L6.052 4.934c-.23-.23-.23-.61 0-.84.231-.232.61-.232.841 0l1.694 1.692 1.693-1.693c.23-.231.61-.231.84 0 .232.231.232.61 0 .841L9.295 6.761h1.722c.329 0 .596.267.596.596 0 .328-.267.595-.596.595H9.175v1.084h1.841zm0-1.084H9.175v1.084h1.841c.329 0 .596.267.596.595V7.357c0 .328-.267.595-.596.595zm.596 1.68c0 .328-.267.595-.596.595H9.175v1.408c0 .328-.267.596-.596.596-.328 0-.595-.268-.595-.596v-1.408H6.142c-.328 0-.595-.267-.595-.596 0-.328.267-.595.595-.595h1.842V7.952H6.142c-.328 0-.595-.267-.595-.595 0-.329.267-.596.595-.596h1.733L6.052 4.934c-.23-.23-.23-.61 0-.84.231-.232.61-.232.841 0l1.694 1.692 1.693-1.693c.23-.231.61-.231.84 0 .232.231.232.61 0 .841L9.295 6.761h1.722c.329 0 .596.267.596.596V.263H4.319c-.697 0-1.263.57-1.263 1.263v6.405l-2.2-.004-.367.184c-.517.466-.52 1.015-.054 1.531l6.863 5.892c.465.516 1.989.556 2.505.09l1.809-1.567V9.631zM10.89 6.76V5.165L9.294 6.761h1.596zm0 3.466H9.175v1.408c0 .328-.267.596-.596.596-.328 0-.595-.268-.595-.596v-1.408H6.142c-.328 0-.595-.267-.595-.596 0-.328.267-.595.595-.595h1.842V7.952H6.142c-.328 0-.595-.267-.595-.595 0-.329.267-.596.595-.596h1.733L6.052 4.934c-.23-.23-.23-.61 0-.84.231-.232.61-.232.841 0l1.694 1.692 1.693-1.693c.166-.166.404-.213.613-.14V.262H4.32c-.697 0-1.263.57-1.263 1.263v6.405l-2.2-.004-.367.184c-.517.466-.52 1.015-.054 1.531l6.863 5.892c.465.516 1.989.556 2.505.09l1.087-.942v-4.455zM9.175 7.952h1.715v1.084H9.175V7.952zm.993 2.275h-.993v1.408c0 .328-.267.596-.596.596-.328 0-.595-.268-.595-.596v-1.408H6.142c-.328 0-.595-.267-.595-.596 0-.328.267-.595.595-.595h1.842V7.952H6.142c-.328 0-.595-.267-.595-.595 0-.329.267-.596.595-.596h1.733L6.052 4.934c-.23-.23-.23-.61 0-.84.231-.232.61-.232.841 0l1.694 1.692 1.58-1.581V.263H4.32c-.697 0-1.263.57-1.263 1.263v6.405l-2.2-.004-.367.184c-.517.466-.52 1.015-.054 1.531l6.863 5.892c.465.516 1.989.556 2.505.09l.365-.314v-5.083zm0-3.466v-.874l-.874.874h.874zm-.993 1.191h.993v1.084h-.993V7.952zm0 0h.27v1.084h-.27V7.952zm.27-1.191v-.152l-.15.152h.15zm0 3.466h-.27v1.408c0 .328-.267.596-.596.596-.328 0-.595-.268-.595-.596v-1.408H6.142c-.328 0-.595-.267-.595-.596 0-.328.267-.595.595-.595h1.842V7.952H6.142c-.328 0-.595-.267-.595-.595 0-.329.267-.596.595-.596h1.733L6.052 4.934c-.23-.23-.23-.61 0-.84.231-.232.61-.232.841 0l1.694 1.692.859-.859V.263H4.319c-.697 0-1.263.57-1.263 1.263v6.405l-2.2-.004-.367.184c-.517.466-.52 1.015-.054 1.531l6.863 5.892c.382.426 1.483.527 2.148.292v-5.6zm-.721 1.986c-.047.01-.094.018-.145.018-.328 0-.595-.268-.595-.596v-1.408H6.142c-.328 0-.595-.267-.595-.596 0-.328.267-.595.595-.595h1.842V7.952H6.142c-.328 0-.595-.267-.595-.595 0-.329.267-.596.595-.596h1.733L6.052 4.934c-.23-.23-.23-.61 0-.84.231-.232.61-.232.841 0l1.694 1.692.137-.137V.263H4.319c-.697 0-1.263.57-1.263 1.263v6.405l-2.2-.004-.367.184c-.517.466-.52 1.015-.054 1.531l6.863 5.892c.263.292.863.43 1.426.415v-3.736zm-.722-.437c-.011-.047-.018-.094-.018-.141v-1.408H6.142c-.328 0-.595-.267-.595-.596 0-.328.267-.595.595-.595h1.842V7.952H6.142c-.328 0-.595-.267-.595-.595 0-.329.267-.596.595-.596h1.733L6.052 4.934c-.23-.23-.23-.61 0-.84.231-.232.61-.232.841 0L8.002 5.2V.263H4.319c-.697 0-1.263.57-1.263 1.263v6.405l-2.2-.004-.367.184c-.517.466-.52 1.015-.054 1.531l6.863 5.892c.148.166.408.282.704.347v-4.105zm-.722-1.55H6.142c-.328 0-.595-.266-.595-.595 0-.328.267-.595.595-.595H7.28V7.952H6.142c-.328 0-.595-.267-.595-.595 0-.329.267-.596.595-.596H7.28v-.596L6.052 4.938c-.23-.231-.23-.61 0-.841.231-.231.61-.231.841 0l.387.386V.263H4.32c-.698 0-1.264.57-1.264 1.263v6.405l-2.2-.004-.367.184c-.517.466-.52 1.015-.054 1.531l6.845 5.881v-5.296zm-.722 0h-.416c-.328 0-.595-.266-.595-.595 0-.328.267-.595.595-.595h.416V7.952h-.416c-.328 0-.595-.267-.595-.595 0-.329.267-.596.595-.596h.416V5.443l-.506-.505c-.23-.231-.23-.61 0-.841.137-.138.325-.192.506-.166V.263H4.319c-.697 0-1.263.57-1.263 1.263v6.405l-2.2-.004-.367.184c-.517.466-.52 1.015-.054 1.531l6.123 5.26v-4.675zm-.722-.086c-.174-.104-.29-.292-.29-.509 0-.216.116-.404.29-.509V7.866c-.174-.105-.29-.293-.29-.51 0-.216.116-.404.29-.508V.263H4.319c-.697 0-1.263.57-1.263 1.263v6.405l-2.2-.004-.367.184c-.517.466-.52 1.015-.054 1.531l5.4 4.643V10.14zM5.113.263H4.32c-.697 0-1.263.57-1.263 1.263v6.405l-2.2-.004-.367.184c-.517.466-.52 1.015-.054 1.531l4.678 4.022V.263zm-.722 0H4.32c-.697 0-1.263.57-1.263 1.263v6.405l-2.2-.004-.367.184c-.517.466-.52 1.015-.054 1.531l3.956 3.4V.263zm-.722.18c-.368.22-.613.625-.613 1.083v6.405l-2.2-.004-.367.184c-.517.466-.52 1.015-.054 1.531l3.234 2.776V.443zm-.722 7.488l-2.09-.004-.368.184c-.517.466-.52 1.015-.054 1.531l2.512 2.163V7.93zm-.722 0H.857l-.368.184c-.517.466-.52 1.014-.054 1.53l1.79 1.539V7.93zm-.722 0H.857l-.368.184c-.517.466-.52 1.014-.054 1.53l1.068.921V7.931zm-.722.036l-.292.148c-.517.466-.52 1.014-.054 1.53l.346.3V7.967z" transform="translate(-1305 -22) translate(1277 14) translate(28 8)"/>
                </g>
            </g>
        </g>
    </g>
</svg>
