<svg xmlns="http://www.w3.org/2000/svg" width="17" height="14" viewBox="0 0 17 14">
    <g fill="none" fill-rule="evenodd">
        <g fill="#EBBA73" fill-rule="nonzero">
            <g>
                <g>
                    <path d="M1.024 7.607c-.253 0-.471-.093-.654-.28-.182-.189-.274-.409-.274-.662V5.407c0-.254.092-.472.274-.654.183-.183.4-.274.654-.274H13.17c-.165.045-.326.103-.48.173-.155.073-.292.185-.413.34-.354.396-.706.824-1.06 1.282-.354.458-.689.901-1.01 1.332H1.025v.001zM3.092 3.42c-.253 0-.47-.093-.653-.281-.183-.188-.274-.408-.274-.663V1.318c0-.254.091-.471.274-.654.182-.182.4-.274.653-.274h12.595c.253 0 .475.092.663.274.188.183.28.4.28.654v1.158c0 .253-.092.475-.28.663-.188.188-.408.28-.663.28H3.092zm8.357 7.265v.132c0 .067.002.174.007.323.006.149.008.366.008.653H1.024c-.253 0-.471-.091-.654-.274-.182-.182-.274-.406-.274-.67V9.607c0-.253.092-.47.274-.653.183-.183.4-.274.654-.274H9.38c-.033.022-.063.052-.09.091-.029.04-.053.069-.075.091-.11.155-.177.337-.2.546-.022.21 0 .411.067.603.067.194.174.356.323.488.148.132.333.2.554.2h.779l.711-.014zm4.932-1.852l.248.413c.067.11.099.2.099.264 0 .067-.041.114-.125.142-.082.028-.218.04-.406.04h-.894c-.242 0-.424.062-.545.183-.121.121-.183.281-.183.48v1.606c0 .188-.082.374-.247.562-.166.188-.365.281-.596.281h-.646c-.166 0-.311-.063-.438-.19-.127-.126-.19-.35-.19-.67 0-.143.002-.235.008-.274.005-.039.007-.087.007-.149 0-.061.004-.162.008-.305.003-.143.007-.391.007-.745 0-.275-.047-.475-.142-.596-.093-.12-.262-.182-.504-.182h-.894c-.253 0-.413-.052-.48-.157-.067-.104-.011-.268.165-.487.166-.222.35-.477.555-.77.205-.292.414-.595.63-.91l.629-.918c.205-.298.4-.562.587-.795.076-.087.176-.156.297-.207.121-.05.248-.076.38-.082.132-.005.254.008.365.041.11.034.194.088.248.166.132.231.285.488.454.77.172.28.35.565.538.852.188.287.373.572.555.853.188.279.356.542.51.784z" transform="translate(-1394 -23) translate(1277 14) translate(117 9.5)"/>
                </g>
            </g>
        </g>
    </g>
</svg>
