<svg xmlns="http://www.w3.org/2000/svg" width="24" height="23" viewBox="0 0 24 23">
  <defs>
    <filter id="aqyc40ndna2">
      <feColorMatrix in="SourceGraphic" values="0 0 0 0 0.901961 0 0 0 0 0.729412 0 0 0 0 0.474510 0 0 0 1.000000 0"/>
    </filter>
  </defs>
  <g fill="none" fill-rule="evenodd">
    <g>
      <g filter="url(#aqyc40ndna2)">
        <g>
          <path fill="#6F6F71" d="M20.733.026H3.267C1.562.028.173 1.452.171 3.199v15.507c0 1.75 1.389 3.173 3.096 3.173h17.466c1.707 0 3.096-1.423 3.096-3.173V3.2c0-1.75-1.389-3.173-3.096-3.173zm1.562 18.68c0 .883-.701 1.599-1.56 1.599H3.267c-.859 0-1.56-.719-1.56-1.599V7.564h20.588v11.142zM19.719 10c.25.031.39.172.422.422 0 .062-.047.187-.141.375-.031.031-.047.062-.047.094l-1.922 2.953h1.125l.108.005c.272.028.408.167.408.417-.031.218-.203.343-.516.375h-1.64v.843h1.64l.108.006c.272.027.408.166.408.416-.031.219-.203.344-.516.375h-1.64v1.875l-.007.099c-.034.247-.203.37-.509.37-.344 0-.516-.156-.516-.469v-1.875h-1.64l-.11-.016c-.244-.048-.379-.167-.406-.359 0-.281.172-.422.516-.422h1.64v-.843h-1.64l-.11-.016c-.244-.048-.379-.168-.406-.36 0-.28.172-.421.516-.421h1.125l-1.922-2.953-.005-.032c-.007-.02-.021-.041-.042-.062-.063-.125-.11-.25-.14-.375.03-.25.171-.39.421-.422.25 0 .438.11.563.328L17 13.563l2.214-3.322c.122-.16.29-.241.505-.241zm1.012-8.4c.86 0 1.56.719 1.56 1.599v2.79H1.705V3.2c0-.883.701-1.599 1.56-1.599h17.466z" transform="translate(-558 -266) translate(290 191) translate(268 75.3)"/>
        </g>
      </g>
    </g>
  </g>
</svg>
