<svg xmlns="http://www.w3.org/2000/svg" width="24" height="21" viewBox="0 0 24 21">
  <defs>
    <filter id="aqyc40ndna1">
      <feColorMatrix in="SourceGraphic" values="0 0 0 0 0.901961 0 0 0 0 0.729412 0 0 0 0 0.474510 0 0 0 1.000000 0"/>
    </filter>
  </defs>
  <g fill="none" fill-rule="evenodd">
    <g>
      <g filter="url(#aqyc40ndna1)" transform="translate(-558 -208) translate(290 191)">
        <g>
          <path fill="#6F6F71" d="M20.713 19.356H3.29C1.69 19.356.39 18.057.39 16.454V3.388C.39 1.785 1.69.486 3.291.486h17.422c1.603 0 2.902 1.3 2.902 2.902v13.067c0 .77-.305 1.509-.85 2.053-.544.544-1.283.85-2.052.848M3.29 17.907h17.422c.801 0 1.453-.65 1.453-1.453V6.293H1.842v10.161c0 .803.65 1.453 1.45 1.453m17.42-15.975H3.293c-.802 0-1.453.652-1.453 1.456v1.457h20.323v-1.46c.002-.385-.15-.756-.423-1.029-.272-.273-.641-.425-1.026-.424m-5.946 6.264c.242.03.378.167.408.409 0 .06-.045.181-.136.363-.03.03-.045.06-.045.09l-1.86 2.858h1.089l.105.005c.262.027.394.162.394.403-.03.212-.197.333-.5.363h-1.587v.817h1.588l.105.005c.262.027.394.161.394.403-.03.212-.197.333-.5.363h-1.587v1.815l-.006.095c-.033.239-.197.358-.493.358-.333 0-.499-.151-.499-.453v-1.815H10.05l-.107-.016c-.234-.046-.365-.162-.392-.347 0-.272.167-.408.5-.408h1.587v-.817H10.05l-.107-.015c-.234-.047-.365-.162-.392-.348 0-.272.167-.408.5-.408h1.088l-1.86-2.858-.005-.03c-.007-.02-.02-.04-.04-.06-.06-.121-.106-.242-.136-.363.03-.242.166-.378.408-.409.242 0 .423.106.544.318l2.087 3.13 2.087-3.13.055-.084c.119-.156.282-.234.49-.234zm5.53-5.776c.367 0 .719.101.978.283.26.181.404.427.403.684v.969H2.323v-.968c0-.534.62-.968 1.384-.968z" transform="translate(268 17.823)"/>
        </g>
      </g>
    </g>
  </g>
</svg>
