<svg xmlns="http://www.w3.org/2000/svg" width="32" height="32" viewBox="0 0 32 32">
  <g fill="none" fill-rule="evenodd">
    <g fill="#0B9CFE" fill-rule="nonzero">
      <g>
        <g>
          <g>
            <path d="M16.023.023c8.824 0 16 7.175 16 16 0 8.824-7.176 16-16 16-8.825 0-16-7.176-16-16 0-8.825 7.175-16 16-16zm0 2.007C8.307 2.03 2.03 8.307 2.03 16.023c0 7.715 6.277 13.992 13.993 13.992 7.715 0 13.992-6.277 13.992-13.992 0-7.716-6.277-13.993-13.992-13.993z" transform="translate(-951 -240) translate(916 240) translate(12) translate(23)"/>
            <path d="M7.752 14.515c-.773.773-.773 1.981 0 2.754l4.976 4.976c.773.773 1.98.773 2.754 0 .773-.773.773-1.98 0-2.754l-4.976-4.976c-.773-.724-1.98-.724-2.754 0z" opacity=".6" transform="translate(-951 -240) translate(916 240) translate(12) translate(23)"/>
            <path d="M25.143 9.684c.773.773.773 1.981 0 2.754l-9.806 9.807c-.773.773-1.981.773-2.754 0-.773-.773-.773-1.98 0-2.754l9.807-9.807c.773-.724 1.98-.724 2.753 0z" transform="translate(-951 -240) translate(916 240) translate(12) translate(23)"/>
          </g>
        </g>
      </g>
    </g>
  </g>
</svg>
